<svg width="18" height="12" viewBox="0 0 18 12" fill="none" xmlns="http://www.w3.org/2000/svg">
<path fill-rule="evenodd" clip-rule="evenodd" d="M16.718 0.62207H15.7006C15.1386 0.62207 14.6831 1.06133 14.6831 1.60317V10.1061C14.6831 10.6479 15.1386 11.0872 15.7006 11.0872H16.718C17.2799 11.0872 17.7354 10.6479 17.7354 10.1061V1.60317C17.7354 1.06133 17.2799 0.62207 16.718 0.62207ZM10.9128 2.91143H11.9302C12.4921 2.91143 12.9477 3.35069 12.9477 3.89254V10.1062C12.9477 10.6481 12.4921 11.0873 11.9302 11.0873H10.9128C10.3509 11.0873 9.89533 10.6481 9.89533 10.1062V3.89254C9.89533 3.35069 10.3509 2.91143 10.9128 2.91143ZM7.14221 5.20049H6.12477C5.56286 5.20049 5.10733 5.63975 5.10733 6.1816V10.106C5.10733 10.6479 5.56286 11.0871 6.12477 11.0871H7.14221C7.70413 11.0871 8.15966 10.6479 8.15966 10.106V6.1816C8.15966 5.63975 7.70413 5.20049 7.14221 5.20049ZM2.35422 7.16266H1.33678C0.77486 7.16266 0.319336 7.60192 0.319336 8.14377V10.106C0.319336 10.6478 0.77486 11.0871 1.33678 11.0871H2.35422C2.91614 11.0871 3.37166 10.6478 3.37166 10.106V8.14377C3.37166 7.60192 2.91614 7.16266 2.35422 7.16266Z" fill="white"/>
</svg>
