<svg width="16" height="12" viewBox="0 0 16 12" fill="none" xmlns="http://www.w3.org/2000/svg">
<path fill-rule="evenodd" clip-rule="evenodd" d="M8.25328 2.668C10.4044 2.66809 12.4732 3.51453 14.0321 5.03235C14.1495 5.14954 14.3372 5.14806 14.4528 5.02904L15.575 3.86923C15.6335 3.80886 15.6662 3.7271 15.6657 3.64202C15.6652 3.55694 15.6316 3.47557 15.5724 3.41591C11.4806 -0.5999 5.02533 -0.5999 0.933544 3.41591C0.874272 3.47553 0.840641 3.55687 0.840095 3.64195C0.839548 3.72703 0.87213 3.80882 0.930632 3.86923L2.05314 5.02904C2.16868 5.14824 2.35647 5.14972 2.47379 5.03235C4.03296 3.51443 6.10201 2.66799 8.25328 2.668ZM8.25328 6.44126C9.43516 6.44118 10.5749 6.89105 11.4509 7.70346C11.5694 7.81876 11.7561 7.81626 11.8716 7.69783L12.9925 6.53802C13.0515 6.47718 13.0842 6.39465 13.0834 6.3089C13.0825 6.22314 13.0482 6.14131 12.9879 6.08171C10.3201 3.54035 6.1887 3.54035 3.5209 6.08171C3.46064 6.14131 3.42626 6.22318 3.42547 6.30896C3.42468 6.39475 3.45754 6.47727 3.5167 6.53802L4.63726 7.69783C4.75277 7.81626 4.93942 7.81876 5.05792 7.70346C5.9334 6.89159 7.07219 6.44176 8.25328 6.44126ZM10.4986 8.9802C10.5003 9.0662 10.4673 9.14911 10.4073 9.20936L8.46841 11.2132C8.41157 11.2721 8.33408 11.3052 8.25323 11.3052C8.17237 11.3052 8.09488 11.2721 8.03804 11.2132L6.09882 9.20936C6.03891 9.14906 6.00596 9.06612 6.00774 8.98013C6.00951 8.89413 6.04586 8.81269 6.1082 8.75504C7.34646 7.6825 9.16 7.6825 10.3982 8.75504C10.4605 8.81274 10.4968 8.8942 10.4986 8.9802Z" fill="white"/>
</svg>
