<svg viewBox="0 0 33 33" fill="none" xmlns="http://www.w3.org/2000/svg">
<path d="M27.7178 4.35376H5.71781C5.18738 4.35376 4.67867 4.56447 4.3036 4.93955C3.92852 5.31462 3.71781 5.82333 3.71781 6.35376V26.3538C3.7155 26.7351 3.82339 27.1091 4.02851 27.4306C4.23363 27.7521 4.52724 28.0076 4.87406 28.1663C5.13835 28.2893 5.42628 28.3533 5.71781 28.3538C6.18731 28.3526 6.64124 28.1852 6.99906 27.8813L7.01031 27.8725L11.0928 24.3538H27.7178C28.2482 24.3538 28.7569 24.143 29.132 23.768C29.5071 23.3929 29.7178 22.8842 29.7178 22.3538V6.35376C29.7178 5.82333 29.5071 5.31462 29.132 4.93955C28.7569 4.56447 28.2482 4.35376 27.7178 4.35376ZM11.2178 15.8538C10.9211 15.8538 10.6311 15.7658 10.3845 15.601C10.1378 15.4361 9.94552 15.2019 9.83199 14.9278C9.71846 14.6537 9.68875 14.3521 9.74663 14.0611C9.80451 13.7702 9.94737 13.5029 10.1571 13.2931C10.3669 13.0833 10.6342 12.9405 10.9252 12.8826C11.2161 12.8247 11.5177 12.8544 11.7918 12.9679C12.0659 13.0815 12.3002 13.2737 12.465 13.5204C12.6298 13.7671 12.7178 14.0571 12.7178 14.3538C12.7178 14.7516 12.5598 15.1331 12.2785 15.4144C11.9972 15.6957 11.6156 15.8538 11.2178 15.8538ZM16.7178 15.8538C16.4211 15.8538 16.1311 15.7658 15.8845 15.601C15.6378 15.4361 15.4455 15.2019 15.332 14.9278C15.2185 14.6537 15.1888 14.3521 15.2466 14.0611C15.3045 13.7702 15.4474 13.5029 15.6571 13.2931C15.8669 13.0833 16.1342 12.9405 16.4252 12.8826C16.7161 12.8247 17.0177 12.8544 17.2918 12.9679C17.5659 13.0815 17.8002 13.2737 17.965 13.5204C18.1298 13.7671 18.2178 14.0571 18.2178 14.3538C18.2178 14.7516 18.0598 15.1331 17.7785 15.4144C17.4972 15.6957 17.1156 15.8538 16.7178 15.8538ZM22.2178 15.8538C21.9211 15.8538 21.6311 15.7658 21.3845 15.601C21.1378 15.4361 20.9455 15.2019 20.832 14.9278C20.7185 14.6537 20.6888 14.3521 20.7466 14.0611C20.8045 13.7702 20.9474 13.5029 21.1571 13.2931C21.3669 13.0833 21.6342 12.9405 21.9252 12.8826C22.2161 12.8247 22.5177 12.8544 22.7918 12.9679C23.0659 13.0815 23.3002 13.2737 23.465 13.5204C23.6298 13.7671 23.7178 14.0571 23.7178 14.3538C23.7178 14.7516 23.5598 15.1331 23.2785 15.4144C22.9972 15.6957 22.6156 15.8538 22.2178 15.8538Z" fill="currentColor"/>
</svg>
