<svg viewBox="0 0 33 33" fill="none" xmlns="http://www.w3.org/2000/svg">
<path d="M29.3711 9.52501L23.7848 3.94001C23.5991 3.75425 23.3786 3.60689 23.1359 3.50635C22.8932 3.40581 22.6331 3.35406 22.3704 3.35406C22.1078 3.35406 21.8476 3.40581 21.605 3.50635C21.3623 3.60689 21.1418 3.75425 20.9561 3.94001L5.54231 19.3538C5.35579 19.5388 5.20791 19.7591 5.10726 20.0018C5.00662 20.2445 4.95523 20.5048 4.95606 20.7675V26.3538C4.95606 26.8842 5.16678 27.3929 5.54185 27.768C5.91692 28.1431 6.42563 28.3538 6.95606 28.3538H27.9561C28.2213 28.3538 28.4756 28.2484 28.6632 28.0609C28.8507 27.8733 28.9561 27.619 28.9561 27.3538C28.9561 27.0886 28.8507 26.8342 28.6632 26.6467C28.4756 26.4591 28.2213 26.3538 27.9561 26.3538H15.3711L29.3711 12.3538C29.5568 12.168 29.7042 11.9475 29.8047 11.7049C29.9053 11.4622 29.957 11.2021 29.957 10.9394C29.957 10.6767 29.9053 10.4166 29.8047 10.1739C29.7042 9.93123 29.5568 9.71074 29.3711 9.52501ZM24.9561 13.94L19.3711 8.35376L22.3711 5.35376L27.9561 10.94L24.9561 13.94Z" fill="currentColor"/>
</svg>
