<svg viewBox="0 0 25 25" fill="none" xmlns="http://www.w3.org/2000/svg">
<path d="M3.81836 5.35374C3.81836 4.85668 4.2213 4.45374 4.71836 4.45374H20.7184C21.2154 4.45374 21.6184 4.85668 21.6184 5.35374C21.6184 5.85079 21.2154 6.25374 20.7184 6.25374H4.71836C4.2213 6.25374 3.81836 5.85079 3.81836 5.35374Z" fill="currentColor"/>
<path d="M3.81836 19.3537C3.81836 18.8567 4.2213 18.4537 4.71836 18.4537H20.7184C21.2154 18.4537 21.6184 18.8567 21.6184 19.3537C21.6184 19.8508 21.2154 20.2537 20.7184 20.2537H4.71836C4.2213 20.2537 3.81836 19.8508 3.81836 19.3537Z" fill="currentColor"/>
<path d="M4.71836 11.4537C4.2213 11.4537 3.81836 11.8567 3.81836 12.3537C3.81836 12.8508 4.2213 13.2537 4.71836 13.2537H20.7184C21.2154 13.2537 21.6184 12.8508 21.6184 12.3537C21.6184 11.8567 21.2154 11.4537 20.7184 11.4537H4.71836Z" fill="currentColor"/>
</svg>
