<svg width="25" height="25" viewBox="0 0 25 25" fill="none" xmlns="http://www.w3.org/2000/svg">
<path d="M21.9912 12.3538V17.6038C21.9912 18.2005 21.7542 18.7728 21.3322 19.1947C20.9102 19.6167 20.3379 19.8538 19.7412 19.8538H18.2412C17.6445 19.8538 17.0722 19.6167 16.6502 19.1947C16.2283 18.7728 15.9912 18.2005 15.9912 17.6038V13.8538C15.9912 13.257 16.2283 12.6847 16.6502 12.2628C17.0722 11.8408 17.6445 11.6038 18.2412 11.6038H20.4584C20.2782 9.56197 19.342 7.66108 17.8332 6.27369C16.3244 4.88629 14.3518 4.11241 12.3021 4.10376H12.2412C10.1829 4.10365 8.19897 4.87294 6.6788 6.26059C5.15863 7.64824 4.21208 9.55401 4.02496 11.6038H6.24121C6.83795 11.6038 7.41024 11.8408 7.8322 12.2628C8.25416 12.6847 8.49121 13.257 8.49121 13.8538V17.6038C8.49121 18.2005 8.25416 18.7728 7.8322 19.1947C7.41024 19.6167 6.83795 19.8538 6.24121 19.8538H4.74121C4.14447 19.8538 3.57218 19.6167 3.15022 19.1947C2.72826 18.7728 2.49121 18.2005 2.49121 17.6038V12.3538C2.49331 10.4224 3.06836 8.5351 4.14356 6.93072C5.21876 5.32634 6.74578 4.07701 8.53133 3.34086C10.3169 2.60472 12.2807 2.41486 14.1742 2.79532C16.0677 3.17577 17.8058 4.10943 19.1684 5.47813C20.0681 6.38217 20.7805 7.45484 21.2649 8.63468C21.7493 9.81453 21.9961 11.0784 21.9912 12.3538Z" fill="#13151A"/>
</svg>
