<svg width="25" height="25" viewBox="0 0 25 25" fill="none" xmlns="http://www.w3.org/2000/svg">
<path d="M12.5689 2.70377C13.066 2.70377 13.4689 3.10671 13.4689 3.60377V11.4538H21.3189C21.816 11.4538 22.2189 11.8567 22.2189 12.3538C22.2189 12.8508 21.816 13.2538 21.3189 13.2538H13.4689V21.1038C13.4689 21.6008 13.066 22.0038 12.5689 22.0038C12.0719 22.0038 11.6689 21.6008 11.6689 21.1038V13.2538H3.81895C3.32189 13.2538 2.91895 12.8508 2.91895 12.3538C2.91895 11.8567 3.32189 11.4538 3.81895 11.4538H11.6689V3.60377C11.6689 3.10671 12.0719 2.70377 12.5689 2.70377Z" fill="#171719"/>
</svg>
