<svg width="25" height="25" viewBox="0 0 25 25" fill="none" xmlns="http://www.w3.org/2000/svg">
<path d="M21.5693 4.10376V7.85376C21.5693 8.05267 21.4903 8.24344 21.3497 8.38409C21.209 8.52474 21.0182 8.60376 20.8193 8.60376C20.6204 8.60376 20.4297 8.52474 20.289 8.38409C20.1484 8.24344 20.0693 8.05267 20.0693 7.85376V4.85376H17.0693C16.8704 4.85376 16.6797 4.77474 16.539 4.63409C16.3984 4.49344 16.3193 4.30267 16.3193 4.10376C16.3193 3.90485 16.3984 3.71408 16.539 3.57343C16.6797 3.43278 16.8704 3.35376 17.0693 3.35376H20.8193C21.0182 3.35376 21.209 3.43278 21.3497 3.57343C21.4903 3.71408 21.5693 3.90485 21.5693 4.10376ZM8.06934 19.8538H5.06934V16.8538C5.06934 16.6548 4.99032 16.4641 4.84967 16.3234C4.70901 16.1828 4.51825 16.1038 4.31934 16.1038C4.12042 16.1038 3.92966 16.1828 3.78901 16.3234C3.64835 16.4641 3.56934 16.6548 3.56934 16.8538V20.6038C3.56934 20.8027 3.64835 20.9934 3.78901 21.1341C3.92966 21.2747 4.12042 21.3538 4.31934 21.3538H8.06934C8.26825 21.3538 8.45901 21.2747 8.59967 21.1341C8.74032 20.9934 8.81934 20.8027 8.81934 20.6038C8.81934 20.4048 8.74032 20.2141 8.59967 20.0734C8.45901 19.9328 8.26825 19.8538 8.06934 19.8538ZM20.8193 16.1038C20.6204 16.1038 20.4297 16.1828 20.289 16.3234C20.1484 16.4641 20.0693 16.6548 20.0693 16.8538V19.8538H17.0693C16.8704 19.8538 16.6797 19.9328 16.539 20.0734C16.3984 20.2141 16.3193 20.4048 16.3193 20.6038C16.3193 20.8027 16.3984 20.9934 16.539 21.1341C16.6797 21.2747 16.8704 21.3538 17.0693 21.3538H20.8193C21.0182 21.3538 21.209 21.2747 21.3497 21.1341C21.4903 20.9934 21.5693 20.8027 21.5693 20.6038V16.8538C21.5693 16.6548 21.4903 16.4641 21.3497 16.3234C21.209 16.1828 21.0182 16.1038 20.8193 16.1038ZM4.31934 8.60376C4.51825 8.60376 4.70901 8.52474 4.84967 8.38409C4.99032 8.24344 5.06934 8.05267 5.06934 7.85376V4.85376H8.06934C8.26825 4.85376 8.45901 4.77474 8.59967 4.63409C8.74032 4.49344 8.81934 4.30267 8.81934 4.10376C8.81934 3.90485 8.74032 3.71408 8.59967 3.57343C8.45901 3.43278 8.26825 3.35376 8.06934 3.35376H4.31934C4.12042 3.35376 3.92966 3.43278 3.78901 3.57343C3.64835 3.71408 3.56934 3.90485 3.56934 4.10376V7.85376C3.56934 8.05267 3.64835 8.24344 3.78901 8.38409C3.92966 8.52474 4.12042 8.60376 4.31934 8.60376ZM7.31934 7.85376V16.8538C7.31934 17.0527 7.39835 17.2434 7.53901 17.3841C7.67966 17.5247 7.87042 17.6038 8.06934 17.6038H17.0693C17.2682 17.6038 17.459 17.5247 17.5997 17.3841C17.7403 17.2434 17.8193 17.0527 17.8193 16.8538V7.85376C17.8193 7.65485 17.7403 7.46408 17.5997 7.32343C17.459 7.18278 17.2682 7.10376 17.0693 7.10376H8.06934C7.87042 7.10376 7.67966 7.18278 7.53901 7.32343C7.39835 7.46408 7.31934 7.65485 7.31934 7.85376Z" fill="#13151A"/>
</svg>
