<svg width="25" height="25" viewBox="0 0 25 25" fill="none" xmlns="http://www.w3.org/2000/svg">
<path d="M12.7174 7.47877C13.5333 7.47877 14.3308 7.7207 15.0092 8.17396C15.6875 8.62722 16.2162 9.27146 16.5284 10.0252C16.8406 10.7789 16.9223 11.6083 16.7632 12.4085C16.604 13.2087 16.2111 13.9437 15.6342 14.5206C15.0574 15.0975 14.3224 15.4903 13.5222 15.6495C12.722 15.8087 11.8926 15.727 11.1389 15.4148C10.3851 15.1026 9.74088 14.5738 9.28762 13.8955C8.83436 13.2171 8.59243 12.4196 8.59243 11.6038C8.59243 10.5098 9.02703 9.46054 9.80062 8.68695C10.5742 7.91337 11.6234 7.47877 12.7174 7.47877ZM17.2174 6.35377H18.7174V7.85377C18.7174 8.05268 18.7964 8.24345 18.9371 8.3841C19.0778 8.52475 19.2685 8.60377 19.4674 8.60377C19.6663 8.60377 19.8571 8.52475 19.9978 8.3841C20.1384 8.24345 20.2174 8.05268 20.2174 7.85377V6.35377H21.7174C21.9163 6.35377 22.1071 6.27475 22.2478 6.1341C22.3884 5.99345 22.4674 5.80268 22.4674 5.60377C22.4674 5.40486 22.3884 5.21409 22.2478 5.07344C22.1071 4.93279 21.9163 4.85377 21.7174 4.85377H20.2174V3.35377C20.2174 3.15486 20.1384 2.96409 19.9978 2.82344C19.8571 2.68279 19.6663 2.60377 19.4674 2.60377C19.2685 2.60377 19.0778 2.68279 18.9371 2.82344C18.7964 2.96409 18.7174 3.15486 18.7174 3.35377V4.85377H17.2174C17.0185 4.85377 16.8278 4.93279 16.6871 5.07344C16.5464 5.21409 16.4674 5.40486 16.4674 5.60377C16.4674 5.80268 16.5464 5.99345 16.6871 6.1341C16.8278 6.27475 17.0185 6.35377 17.2174 6.35377ZM21.469 10.1141C21.2728 10.1469 21.0977 10.2563 20.9822 10.4182C20.8667 10.5802 20.8202 10.7813 20.8531 10.9775C20.9292 11.4323 20.9675 11.8926 20.9674 12.3538C20.9692 14.3733 20.2269 16.3228 18.8824 17.8297C18.3369 17.0391 17.6443 16.3608 16.8424 15.8319C16.774 15.7865 16.6925 15.7648 16.6105 15.7703C16.5285 15.7757 16.4506 15.8079 16.3887 15.8619C15.3697 16.7436 14.0673 17.2288 12.7198 17.2288C11.3723 17.2288 10.0699 16.7436 9.05087 15.8619C8.9886 15.8068 8.90977 15.7739 8.82678 15.7685C8.74379 15.763 8.66136 15.7854 8.59243 15.8319C7.78933 16.3602 7.09572 17.0386 6.54962 17.8297C5.49451 16.6407 4.80536 15.1723 4.56506 13.6009C4.32475 12.0296 4.54353 10.4223 5.19507 8.9723C5.84662 7.52234 6.90319 6.29149 8.23769 5.42779C9.5722 4.56408 11.1278 4.10431 12.7174 4.10377C13.1786 4.1037 13.6389 4.14195 14.0937 4.21815C14.289 4.24896 14.4885 4.20142 14.649 4.08585C14.8094 3.97029 14.9177 3.79606 14.9503 3.60107C14.9829 3.40607 14.9372 3.20608 14.8232 3.04459C14.7091 2.88311 14.5359 2.7732 14.3412 2.73877C12.3044 2.39613 10.2114 2.70965 8.36446 3.63406C6.51749 4.55847 5.01208 6.04594 4.0656 7.8817C3.11912 9.71747 2.78055 11.8065 3.09875 13.8473C3.41696 15.888 4.37549 17.7748 5.83594 19.2353C7.2964 20.6957 9.1832 21.6542 11.2239 21.9724C13.2647 22.2907 15.3537 21.9521 17.1895 21.0056C19.0253 20.0591 20.5127 18.5537 21.4371 16.7067C22.3616 14.8598 22.6751 12.7668 22.3324 10.73C22.2996 10.5338 22.1902 10.3587 22.0283 10.2432C21.8663 10.1277 21.6652 10.0813 21.469 10.1141Z" fill="#13151A"/>
</svg>
