<svg width="25" height="25" viewBox="0 0 25 25" fill="none" xmlns="http://www.w3.org/2000/svg">
<path fill-rule="evenodd" clip-rule="evenodd" d="M11.0814 3.01706C6.97307 3.01706 3.64258 6.34756 3.64258 10.4559C3.64258 14.5643 6.97307 17.8948 11.0814 17.8948C12.8303 17.8948 14.4383 17.2913 15.7083 16.2812L20.3694 20.9423C20.7004 21.2732 21.237 21.2732 21.5679 20.9423C21.8989 20.6113 21.8989 20.0747 21.5679 19.7438L16.9068 15.0826C17.9169 13.8126 18.5203 12.2047 18.5203 10.4559C18.5203 6.34756 15.1898 3.01706 11.0814 3.01706ZM5.33751 10.4559C5.33751 7.28364 7.90916 4.71199 11.0814 4.71199C14.2537 4.71199 16.8254 7.28364 16.8254 10.4559C16.8254 13.6282 14.2537 16.1999 11.0814 16.1999C7.90916 16.1999 5.33751 13.6282 5.33751 10.4559Z" fill="#171719"/>
</svg>
