<svg viewBox="0 0 25 25" fill="none" xmlns="http://www.w3.org/2000/svg">
<path d="M23.3734 12.3434C23.3741 12.6107 23.3034 12.8733 23.1685 13.104C23.0337 13.3348 22.8397 13.5253 22.6065 13.6559L6.86403 22.6569C6.63812 22.7849 6.38307 22.8527 6.1234 22.8537C5.88414 22.8524 5.64866 22.7939 5.43662 22.6831C5.22457 22.5723 5.04212 22.4123 4.90449 22.2166C4.76685 22.0209 4.67804 21.7951 4.64545 21.5581C4.61286 21.321 4.63744 21.0796 4.71715 20.854L7.2484 13.3587C7.27314 13.2854 7.31993 13.2216 7.38236 13.176C7.4448 13.1303 7.51982 13.1051 7.59715 13.1037H14.3734C14.4762 13.104 14.578 13.083 14.6724 13.0423C14.7668 13.0015 14.8518 12.9418 14.9221 12.8668C14.9924 12.7918 15.0466 12.7031 15.0812 12.6063C15.1159 12.5095 15.1302 12.4066 15.1234 12.304C15.1064 12.1112 15.0172 11.9319 14.8736 11.802C14.73 11.6721 14.5426 11.6013 14.349 11.6037H7.59903C7.52057 11.6037 7.44409 11.5791 7.38035 11.5334C7.31661 11.4876 7.26882 11.4231 7.24371 11.3487L4.71246 3.85436C4.61171 3.5671 4.60075 3.25599 4.68103 2.96235C4.7613 2.66871 4.92902 2.40645 5.1619 2.2104C5.39477 2.01435 5.68179 1.8938 5.98481 1.86475C6.28784 1.83571 6.59252 1.89955 6.8584 2.04779L22.6084 11.0375C22.8402 11.1678 23.0333 11.3574 23.1677 11.5869C23.3021 11.8164 23.3731 12.0775 23.3734 12.3434Z" fill="currentColor"/>
</svg>
