<svg viewBox="0 0 25 25" fill="none" xmlns="http://www.w3.org/2000/svg">
<path d="M21.229 12.5562C21.2328 12.4212 21.2328 12.2862 21.229 12.1512L22.6278 10.4037C22.7011 10.312 22.7519 10.2043 22.776 10.0893C22.8001 9.97437 22.7969 9.85535 22.7665 9.74187C22.5368 8.88007 22.1938 8.05254 21.7465 7.28093C21.6879 7.17998 21.6066 7.0941 21.5089 7.03014C21.4112 6.96618 21.3 6.92589 21.184 6.91249L18.9603 6.66499C18.8678 6.56749 18.774 6.47374 18.679 6.38374L18.4165 4.15437C18.403 4.03832 18.3626 3.92702 18.2985 3.82936C18.2344 3.7317 18.1483 3.65038 18.0472 3.59187C17.2756 3.14491 16.448 2.80254 15.5862 2.57374C15.4728 2.54342 15.3537 2.54018 15.2388 2.56428C15.1238 2.58838 15.0161 2.63915 14.9244 2.71249L13.1815 4.10374C13.0465 4.10374 12.9115 4.10374 12.7765 4.10374L11.029 2.7078C10.9373 2.63446 10.8296 2.5837 10.7146 2.5596C10.5997 2.5355 10.4807 2.53874 10.3672 2.56905C9.50537 2.79877 8.67785 3.14176 7.90623 3.58905C7.80528 3.64767 7.71941 3.72905 7.65544 3.8267C7.59148 3.92435 7.5512 4.03559 7.5378 4.15155L7.2903 6.37905C7.1928 6.47218 7.09905 6.56593 7.00905 6.6603L4.77967 6.91624C4.66362 6.92974 4.55233 6.97017 4.45467 7.0343C4.35701 7.09843 4.27568 7.18449 4.21717 7.28562C3.77031 8.05733 3.42764 8.88484 3.19811 9.74655C3.16792 9.86011 3.16483 9.97917 3.18909 10.0941C3.21336 10.2091 3.26429 10.3168 3.3378 10.4084L4.72905 12.1512C4.72905 12.2862 4.72905 12.4212 4.72905 12.5562L3.33311 14.3037C3.25977 14.3955 3.209 14.5032 3.1849 14.6182C3.1608 14.7331 3.16404 14.8521 3.19436 14.9656C3.42407 15.8274 3.76706 16.6549 4.21436 17.4266C4.27298 17.5275 4.35435 17.6134 4.45201 17.6773C4.54966 17.7413 4.66089 17.7816 4.77686 17.795L7.00061 18.0425C7.09373 18.14 7.18748 18.2337 7.28186 18.3237L7.54155 20.5531C7.55505 20.6692 7.59548 20.7805 7.65961 20.8781C7.72374 20.9758 7.8098 21.0571 7.91092 21.1156C8.68264 21.5625 9.51015 21.9051 10.3719 22.1347C10.4854 22.1649 10.6045 22.168 10.7194 22.1437C10.8344 22.1194 10.9421 22.0685 11.0337 21.995L12.7765 20.6037C12.9115 20.6075 13.0465 20.6075 13.1815 20.6037L14.929 22.0025C15.0208 22.0758 15.1285 22.1266 15.2435 22.1507C15.3584 22.1748 15.4774 22.1716 15.5909 22.1412C16.4529 21.9119 17.2804 21.5689 18.0519 21.1212C18.1528 21.0626 18.2387 20.9813 18.3027 20.8836C18.3666 20.7859 18.4069 20.6747 18.4203 20.5587L18.6678 18.335C18.7653 18.2425 18.859 18.1487 18.949 18.0537L21.1784 17.7912C21.2945 17.7777 21.4058 17.7373 21.5034 17.6732C21.6011 17.6091 21.6824 17.523 21.7409 17.4219C22.1878 16.6502 22.5305 15.8226 22.76 14.9609C22.7902 14.8474 22.7933 14.7283 22.769 14.6133C22.7447 14.4984 22.6938 14.3907 22.6203 14.2991L21.229 12.5562ZM12.979 16.1037C12.2374 16.1037 11.5123 15.8838 10.8957 15.4718C10.279 15.0597 9.79833 14.474 9.5145 13.7888C9.23067 13.1036 9.15641 12.3496 9.3011 11.6222C9.4458 10.8947 9.80295 10.2265 10.3274 9.70209C10.8518 9.17764 11.52 8.82049 12.2475 8.6758C12.9749 8.5311 13.7289 8.60536 14.4141 8.88919C15.0993 9.17302 15.685 9.65367 16.0971 10.2704C16.5091 10.887 16.729 11.6121 16.729 12.3537C16.729 13.3483 16.334 14.3021 15.6307 15.0054C14.9274 15.7087 13.9736 16.1037 12.979 16.1037Z" fill="currentColor"/>
</svg>
