<svg width="25" height="25" viewBox="0 0 25 25" fill="none" xmlns="http://www.w3.org/2000/svg">
<path d="M12.6104 2.60376C10.682 2.60376 8.79693 3.17559 7.19355 4.24693C5.59017 5.31827 4.34048 6.84102 3.60253 8.6226C2.86458 10.4042 2.67149 12.3646 3.0477 14.2559C3.42391 16.1472 4.3525 17.8845 5.71606 19.2481C7.07963 20.6116 8.81691 21.5402 10.7082 21.9164C12.5995 22.2926 14.5599 22.0995 16.3415 21.3616C18.1231 20.6236 19.6458 19.3739 20.7172 17.7706C21.7885 16.1672 22.3604 14.2821 22.3604 12.3538C22.3576 9.76874 21.3295 7.29037 19.5016 5.46248C17.6737 3.6346 15.1954 2.60649 12.6104 2.60376ZM9.23536 9.35376C9.45786 9.35376 9.67537 9.41974 9.86037 9.54336C10.0454 9.66697 10.1896 9.84267 10.2747 10.0482C10.3599 10.2538 10.3821 10.48 10.3387 10.6982C10.2953 10.9165 10.1882 11.1169 10.0309 11.2743C9.87352 11.4316 9.67306 11.5387 9.45483 11.5821C9.2366 11.6256 9.0104 11.6033 8.80484 11.5181C8.59927 11.433 8.42357 11.2888 8.29995 11.1038C8.17634 10.9188 8.11036 10.7013 8.11036 10.4788C8.11036 10.1804 8.22888 9.89424 8.43986 9.68326C8.65084 9.47229 8.93699 9.35376 9.23536 9.35376ZM17.0091 14.9788C16.0444 16.6466 14.4413 17.6038 12.6104 17.6038C10.7794 17.6038 9.17629 16.6475 8.21161 14.9788C8.15734 14.8934 8.1209 14.7979 8.10449 14.6981C8.08807 14.5983 8.09201 14.4962 8.11608 14.398C8.14014 14.2997 8.18383 14.2074 8.24452 14.1264C8.30521 14.0455 8.38164 13.9777 8.46921 13.9271C8.55678 13.8765 8.65369 13.8441 8.75411 13.8319C8.85452 13.8197 8.95636 13.8279 9.05351 13.8561C9.15065 13.8843 9.2411 13.9318 9.31939 13.9959C9.39769 14.0599 9.46222 14.1391 9.50911 14.2288C10.2094 15.4391 11.31 16.1038 12.6104 16.1038C13.9107 16.1038 15.0113 15.4381 15.7116 14.2288C15.7585 14.1391 15.823 14.0599 15.9013 13.9959C15.9796 13.9318 16.0701 13.8843 16.1672 13.8561C16.2643 13.8279 16.3662 13.8197 16.4666 13.8319C16.567 13.8441 16.6639 13.8765 16.7515 13.9271C16.8391 13.9777 16.9155 14.0455 16.9762 14.1264C17.0369 14.2074 17.0806 14.2997 17.1046 14.398C17.1287 14.4962 17.1326 14.5983 17.1162 14.6981C17.0998 14.7979 17.0634 14.8934 17.0091 14.9788ZM15.9854 11.6038C15.7629 11.6038 15.5453 11.5378 15.3603 11.4142C15.1753 11.2905 15.0311 11.1148 14.946 10.9093C14.8608 10.7037 14.8386 10.4775 14.882 10.2593C14.9254 10.0411 15.0325 9.8406 15.1899 9.68326C15.3472 9.52593 15.5477 9.41878 15.7659 9.37538C15.9841 9.33197 16.2103 9.35425 16.4159 9.43939C16.6214 9.52454 16.7971 9.66874 16.9208 9.85374C17.0444 10.0387 17.1104 10.2563 17.1104 10.4788C17.1104 10.7771 16.9918 11.0633 16.7809 11.2743C16.5699 11.4852 16.2837 11.6038 15.9854 11.6038Z" fill="#13151A"/>
</svg>
