<svg viewBox="0 0 32 33" fill="none" xmlns="http://www.w3.org/2000/svg">
<path d="M22 3.35376H10C8.14409 3.35575 6.36477 4.09388 5.05245 5.40621C3.74012 6.71853 3.00199 8.49785 3 10.3538V22.3538C3.00199 24.2097 3.74012 25.989 5.05245 27.3013C6.36477 28.6136 8.14409 29.3518 10 29.3538H22C23.8559 29.3518 25.6352 28.6136 26.9476 27.3013C28.2599 25.989 28.998 24.2097 29 22.3538V10.3538C28.998 8.49785 28.2599 6.71853 26.9476 5.40621C25.6352 4.09388 23.8559 3.35575 22 3.35376ZM16 22.3538C14.8133 22.3538 13.6533 22.0019 12.6666 21.3426C11.6799 20.6833 10.9108 19.7462 10.4567 18.6499C10.0026 17.5535 9.88378 16.3471 10.1153 15.1832C10.3468 14.0193 10.9182 12.9502 11.7574 12.1111C12.5965 11.272 13.6656 10.7006 14.8295 10.469C15.9933 10.2375 17.1997 10.3564 18.2961 10.8105C19.3925 11.2646 20.3295 12.0336 20.9888 13.0203C21.6481 14.007 22 15.1671 22 16.3538C21.9983 17.9446 21.3657 19.4697 20.2408 20.5946C19.116 21.7194 17.5908 22.3521 16 22.3538ZM23.5 10.3538C23.2033 10.3538 22.9133 10.2658 22.6666 10.101C22.42 9.93614 22.2277 9.70187 22.1142 9.42778C22.0007 9.1537 21.9709 8.8521 22.0288 8.56112C22.0867 8.27015 22.2296 8.00288 22.4393 7.7931C22.6491 7.58332 22.9164 7.44046 23.2074 7.38258C23.4983 7.3247 23.7999 7.35441 24.074 7.46794C24.3481 7.58147 24.5824 7.77373 24.7472 8.0204C24.912 8.26708 25 8.55709 25 8.85376C25 9.25158 24.842 9.63312 24.5607 9.91442C24.2794 10.1957 23.8978 10.3538 23.5 10.3538ZM20 16.3538C20 17.1449 19.7654 17.9182 19.3259 18.576C18.8864 19.2338 18.2616 19.7465 17.5307 20.0493C16.7998 20.352 15.9956 20.4312 15.2196 20.2769C14.4437 20.1226 13.731 19.7416 13.1716 19.1822C12.6122 18.6228 12.2312 17.91 12.0769 17.1341C11.9225 16.3582 12.0017 15.5539 12.3045 14.823C12.6072 14.0921 13.1199 13.4674 13.7777 13.0279C14.4355 12.5884 15.2089 12.3538 16 12.3538C17.0609 12.3538 18.0783 12.7752 18.8284 13.5253C19.5786 14.2755 20 15.2929 20 16.3538Z" fill="currentColor"/>
</svg>
