<svg viewBox="0 0 25 25" fill="none" xmlns="http://www.w3.org/2000/svg">
<path d="M14.2539 5.10376C14.2539 6.07026 13.4704 6.85376 12.5039 6.85376C11.5374 6.85376 10.7539 6.07026 10.7539 5.10376C10.7539 4.13726 11.5374 3.35376 12.5039 3.35376C13.4704 3.35376 14.2539 4.13726 14.2539 5.10376Z" fill="currentColor"/>
<path d="M14.2539 12.3538C14.2539 13.3203 13.4704 14.1038 12.5039 14.1038C11.5374 14.1038 10.7539 13.3203 10.7539 12.3538C10.7539 11.3873 11.5374 10.6038 12.5039 10.6038C13.4704 10.6038 14.2539 11.3873 14.2539 12.3538Z" fill="currentColor"/>
<path d="M12.5039 21.3538C13.4704 21.3538 14.2539 20.5703 14.2539 19.6038C14.2539 18.6373 13.4704 17.8538 12.5039 17.8538C11.5374 17.8538 10.7539 18.6373 10.7539 19.6038C10.7539 20.5703 11.5374 21.3538 12.5039 21.3538Z" fill="currentColor"/>
</svg>
