<svg width="40" height="40" viewBox="0 0 40 40" fill="none" xmlns="http://www.w3.org/2000/svg">
<path d="M11.4256 18.0198C11.1526 17.4021 11.0009 16.7188 11.0009 16C11.0009 13.2386 13.2391 11 16.0001 11C18.761 11 20.9992 13.2386 20.9992 16C20.9992 18.7614 18.761 21 16.0001 21C15.1111 21 14.2764 20.768 13.5531 20.3611L11 20.9995L11.4256 18.0198Z" fill="#528EFF"/>
<path d="M12.9998 11C12.9998 6.58172 16.5813 3 20.9992 3C25.4171 3 28.9985 6.58172 28.9985 11C28.9985 12.15 28.7558 13.2434 28.319 14.2316L29 18.9992L24.9146 17.9778C23.7572 18.6287 22.4215 19 20.9992 19M11.0009 16C11.0009 16.7188 11.1526 17.4021 11.4256 18.0198L11 20.9995L13.5531 20.3611C14.2764 20.768 15.1111 21 16.0001 21C18.761 21 20.9992 18.7614 20.9992 16C20.9992 13.2386 18.761 11 16.0001 11C13.2391 11 11.0009 13.2386 11.0009 16Z" stroke="#528EFF" stroke-width="1.6" stroke-linecap="round" stroke-linejoin="round"/>
<path d="M19.0333 27.4961V37.9961H17.9669V32.5703H16.6076V37.457H15.588V27.707H16.6076V31.6562H17.9669V27.4961H19.0333ZM10.3732 35.4766V28.7617H14.3107V29.6641H11.4865V34.5273C12.7755 34.5215 13.7482 34.4629 14.8732 34.2461L14.9552 35.1602C13.6955 35.4238 12.6056 35.4648 11.0763 35.4766H10.3732ZM28.6073 27.4961V31.8906H30.1893V32.8281H28.6073V37.9961H27.494V27.4961H28.6073ZM20.2518 35.1367C21.078 35.1367 22.0389 35.1367 23.0409 35.1074V34.041C21.8573 33.8652 21.0838 33.1504 21.0956 32.1367C21.0838 30.9531 22.1092 30.1738 23.6034 30.168C25.0917 30.1738 26.1288 30.9531 26.1346 32.1367C26.1288 33.1504 25.3436 33.8711 24.1542 34.041V35.0664C25.0858 35.0195 26.0233 34.9434 26.8963 34.8203L26.9667 35.6406C24.6932 36.0449 22.2381 36.0684 20.4276 36.0625L20.2518 35.1367ZM20.451 29.6289V28.7383H23.0409V27.5195H24.1542V28.7383H26.744V29.6289H20.451ZM22.1385 32.1367C22.1385 32.8047 22.7245 33.2207 23.6034 33.2148C24.4823 33.2207 25.0624 32.8047 25.0682 32.1367C25.0624 31.4629 24.4823 31.0352 23.6034 31.0352C22.7245 31.0352 22.1385 31.4629 22.1385 32.1367Z" fill="#2C2D30"/>
</svg>
