<svg width="40" height="40" viewBox="0 0 40 40" fill="none" xmlns="http://www.w3.org/2000/svg">
<path d="M28.533 18.7403C28.533 18.7403 27.3743 19.8783 27.0903 20.2119C26.6278 20.7055 26.0828 20.9386 25.3684 20.9386C25.2997 20.9386 25.2264 20.9386 25.1577 20.934C23.7975 20.8472 22.5335 20.317 21.5856 19.8646C18.9934 18.6123 16.7173 16.8344 14.8259 14.5812C13.2642 12.7028 12.2201 10.9661 11.5285 9.1014C11.1026 7.96339 10.9469 7.07674 11.0156 6.24037C11.0614 5.70564 11.2675 5.26232 11.6476 4.88298L13.2093 3.32449C13.4337 3.11426 13.6718 3 13.9054 3C14.1939 3 14.4275 3.17367 14.574 3.31992C14.5786 3.32449 14.5832 3.32906 14.5878 3.33364C14.8671 3.59414 15.1328 3.86379 15.4121 4.15173C15.5541 4.29798 15.7006 4.44423 15.8472 4.59505L17.0974 5.84275C17.5829 6.32721 17.5829 6.7751 17.0974 7.25956C16.9646 7.3921 16.8364 7.52464 16.7036 7.65261C16.3189 8.04565 16.6211 7.74407 16.2227 8.10056C16.2135 8.1097 16.2043 8.11427 16.1998 8.12341C15.8059 8.51646 15.8792 8.90037 15.9616 9.16088C15.9662 9.17459 15.9708 9.1883 15.9754 9.20201C16.3005 9.98811 16.7585 10.7285 17.4546 11.6106L17.4592 11.6151C18.7232 13.1691 20.0559 14.3802 21.526 15.308C21.7137 15.4268 21.9061 15.5228 22.0893 15.6142C22.2541 15.6965 22.4098 15.7742 22.5426 15.8564C22.561 15.8656 22.5793 15.8793 22.5976 15.8884C22.7533 15.9661 22.8999 16.0027 23.051 16.0027C23.4311 16.0027 23.6693 15.765 23.7471 15.6873L24.6448 14.7915C24.8005 14.6361 25.0478 14.4487 25.3363 14.4487C25.6203 14.4487 25.8538 14.6269 25.9958 14.7823C26.0004 14.7869 26.0004 14.7869 26.005 14.7915L28.5284 17.3097C29.0001 17.7759 28.533 18.7403 28.533 18.7403Z" fill="#2C2D30" stroke="#2C2D30" stroke-width="1.6" stroke-linecap="round" stroke-linejoin="round"/>
<path d="M19.5958 33.0156V33.8945H9.99819V33.0156H14.2404V32.1016H11.2521V27.7773H18.424V28.6562H12.3771V29.5117H18.1544V30.3438H12.3771V31.2344H18.4943V32.1016H15.3537V33.0156H19.5958ZM11.1583 36.2852C11.1583 35.1836 12.465 34.5801 14.8029 34.5859C17.1056 34.5801 18.4181 35.1836 18.424 36.2852C18.4181 37.3926 17.1056 37.9785 14.8029 37.9727C12.465 37.9785 11.1583 37.3926 11.1583 36.2852ZM12.2716 36.2852C12.2658 36.8535 13.1447 37.1406 14.8029 37.1289C16.4376 37.1406 17.3107 36.8535 17.3107 36.2852C17.3107 35.7168 16.4376 35.418 14.8029 35.418C13.1447 35.418 12.2658 35.7168 12.2716 36.2852ZM28.6073 27.4961V31.8906H30.1893V32.8281H28.6073V37.9961H27.494V27.4961H28.6073ZM20.2518 35.1367C21.078 35.1367 22.0389 35.1367 23.0409 35.1074V34.041C21.8573 33.8652 21.0838 33.1504 21.0956 32.1367C21.0838 30.9531 22.1092 30.1738 23.6034 30.168C25.0917 30.1738 26.1288 30.9531 26.1346 32.1367C26.1288 33.1504 25.3436 33.8711 24.1542 34.041V35.0664C25.0858 35.0195 26.0233 34.9434 26.8963 34.8203L26.9667 35.6406C24.6932 36.0449 22.2381 36.0684 20.4276 36.0625L20.2518 35.1367ZM20.451 29.6289V28.7383H23.0409V27.5195H24.1542V28.7383H26.744V29.6289H20.451ZM22.1385 32.1367C22.1385 32.8047 22.7245 33.2207 23.6034 33.2148C24.4823 33.2207 25.0624 32.8047 25.0682 32.1367C25.0624 31.4629 24.4823 31.0352 23.6034 31.0352C22.7245 31.0352 22.1385 31.4629 22.1385 32.1367Z" fill="#2C2D30"/>
</svg>
