<svg width="40" height="40" viewBox="0 0 40 40" fill="none" xmlns="http://www.w3.org/2000/svg">
<path d="M28.3813 10.875L26.75 9.24487V5.25C26.75 4.63125 26.2437 4.125 25.625 4.125H24.5C23.8813 4.125 23.375 4.63125 23.375 5.25V5.87212L21.125 3.62437C20.8179 3.33413 20.5366 3 20 3C19.4634 3 19.1821 3.33413 18.875 3.62437L11.6188 10.875C11.2678 11.2406 11 11.5072 11 12C11 12.6334 11.486 13.125 12.125 13.125H13.25V19.875C13.25 20.4937 13.7562 21 14.375 21H16.625C17.2463 21 17.75 20.4963 17.75 19.875V15.375C17.75 14.7563 18.2562 14.25 18.875 14.25H21.125C21.7437 14.25 22.25 14.7563 22.25 15.375V19.875C22.25 20.4963 22.1912 21 22.8125 21H25.625C26.2437 21 26.75 20.4937 26.75 19.875V13.125H27.875C28.514 13.125 29 12.6334 29 12C29 11.5072 28.7323 11.2406 28.3813 10.875Z" fill="#2C2D30" stroke="#2C2D30" stroke-width="1.6" stroke-linejoin="round"/>
<path d="M23.6035 34.832V37.8672H16.3496V34.832H23.6035ZM15.2012 34.1172V33.2383H19.4316V32.5234C17.5742 32.4473 16.5312 31.9492 16.5371 31.0469C16.5312 30.0684 17.7793 29.5645 19.9824 29.5586C22.1973 29.5645 23.4336 30.0684 23.4277 31.0469C23.4336 31.9492 22.4082 32.4473 20.5449 32.5234V33.2383H24.7754V34.1172H15.2012ZM15.6934 29.1836V28.3281H19.4316V27.3555H20.5449V28.3281H24.2363V29.1836H15.6934ZM17.4512 37.0117H22.5254V35.6875H17.4512V37.0117ZM17.7207 31.0469C17.7148 31.5215 18.5176 31.7734 19.9824 31.7734C21.459 31.7734 22.2441 31.5215 22.2441 31.0469C22.2441 30.5664 21.459 30.332 19.9824 30.3203C18.5176 30.332 17.7148 30.5664 17.7207 31.0469Z" fill="#2C2D30"/>
</svg>
