<svg width="24" height="24" viewBox="0 0 24 24" fill="none" xmlns="http://www.w3.org/2000/svg">
<path d="M9.1419 21.5855C7.46637 21.0867 5.97491 20.1605 4.79393 18.9334C5.23449 18.4112 5.5 17.7366 5.5 16.9999C5.5 15.3431 4.15685 13.9999 2.5 13.9999C2.39977 13.9999 2.3007 14.0049 2.20299 14.0145C2.0699 13.3637 2 12.69 2 11.9999C2 10.9546 2.16039 9.94678 2.45789 8.99965C2.47191 8.99985 2.48594 8.99994 2.5 8.99994C4.15685 8.99994 5.5 7.6568 5.5 5.99994C5.5 5.5243 5.38931 5.07451 5.19228 4.67493C6.34877 3.59963 7.76026 2.79489 9.32603 2.36145C9.8222 3.33397 10.8333 3.99994 12 3.99994C13.1667 3.99994 14.1778 3.33397 14.674 2.36145C16.2397 2.79489 17.6512 3.59963 18.8077 4.67493C18.6107 5.07451 18.5 5.5243 18.5 5.99994C18.5 7.6568 19.8431 8.99994 21.5 8.99994C21.5141 8.99994 21.5281 8.99985 21.5421 8.99965C21.8396 9.94678 22 10.9546 22 11.9999C22 12.69 21.9301 13.3637 21.797 14.0145C21.6993 14.0049 21.6002 13.9999 21.5 13.9999C19.8431 13.9999 18.5 15.3431 18.5 16.9999C18.5 17.7366 18.7655 18.4112 19.2061 18.9334C18.0251 20.1605 16.5336 21.0867 14.8581 21.5855C14.4714 20.3759 13.338 19.4999 12 19.4999C10.662 19.4999 9.5286 20.3759 9.1419 21.5855Z" stroke="#2C2D30" stroke-width="1.6" stroke-linejoin="round"/>
<path d="M12 15.5001C13.933 15.5001 15.5 13.9331 15.5 12.0001C15.5 10.0671 13.933 8.50012 12 8.50012C10.067 8.50012 8.5 10.0671 8.5 12.0001C8.5 13.9331 10.067 15.5001 12 15.5001Z" stroke="#2C2D30" stroke-width="1.6" stroke-linejoin="round"/>
</svg>
