<svg width="19" height="18" viewBox="0 0 19 18" fill="none" xmlns="http://www.w3.org/2000/svg">
<g id="person_add_alt">
<path id="Vector" d="M12.0425 10.92C10.7825 10.275 9.1475 9.75 7.25 9.75C5.3525 9.75 3.7175 10.275 2.4575 10.92C1.7075 11.3025 1.25 12.075 1.25 12.915V15H13.25V12.915C13.25 12.075 12.7925 11.3025 12.0425 10.92ZM7.25 9C8.9075 9 10.25 7.6575 10.25 6C10.25 4.3425 8.9075 3 7.25 3C5.5925 3 4.25 4.3425 4.25 6C4.25 7.6575 5.5925 9 7.25 9ZM15.5 6.75V5.25C15.5 4.8375 15.1625 4.5 14.75 4.5C14.3375 4.5 14 4.8375 14 5.25V6.75H12.5C12.0875 6.75 11.75 7.0875 11.75 7.5C11.75 7.9125 12.0875 8.25 12.5 8.25H14V9.75C14 10.1625 14.3375 10.5 14.75 10.5C15.1625 10.5 15.5 10.1625 15.5 9.75V8.25H17C17.4125 8.25 17.75 7.9125 17.75 7.5C17.75 7.0875 17.4125 6.75 17 6.75H15.5Z" fill="#98A0A9"/>
</g>
</svg>
