<svg width="28" height="28" viewBox="0 0 28 28" fill="none" xmlns="http://www.w3.org/2000/svg">
<g id="chat">
<path id="Vector" d="M23.3333 2.33325H4.66667C3.38333 2.33325 2.345 3.38325 2.345 4.66659L2.33333 25.6666L7 20.9999H23.3333C24.6167 20.9999 25.6667 19.9499 25.6667 18.6666V4.66659C25.6667 3.38325 24.6167 2.33325 23.3333 2.33325ZM8.16667 10.4999H19.8333C20.475 10.4999 21 11.0249 21 11.6666C21 12.3083 20.475 12.8333 19.8333 12.8333H8.16667C7.525 12.8333 7 12.3083 7 11.6666C7 11.0249 7.525 10.4999 8.16667 10.4999ZM15.1667 16.3333H8.16667C7.525 16.3333 7 15.8083 7 15.1666C7 14.5249 7.525 13.9999 8.16667 13.9999H15.1667C15.8083 13.9999 16.3333 14.5249 16.3333 15.1666C16.3333 15.8083 15.8083 16.3333 15.1667 16.3333ZM19.8333 9.33325H8.16667C7.525 9.33325 7 8.80825 7 8.16658C7 7.52492 7.525 6.99992 8.16667 6.99992H19.8333C20.475 6.99992 21 7.52492 21 8.16658C21 8.80825 20.475 9.33325 19.8333 9.33325Z" fill="currentColor"/>
</g>
</svg>
