<svg width="29" height="28" viewBox="0 0 29 28" fill="none" xmlns="http://www.w3.org/2000/svg">
<g id="face_6">
<g id="Vector">
<path d="M14.5 2.33325C8.06 2.33325 2.83334 7.55992 2.83334 13.9999C2.83334 20.4399 8.06 25.6666 14.5 25.6666C20.94 25.6666 26.1667 20.4399 26.1667 13.9999C26.1667 7.55992 20.94 2.33325 14.5 2.33325ZM14.5 4.66659C18.7933 4.66659 22.41 7.59492 23.495 11.5499C22.795 11.3633 21.9433 11.1183 20.8583 8.93658C20.2633 7.74658 19.0617 6.99992 17.72 6.99992H11.28C9.93834 6.99992 8.73667 7.74658 8.14167 8.93658C7.05667 11.1066 6.29834 11.3399 5.505 11.5499C6.59 7.59492 10.2067 4.66659 14.5 4.66659ZM14.5 23.3333C9.355 23.3333 5.16667 19.1449 5.16667 13.9999C5.16667 13.9883 5.16667 13.9766 5.16667 13.9649C7.86167 13.7083 9.16834 12.1099 10.23 9.98659C10.4283 9.57825 10.825 9.33325 11.28 9.33325H17.7317C18.175 9.33325 18.5717 9.57825 18.77 9.97492C19.82 12.0749 21.0917 13.6966 23.8333 13.9533C23.8333 13.9649 23.8333 13.9766 23.8333 13.9883C23.8333 19.1449 19.645 23.3333 14.5 23.3333Z" fill="currentColor"/>
<path d="M11 16.6249C11.8054 16.6249 12.4583 15.972 12.4583 15.1666C12.4583 14.3612 11.8054 13.7083 11 13.7083C10.1946 13.7083 9.54167 14.3612 9.54167 15.1666C9.54167 15.972 10.1946 16.6249 11 16.6249Z" fill="currentColor"/>
<path d="M18 16.6249C18.8054 16.6249 19.4583 15.972 19.4583 15.1666C19.4583 14.3612 18.8054 13.7083 18 13.7083C17.1946 13.7083 16.5417 14.3612 16.5417 15.1666C16.5417 15.972 17.1946 16.6249 18 16.6249Z" fill="currentColor"/>
</g>
</g>
</svg>
