<svg xmlns="http://www.w3.org/2000/svg" width="44" height="44" viewBox="0 0 44 44" fill="none">
<path d="M22.0001 3.81836C11.9637 3.81836 3.81824 11.9638 3.81824 22.0002C3.81824 32.0365 11.9637 40.182 22.0001 40.182C32.0364 40.182 40.1819 32.0365 40.1819 22.0002C40.1819 11.9638 32.0364 3.81836 22.0001 3.81836ZM22.0001 36.5456C13.9819 36.5456 7.4546 30.0184 7.4546 22.0002C7.4546 21.982 7.4546 21.9638 7.4546 21.9456C11.6546 21.5456 13.691 19.0547 15.3455 15.7456C15.6546 15.1093 16.2728 14.7275 16.9819 14.7275H27.0364C27.7273 14.7275 28.3455 15.1093 28.6546 15.7275C30.291 19.0002 32.2728 21.5275 36.5455 21.9275C36.5455 21.9456 36.5455 21.9638 36.5455 21.982C36.5455 30.0184 30.0182 36.5456 22.0001 36.5456Z" fill="currentColor"/>
<path d="M16.5455 26.0911C17.8007 26.0911 18.8182 25.0736 18.8182 23.8184C18.8182 22.5632 17.8007 21.5456 16.5455 21.5456C15.2903 21.5456 14.2728 22.5632 14.2728 23.8184C14.2728 25.0736 15.2903 26.0911 16.5455 26.0911Z" fill="currentColor"/>
<path d="M27.4546 26.0911C28.7098 26.0911 29.7273 25.0736 29.7273 23.8184C29.7273 22.5632 28.7098 21.5456 27.4546 21.5456C26.1994 21.5456 25.1819 22.5632 25.1819 23.8184C25.1819 25.0736 26.1994 26.0911 27.4546 26.0911Z" fill="currentColor"/>
</svg>