<svg width="18" height="18" viewBox="0 0 18 18" fill="none" xmlns="http://www.w3.org/2000/svg">
<g id="search">
<path id="Vector" d="M11.8163 10.6914H11.2238L11.0138 10.4889C11.7488 9.63391 12.1913 8.52391 12.1913 7.31641C12.1913 4.62391 10.0088 2.44141 7.31628 2.44141C4.62378 2.44141 2.44128 4.62391 2.44128 7.31641C2.44128 10.0089 4.62378 12.1914 7.31628 12.1914C8.52378 12.1914 9.63378 11.7489 10.4888 11.0139L10.6913 11.2239V11.8164L14.4413 15.5589L15.5588 14.4414L11.8163 10.6914ZM7.31628 10.6914C5.44878 10.6914 3.94128 9.18391 3.94128 7.31641C3.94128 5.44891 5.44878 3.94141 7.31628 3.94141C9.18378 3.94141 10.6913 5.44891 10.6913 7.31641C10.6913 9.18391 9.18378 10.6914 7.31628 10.6914Z" fill="currentColor"/>
</g>
</svg>
