<svg width="6" height="12" viewBox="0 0 6 12" fill="none" xmlns="http://www.w3.org/2000/svg">
<path id="arrow" d="M4.79282 11.6409C4.84284 11.6403 4.89209 11.6285 4.93704 11.6066C4.982 11.5846 5.02155 11.553 5.05283 11.5139C5.12261 11.4268 5.16065 11.3186 5.16065 11.207C5.16065 11.0954 5.12261 10.9871 5.05283 10.9L0.889832 5.99994L5.05283 1.09991C5.12261 1.01281 5.16064 0.904582 5.16064 0.792969C5.16064 0.681356 5.12261 0.573067 5.05283 0.485962C5.02186 0.44646 4.98233 0.414483 4.93719 0.392517C4.89206 0.370551 4.84252 0.359131 4.79233 0.359131C4.74214 0.359131 4.69259 0.370551 4.64746 0.392517C4.60233 0.414484 4.5628 0.44646 4.53183 0.485962L0.107819 5.69696C0.0380325 5.78407 4.8373e-07 5.89235 4.93487e-07 6.00397C5.03245e-07 6.11558 0.0380326 6.22387 0.107819 6.31097L4.53183 11.522C4.56408 11.5596 4.60413 11.5897 4.6492 11.6102C4.69428 11.6308 4.74328 11.6412 4.79282 11.6409Z" fill="#121214"/>
</svg>
