<svg width="25" height="25" viewBox="0 0 25 25" fill="none" xmlns="http://www.w3.org/2000/svg">
<path d="M12.2474 1.50913C14.4211 1.50843 16.5463 2.15236 18.354 3.35953C20.1618 4.5667 21.571 6.28288 22.4033 8.29098C23.2357 10.2991 23.4538 12.5089 23.0301 14.641C22.6065 16.7731 21.5601 18.7316 20.0232 20.269C18.4864 21.8063 16.5282 22.8533 14.3962 23.2777C12.2643 23.702 10.0544 23.4846 8.04602 22.6529C6.03766 21.8212 4.32104 20.4126 3.11329 18.6052C1.90553 16.7978 1.26089 14.6729 1.26089 12.4991C1.26417 9.58539 2.42308 6.79195 4.4834 4.73163C6.54371 2.67132 9.33716 1.5124 12.2509 1.50913H12.2474ZM12.2509 0.5C9.87743 0.499825 7.55724 1.20346 5.58371 2.52197C3.61019 3.84048 2.07198 5.71461 1.16362 7.90736C0.255255 10.1001 0.017546 12.513 0.48054 14.8409C0.943535 17.1687 2.08645 19.307 3.76473 20.9853C5.44301 22.6636 7.58128 23.8064 9.90914 24.2694C12.237 24.7324 14.6499 24.4947 16.8426 23.5864C19.0354 22.678 20.9095 21.1398 22.228 19.1663C23.5465 17.1928 24.2502 14.8726 24.25 12.4991C24.25 9.31675 22.9858 6.26473 20.7355 4.01446C18.4853 1.76419 15.4332 0.5 12.2509 0.5Z" fill="#121214"/>
<path d="M9.13036 8.89844L7.75731 9.09456L7.76387 12.4127L9.13129 12.2175L9.13036 8.89844Z" fill="#121214"/>
<path d="M17.1304 8.89868L15.7573 9.0948L15.7639 12.413L17.1313 12.2178L17.1304 8.89868Z" fill="#121214"/>
<path fill-rule="evenodd" clip-rule="evenodd" d="M6.81421 14.9269L7.31701 14.0625L12.25 16.9319L17.1829 14.0625L17.6857 14.9269L12.25 18.0888L6.81421 14.9269Z" fill="#121214"/>
</svg>
