<svg width="25" height="25" viewBox="0 0 25 25" fill="none" xmlns="http://www.w3.org/2000/svg">
<path d="M21.712 1.78323V20.2903L3.2899 23.2168L3.23409 4.7097L21.712 1.78323ZM22.6943 0.633362L2.25 3.87163L2.31097 24.3666L22.6943 21.1284V0.633362Z" fill="#121214"/>
<path d="M6.83827 16.4819L6.14355 15.7873L10.8287 11.1021L14.0429 14.3163L16.619 11.7401L18.8011 13.9221L18.1063 14.6168L16.619 13.1295L14.0429 15.7057L10.8287 12.4907L6.83827 16.4819Z" fill="#121214"/>
<path d="M14.3286 9.07671C14.5009 9.07688 14.6694 9.12811 14.8126 9.22399C14.9558 9.31986 15.0674 9.45607 15.1332 9.61535C15.1991 9.77462 15.2162 9.94985 15.1825 10.1189C15.1488 10.2879 15.0657 10.4431 14.9437 10.5649C14.8218 10.6867 14.6665 10.7696 14.4975 10.8032C14.3284 10.8368 14.1532 10.8195 13.994 10.7535C13.8348 10.6875 13.6987 10.5758 13.603 10.4324C13.5072 10.2891 13.4561 10.1206 13.4561 9.94827C13.4564 9.71703 13.5484 9.49533 13.712 9.3319C13.8756 9.16847 14.0973 9.07671 14.3286 9.07671ZM14.3286 8.0943C13.9619 8.0943 13.6035 8.20306 13.2986 8.40678C12.9937 8.6105 12.7561 8.90005 12.6157 9.23882C12.4754 9.57759 12.4387 9.95033 12.5102 10.31C12.5818 10.6696 12.7584 11 13.0176 11.2592C13.2769 11.5185 13.6073 11.6951 13.9669 11.7666C14.3265 11.8382 14.6993 11.8015 15.0381 11.6611C15.3769 11.5208 15.6664 11.2832 15.8701 10.9783C16.0738 10.6734 16.1826 10.3149 16.1826 9.94827C16.1826 9.45656 15.9872 8.98503 15.6395 8.63734C15.2919 8.28965 14.8203 8.0943 14.3286 8.0943Z" fill="#121214"/>
</svg>
