<svg width="25" height="12" viewBox="0 0 25 12" fill="none" xmlns="http://www.w3.org/2000/svg">
<g id="Battery">
<g id="Border" opacity="0.35">
<path id="Vector" opacity="0.35" d="M19.4021 0.833008H2.73609C1.53929 0.833008 0.569092 1.80321 0.569092 3.00001V8.99901C0.569092 10.1958 1.53929 11.166 2.73609 11.166H19.4021C20.5989 11.166 21.5691 10.1958 21.5691 8.99901V3.00001C21.5691 1.80321 20.5989 0.833008 19.4021 0.833008Z" stroke="black" stroke-miterlimit="10"/>
</g>
<path id="Cap" opacity="0.4" d="M23.0691 4V8C23.4627 7.8343 23.7986 7.55614 24.0349 7.20038C24.2711 6.84461 24.3971 6.42705 24.3971 6C24.3971 5.57295 24.2711 5.15539 24.0349 4.79962C23.7986 4.44386 23.4627 4.1657 23.0691 4" fill="black"/>
<path id="Capacity" d="M18.7361 2.33301H3.40209C2.6659 2.33301 2.06909 2.92981 2.06909 3.66601V8.33301C2.06909 9.0692 2.6659 9.66601 3.40209 9.66601H18.7361C19.4723 9.66601 20.0691 9.0692 20.0691 8.33301V3.66601C20.0691 2.92981 19.4723 2.33301 18.7361 2.33301Z" fill="black"/>
</g>
</svg>
