<svg width="53" height="21" viewBox="0 0 53 21" fill="none" xmlns="http://www.w3.org/2000/svg">
<rect width="53" height="21" rx="10.5" fill="#2CB64F"/>
<path d="M23.5364 13.4134C21.482 11.359 19.9358 8.92519 19.9358 6.92087C19.9358 6.03325 20.2436 5.24584 20.8306 4.68033C21.2386 4.29378 21.8041 3.92871 22.2765 3.92871C22.6631 3.92871 22.9208 4.21504 23.2501 4.68749L24.4312 6.34105C24.696 6.71328 24.7891 7.00677 24.7891 7.27879C24.7891 7.52217 24.739 7.69397 24.56 7.99462L23.8943 9.12562C23.8442 9.22584 23.7941 9.30458 23.7941 9.39048C23.7941 9.50501 23.8299 9.61955 23.8657 9.68397C24.1449 10.2352 24.6603 10.908 25.326 11.5738C25.9917 12.2466 26.7433 12.8336 27.2873 13.0842C27.4162 13.1414 27.5093 13.1701 27.6381 13.1701C27.7383 13.1701 27.8027 13.1557 27.9316 13.0842L29.0554 12.4685C29.4134 12.261 29.6066 12.2252 29.8214 12.2252C30.0719 12.2252 30.2652 12.2824 30.6947 12.5831L32.4198 13.8143C32.8708 14.1364 33.0641 14.4156 33.0641 14.7091C33.0641 15.0956 32.8851 15.518 32.3697 16.0978C31.8329 16.6991 31.024 17.0713 30.0862 17.0713C28.0891 17.0713 25.6123 15.4965 23.5364 13.4134Z" fill="white"/>
</svg>
