<svg width="18" height="12" viewBox="0 0 18 12" fill="none" xmlns="http://www.w3.org/2000/svg">
<path id="Cellular Connection" d="M16.7361 11.334H15.7361C15.4709 11.334 15.2165 11.2286 15.029 11.0411C14.8414 10.8536 14.7361 10.5992 14.7361 10.334V1.66699C14.7361 1.40178 14.8414 1.14742 15.029 0.959885C15.2165 0.772349 15.4709 0.666992 15.7361 0.666992H16.7361C17.0013 0.666992 17.2557 0.772349 17.4432 0.959885C17.6307 1.14742 17.7361 1.40178 17.7361 1.66699V10.334C17.7361 10.5992 17.6307 10.8536 17.4432 11.0411C17.2557 11.2286 17.0013 11.334 16.7361 11.334ZM12.0691 11.334H11.0691C10.8039 11.334 10.5495 11.2286 10.362 11.0411C10.1744 10.8536 10.0691 10.5992 10.0691 10.334V4.00099C10.0691 3.73578 10.1744 3.48142 10.362 3.29389C10.5495 3.10635 10.8039 3.00099 11.0691 3.00099H12.0691C12.3343 3.00099 12.5887 3.10635 12.7762 3.29389C12.9637 3.48142 13.0691 3.73578 13.0691 4.00099V10.334C13.0691 10.599 12.9639 10.8532 12.7765 11.0407C12.5892 11.2283 12.3351 11.3337 12.0701 11.334H12.0691ZM7.40208 11.334H6.40208C6.13687 11.334 5.88251 11.2286 5.69498 11.0411C5.50744 10.8536 5.40208 10.5992 5.40208 10.334V6.33399C5.40208 6.06878 5.50744 5.81442 5.69498 5.62689C5.88251 5.43935 6.13687 5.33399 6.40208 5.33399H7.40208C7.6673 5.33399 7.92165 5.43935 8.10919 5.62689C8.29673 5.81442 8.40208 6.06878 8.40208 6.33399V10.334C8.40208 10.5992 8.29673 10.8536 8.10919 11.0411C7.92165 11.2286 7.6673 11.334 7.40208 11.334ZM2.73608 11.334H1.73608C1.47087 11.334 1.21651 11.2286 1.02898 11.0411C0.841441 10.8536 0.736084 10.5992 0.736084 10.334V8.33399C0.736084 8.06878 0.841441 7.81442 1.02898 7.62689C1.21651 7.43935 1.47087 7.33399 1.73608 7.33399H2.73608C3.0013 7.33399 3.25565 7.43935 3.44319 7.62689C3.63073 7.81442 3.73608 8.06878 3.73608 8.33399V10.334C3.73608 10.5992 3.63073 10.8536 3.44319 11.0411C3.25565 11.2286 3.0013 11.334 2.73608 11.334Z" fill="black"/>
</svg>
