<svg width="17" height="12" viewBox="0 0 17 12" fill="none" xmlns="http://www.w3.org/2000/svg">
<path id="Wifi" d="M8.40306 11.3311C8.36176 11.331 8.32089 11.3227 8.2828 11.3067C8.2447 11.2908 8.21013 11.2674 8.18106 11.2381L6.17506 9.2161C6.14425 9.1862 6.11999 9.15023 6.10381 9.11047C6.08763 9.0707 6.07988 9.02801 6.08106 8.9851C6.08156 8.94247 6.09067 8.90039 6.10786 8.86138C6.12504 8.82237 6.14994 8.78724 6.18106 8.7581C6.8014 8.23384 7.58736 7.94621 8.39956 7.94621C9.21176 7.94621 9.99772 8.23384 10.6181 8.7581C10.6498 8.78693 10.6754 8.82193 10.6931 8.86098C10.7109 8.90002 10.7204 8.94228 10.7213 8.98516C10.7221 9.02804 10.7142 9.07064 10.698 9.11035C10.6818 9.15006 10.6577 9.18605 10.6271 9.2161L8.62506 11.2381C8.59599 11.2674 8.56142 11.2908 8.52333 11.3067C8.48523 11.3227 8.44436 11.331 8.40306 11.3311ZM11.9261 7.7821C11.846 7.78197 11.7691 7.7512 11.7111 7.6961C10.805 6.87647 9.62682 6.42262 8.40506 6.42262C7.1833 6.42262 6.0051 6.87647 5.09906 7.6961C5.04102 7.7512 4.96409 7.78197 4.88406 7.7821C4.84319 7.78229 4.80268 7.77434 4.76491 7.75872C4.72714 7.74309 4.69286 7.72011 4.66406 7.6911L3.50406 6.5201C3.47346 6.49012 3.44915 6.45433 3.43256 6.41484C3.41596 6.37535 3.40741 6.33294 3.40741 6.2901C3.40741 6.24726 3.41596 6.20485 3.43256 6.16536C3.44915 6.12586 3.47346 6.09008 3.50406 6.0601C4.83452 4.82387 6.58342 4.13677 8.39956 4.13677C10.2157 4.13677 11.9646 4.82387 13.2951 6.0601C13.3262 6.08983 13.3511 6.1255 13.3683 6.165C13.3855 6.2045 13.3946 6.24703 13.3951 6.2901C13.3954 6.33285 13.3872 6.37523 13.3709 6.41474C13.3546 6.45426 13.3305 6.49008 13.3001 6.5201L12.1451 7.6911C12.1163 7.71994 12.0822 7.74283 12.0446 7.75845C12.0071 7.77406 11.9668 7.7821 11.9261 7.7821ZM14.5951 5.0891C14.5552 5.08946 14.5156 5.08186 14.4787 5.06675C14.4418 5.05164 14.4082 5.02932 14.3801 5.0011C12.767 3.46908 10.6272 2.6149 8.40256 2.6149C6.17789 2.6149 4.03815 3.46908 2.42506 5.0011C2.39654 5.02973 2.36264 5.05245 2.32532 5.06795C2.28799 5.08346 2.24798 5.09144 2.20756 5.09144C2.16715 5.09144 2.12713 5.08346 2.0898 5.06795C2.05248 5.05245 2.01858 5.02973 1.99006 5.0011L0.830061 3.8311C0.800036 3.8011 0.776218 3.76548 0.759967 3.72627C0.743716 3.68707 0.735352 3.64504 0.735352 3.6026C0.735352 3.56016 0.743716 3.51813 0.759967 3.47892C0.776218 3.43972 0.800036 3.4041 0.830061 3.3741C2.86777 1.42351 5.57974 0.334717 8.40056 0.334717C11.2214 0.334717 13.9334 1.42351 15.9711 3.3741C16.0011 3.4041 16.0249 3.43972 16.0412 3.47892C16.0574 3.51813 16.0658 3.56016 16.0658 3.6026C16.0658 3.64504 16.0574 3.68707 16.0412 3.72627C16.0249 3.76548 16.0011 3.8011 15.9711 3.8311L14.8101 5.0011C14.7527 5.05755 14.6755 5.08917 14.5951 5.0891Z" fill="black"/>
</svg>
