<svg width="22" height="23" viewBox="0 0 22 23" fill="none" xmlns="http://www.w3.org/2000/svg">
<path d="M8.25 17.4583V6.91667L18.3333 4.16667V16.5417" stroke="#222222" stroke-width="1.5" stroke-linecap="round" stroke-linejoin="round"/>
<path d="M5.95841 19.75C7.22407 19.75 8.25008 18.724 8.25008 17.4583C8.25008 16.1927 7.22407 15.1667 5.95841 15.1667C4.69276 15.1667 3.66675 16.1927 3.66675 17.4583C3.66675 18.724 4.69276 19.75 5.95841 19.75Z" stroke="#222222" stroke-width="1.5" stroke-linecap="round" stroke-linejoin="round"/>
<path d="M16.0417 18.8333C17.3073 18.8333 18.3333 17.8073 18.3333 16.5417C18.3333 15.276 17.3073 14.25 16.0417 14.25C14.776 14.25 13.75 15.276 13.75 16.5417C13.75 17.8073 14.776 18.8333 16.0417 18.8333Z" stroke="#222222" stroke-width="1.5" stroke-linecap="round" stroke-linejoin="round"/>
</svg>
