<svg width="22" height="23" viewBox="0 0 22 23" fill="none" xmlns="http://www.w3.org/2000/svg">
<path d="M10.0833 3.25H11.9167C12.4229 3.25 12.8333 3.66041 12.8333 4.16667V4.68806C12.8333 5.08021 13.0965 5.4209 13.4587 5.57126C13.821 5.72168 14.2429 5.66435 14.5203 5.38696L14.889 5.01817C15.247 4.66018 15.8274 4.66018 16.1854 5.01817L17.4817 6.31453C17.8398 6.67251 17.8397 7.25291 17.4817 7.6109L17.1131 7.97963C16.8356 8.25704 16.7783 8.67893 16.9287 9.04126C17.0791 9.40346 17.4198 9.66667 17.812 9.66667H18.3333C18.8396 9.66667 19.25 10.0771 19.25 10.5833V12.4167C19.25 12.9229 18.8396 13.3333 18.3333 13.3333H17.8119C17.4198 13.3333 17.0791 13.5965 16.9287 13.9587C16.7783 14.321 16.8356 14.7429 17.1131 15.0203L17.4817 15.389C17.8398 15.747 17.8398 16.3274 17.4817 16.6854L16.1854 17.9817C15.8274 18.3398 15.247 18.3398 14.889 17.9817L14.5203 17.6131C14.2429 17.3356 13.821 17.2783 13.4587 17.4287C13.0965 17.5791 12.8333 17.9198 12.8333 18.3119V18.8333C12.8333 19.3396 12.4229 19.75 11.9167 19.75H10.0833C9.57706 19.75 9.16667 19.3396 9.16667 18.8333V18.312C9.16667 17.9198 8.90346 17.5791 8.54126 17.4287C8.17893 17.2783 7.75704 17.3356 7.47963 17.6131L7.11088 17.9817C6.75289 18.3398 6.17249 18.3398 5.81452 17.9817L4.51815 16.6854C4.16017 16.3274 4.16017 15.747 4.51815 15.389L4.88696 15.0203C5.16435 14.7429 5.22168 14.321 5.07126 13.9587C4.9209 13.5965 4.58021 13.3333 4.18806 13.3333H3.66667C3.16041 13.3333 2.75 12.9229 2.75 12.4167V10.5833C2.75 10.0771 3.16041 9.66667 3.66667 9.66667H4.18804C4.5802 9.66667 4.9209 9.40347 5.07127 9.04128C5.2217 8.67896 5.16437 8.2571 4.88696 7.97969L4.51817 7.6109C4.16018 7.25291 4.16018 6.67251 4.51817 6.31454L5.81453 5.01817C6.17251 4.66019 6.75291 4.66019 7.1109 5.01817L7.47969 5.38696C7.75709 5.66437 8.17896 5.7217 8.54128 5.57127C8.90347 5.4209 9.16667 5.0802 9.16667 4.68803V4.16667C9.16667 3.66041 9.57706 3.25 10.0833 3.25Z" stroke="#222222" stroke-width="1.5"/>
<path d="M12.8334 11.5C12.8334 12.5126 12.0126 13.3333 11.0001 13.3333C9.98753 13.3333 9.16675 12.5126 9.16675 11.5C9.16675 10.4875 9.98753 9.66667 11.0001 9.66667C12.0126 9.66667 12.8334 10.4875 12.8334 11.5Z" stroke="#222222" stroke-width="1.5"/>
</svg>
