<svg width="51" height="47" viewBox="0 0 51 47" fill="none" xmlns="http://www.w3.org/2000/svg">
<path d="M16.7498 13.75C16.7498 8.22715 21.2266 3.75 26.7489 3.75C32.2713 3.75 36.7481 8.22715 36.7481 13.75C36.7481 15.1875 36.4448 16.5542 35.8987 17.7895L36.75 23.7491L31.6432 22.4723C30.1965 23.2859 28.5269 23.75 26.7489 23.75M14.2512 20C14.2512 20.8985 14.4407 21.7526 14.782 22.5247L14.25 26.2494L17.4414 25.4514C18.3455 25.9599 19.3889 26.25 20.5001 26.25C23.9512 26.25 26.7489 23.4518 26.7489 20C26.7489 16.5482 23.9512 13.75 20.5001 13.75C17.0489 13.75 14.2512 16.5482 14.2512 20Z" stroke="#F3F5FA" stroke-width="1.6" stroke-linecap="round" stroke-linejoin="round"/>
<path d="M24.5333 33.4961V43.9961H23.4669V38.5703H22.1076V43.457H21.088V33.707H22.1076V37.6562H23.4669V33.4961H24.5333ZM15.8732 41.4766V34.7617H19.8107V35.6641H16.9865V40.5273C18.2755 40.5215 19.2482 40.4629 20.3732 40.2461L20.4552 41.1602C19.1955 41.4238 18.1056 41.4648 16.5763 41.4766H15.8732ZM34.1073 33.4961V37.8906H35.6893V38.8281H34.1073V43.9961H32.994V33.4961H34.1073ZM25.7518 41.1367C26.578 41.1367 27.5389 41.1367 28.5409 41.1074V40.041C27.3573 39.8652 26.5838 39.1504 26.5956 38.1367C26.5838 36.9531 27.6092 36.1738 29.1034 36.168C30.5917 36.1738 31.6288 36.9531 31.6346 38.1367C31.6288 39.1504 30.8436 39.8711 29.6542 40.041V41.0664C30.5858 41.0195 31.5233 40.9434 32.3963 40.8203L32.4667 41.6406C30.1932 42.0449 27.7381 42.0684 25.9276 42.0625L25.7518 41.1367ZM25.951 35.6289V34.7383H28.5409V33.5195H29.6542V34.7383H32.244V35.6289H25.951ZM27.6385 38.1367C27.6385 38.8047 28.2245 39.2207 29.1034 39.2148C29.9823 39.2207 30.5624 38.8047 30.5682 38.1367C30.5624 37.4629 29.9823 37.0352 29.1034 37.0352C28.2245 37.0352 27.6385 37.4629 27.6385 38.1367Z" fill="white"/>
</svg>
