<svg width="51" height="48" viewBox="0 0 51 48" fill="none" xmlns="http://www.w3.org/2000/svg">
<path d="M27.7499 24.9395H35.2499M15.75 24.9395L21.2075 23.8399C21.4972 23.7815 21.7632 23.6388 21.9721 23.4298L34.1892 11.206C34.775 10.6199 34.7746 9.66996 34.1884 9.08438L31.6003 6.49929C31.0143 5.91395 30.0648 5.91435 29.4793 6.50018L17.261 18.7252C17.0524 18.9339 16.9101 19.1994 16.8516 19.4885L15.75 24.9395Z" stroke="#F3F5FA" stroke-width="1.6" stroke-linecap="round" stroke-linejoin="round"/>
<path d="M10.5414 34.9219C10.5356 36.3164 12.2407 37.623 14.3032 37.8984L13.8696 38.8125C12.1528 38.5371 10.6469 37.6465 9.96136 36.4102C9.27581 37.6465 7.76995 38.5371 6.06487 38.8125L5.61956 37.8984C7.6762 37.623 9.37542 36.334 9.38128 34.9219V34.3477H10.5414V34.9219ZM5.16253 40.7578V39.8438H14.7367V40.7578H10.4711V44.4961H9.38128V40.7578H5.16253ZM24.2755 33.9961V40.2422H23.1622V37.582H21.2052V36.668H23.1622V33.9961H24.2755ZM15.5216 39.293C17.1505 38.7246 18.1525 37.3066 18.1466 35.8594V35.625H15.8732V34.7227H21.5333V35.625H19.2833V35.8477C19.2775 37.1777 20.2267 38.4727 21.8146 39.0117L21.2404 39.8906C20.0626 39.4863 19.1955 38.6426 18.7384 37.6055C18.2814 38.7773 17.3615 39.7207 16.1076 40.1836L15.5216 39.293ZM17.2091 42.5156C17.2033 41.2676 18.5509 40.541 20.7599 40.5352C22.9572 40.541 24.3048 41.2676 24.3107 42.5156C24.3048 43.7637 22.9572 44.4902 20.7599 44.4961C18.5509 44.4902 17.2033 43.7637 17.2091 42.5156ZM18.3107 42.5156C18.3048 43.2246 19.2189 43.6289 20.7599 43.6172C22.2892 43.6289 23.2033 43.2246 23.2091 42.5156C23.2033 41.8008 22.2892 41.3965 20.7599 41.4023C19.2189 41.3965 18.3048 41.8008 18.3107 42.5156ZM34.0604 33.9961V38.25H35.7479V39.1758H34.0604V44.4961H32.9588V33.9961H34.0604ZM25.8221 36.5508V35.6367H28.412V34.1367H29.5252V35.6367H32.0448V36.5508H25.8221ZM26.3612 39.7617C26.3612 38.332 27.4627 37.3242 28.9745 37.3242C30.4803 37.3242 31.5819 38.332 31.5877 39.7617C31.5819 41.2031 30.4803 42.2051 28.9745 42.2109C27.4627 42.2051 26.3612 41.2031 26.3612 39.7617ZM27.4276 39.7617C27.4217 40.6758 28.078 41.2852 28.9745 41.2734C29.8651 41.2852 30.5155 40.6758 30.5213 39.7617C30.5155 38.8652 29.8651 38.2441 28.9745 38.2383C28.078 38.2441 27.4217 38.8652 27.4276 39.7617ZM44.9703 33.9961V44.4961H43.8453V33.9961H44.9703ZM36.3453 41.6836C39.1343 40.3535 40.4996 38.4609 40.7164 36.0117H36.8492V35.1211H41.8414C41.8414 38.1973 40.5347 40.8574 36.9312 42.5859L36.3453 41.6836Z" fill="white"/>
</svg>
