<svg width="51" height="47" viewBox="0 0 51 47" fill="none" xmlns="http://www.w3.org/2000/svg">
<path d="M31.75 3.75H19.25C16.4886 3.75 14.25 5.98858 14.25 8.75V21.25C14.25 24.0114 16.4886 26.25 19.25 26.25H31.75C34.5114 26.25 36.75 24.0114 36.75 21.25V8.75C36.75 5.98858 34.5114 3.75 31.75 3.75Z" stroke="#F3F5FA" stroke-width="1.6" stroke-linejoin="round"/>
<path d="M25.5 20C28.2614 20 30.5 17.7614 30.5 15C30.5 12.2386 28.2614 10 25.5 10C22.7386 10 20.5 12.2386 20.5 15C20.5 17.7614 22.7386 20 25.5 20Z" stroke="#F3F5FA" stroke-width="1.6" stroke-linejoin="round"/>
<path d="M32.375 9.375C33.0654 9.375 33.625 8.81536 33.625 8.125C33.625 7.43464 33.0654 6.875 32.375 6.875C31.6846 6.875 31.125 7.43464 31.125 8.125C31.125 8.81536 31.6846 9.375 32.375 9.375Z" fill="#F3F5FA"/>
<path d="M19.3362 36.7539C19.2542 35.9629 18.5628 35.5117 17.5901 35.5117C16.553 35.5117 15.8968 36.0449 15.8909 36.7656C15.8909 37.5684 16.764 37.8848 17.4378 38.043L18.2581 38.2656C19.3421 38.5293 20.7015 39.1211 20.7073 40.6562C20.7015 42.0918 19.5589 43.1406 17.555 43.1406C15.6565 43.1406 14.4612 42.1914 14.3792 40.6445H15.6683C15.7444 41.5703 16.5647 42.0098 17.555 42.0156C18.639 42.0098 19.4241 41.4648 19.43 40.6328C19.4241 39.8945 18.721 39.5957 17.8245 39.3555L16.8167 39.0859C15.4515 38.7109 14.6077 38.0195 14.6018 36.8359C14.6077 35.3711 15.9085 34.3984 17.6253 34.3984C19.3479 34.3984 20.5491 35.3828 20.5901 36.7539H19.3362ZM28.9219 34.5156V43H27.7383L23.4375 36.8008H23.3672V43H22.0781V34.5156H23.2734L27.5742 40.7266H27.6562V34.5156H28.9219ZM35.2614 36.7539C35.1794 35.9629 34.488 35.5117 33.5153 35.5117C32.4782 35.5117 31.822 36.0449 31.8161 36.7656C31.8161 37.5684 32.6892 37.8848 33.363 38.043L34.1833 38.2656C35.2673 38.5293 36.6267 39.1211 36.6325 40.6562C36.6267 42.0918 35.4841 43.1406 33.4802 43.1406C31.5817 43.1406 30.3864 42.1914 30.3044 40.6445H31.5935C31.6696 41.5703 32.49 42.0098 33.4802 42.0156C34.5642 42.0098 35.3493 41.4648 35.3552 40.6328C35.3493 39.8945 34.6462 39.5957 33.7497 39.3555L32.7419 39.0859C31.3767 38.7109 30.5329 38.0195 30.5271 36.8359C30.5329 35.3711 31.8337 34.3984 33.5505 34.3984C35.2732 34.3984 36.4743 35.3828 36.5153 36.7539H35.2614Z" fill="white"/>
</svg>
