<svg width="51" height="48" viewBox="0 0 51 48" fill="none" xmlns="http://www.w3.org/2000/svg">
<path d="M16.75 5.5C16.75 4.80964 17.3096 4.25 18 4.25H31.75C32.4404 4.25 33 4.80964 33 5.5V23.9573C33 25.0373 31.7227 25.609 30.9173 24.8895L25.7077 20.2359C25.2334 19.8122 24.5166 19.8122 24.0423 20.2359L18.8327 24.8895C18.0273 25.609 16.75 25.0373 16.75 23.9573V5.5Z" stroke="#F3F5FA" stroke-width="2" stroke-linecap="round"/>
<path d="M1.15514 43.5V35.0156H2.40905V39.8203H2.51451L5.03405 37.1367H6.53405L3.96178 39.8672L6.70983 43.5H5.17467L3.01256 40.6406L2.40905 41.2383V43.5H1.15514ZM9.97908 43.6289C8.10408 43.6289 6.94978 42.334 6.95564 40.3594C6.94978 38.4023 8.12166 37.0547 9.89705 37.0547C11.3443 37.0547 12.7213 37.9512 12.7213 40.2539V40.6992H8.19783C8.23298 41.9121 8.94783 42.5977 9.9908 42.5977C10.6998 42.5977 11.1627 42.293 11.3736 41.9062H12.6392C12.358 42.9375 11.3795 43.6289 9.97908 43.6289ZM8.20369 39.7617H11.4908C11.4908 38.7949 10.8638 38.0801 9.90876 38.0859C8.90681 38.0801 8.25642 38.8652 8.20369 39.7617ZM16.6936 43.6289C14.8186 43.6289 13.6643 42.334 13.6702 40.3594C13.6643 38.4023 14.8362 37.0547 16.6116 37.0547C18.0589 37.0547 19.4358 37.9512 19.4358 40.2539V40.6992H14.9124C14.9475 41.9121 15.6624 42.5977 16.7054 42.5977C17.4143 42.5977 17.8772 42.293 18.0882 41.9062H19.3538C19.0725 42.9375 18.094 43.6289 16.6936 43.6289ZM14.9182 39.7617H18.2054C18.2054 38.7949 17.5784 38.0801 16.6233 38.0859C15.6214 38.0801 14.971 38.8652 14.9182 39.7617ZM20.666 45.8906V37.1367H21.8848V38.168H21.9902C22.2129 37.7695 22.6406 37.0547 23.8184 37.0547C25.3594 37.0547 26.4902 38.2617 26.4902 40.3359C26.4902 42.3867 25.3711 43.623 23.8301 43.6289C22.6758 43.623 22.2188 42.9199 21.9902 42.5039H21.9199V45.8906H20.666ZM21.8965 40.3125C21.8965 41.6484 22.4824 42.5566 23.5488 42.5625C24.6504 42.5566 25.2246 41.5898 25.2246 40.3125C25.2246 39.0586 24.668 38.1152 23.5488 38.1211C22.4707 38.1152 21.8965 38.9883 21.8965 40.3125ZM34.6928 35.1797V37.9102H36.099V34.1953H37.1655V43.9805H36.099V38.8242H34.6928V41.7305H30.6147V35.1797H34.6928ZM31.6694 40.8398H33.6498V36.0586H31.6694V40.8398ZM38.2319 44.4961V33.9961H39.2983V44.4961H38.2319ZM50.2316 42.2578V43.1836H40.6222V42.2578H44.8527V39.832H41.7238V34.8398H49.0831V39.832H45.9542V42.2578H50.2316ZM42.8019 38.9531H47.9933V35.7305H42.8019V38.9531Z" fill="white"/>
</svg>
