<svg width="51" height="47" viewBox="0 0 51 47" fill="none" xmlns="http://www.w3.org/2000/svg">
<path d="M26.5887 7.90741C28.0886 8.15878 29.451 8.86719 30.5387 9.95264C31.6264 11.0381 32.3305 12.3978 32.5881 13.8946M26.8177 3C29.4854 3.45132 31.9184 4.71388 33.8533 6.63913C35.7882 8.5701 37.0476 10.9981 37.4999 13.6603M35.4161 24.2521C35.4161 24.2521 33.9677 25.6746 33.6128 26.0916C33.0346 26.7086 32.3534 27 31.4604 27C31.3745 27 31.2829 27 31.197 26.9943C29.4968 26.8857 27.9168 26.223 26.7318 25.6575C23.4917 24.0921 20.6465 21.8698 18.2823 19.0533C16.3302 16.7053 15.025 14.5344 14.1605 12.2035C13.6282 10.781 13.4335 9.67269 13.5194 8.62723C13.5766 7.95881 13.8342 7.40466 14.3094 6.93049L16.2615 4.98238C16.542 4.71959 16.8397 4.57676 17.1316 4.57676C17.4923 4.57676 17.7842 4.79386 17.9674 4.97667C17.9731 4.98238 17.9789 4.98809 17.9846 4.99381C18.3338 5.31944 18.6658 5.65651 19.015 6.01642C19.1925 6.19924 19.3757 6.38205 19.5589 6.57057L21.1217 8.1302C21.7285 8.73577 21.7285 9.29564 21.1217 9.90121C20.9557 10.0669 20.7954 10.2326 20.6294 10.3925C20.1485 10.8838 20.5263 10.5069 20.0282 10.9525C20.0168 10.9639 20.0053 10.9696 19.9996 10.981C19.5073 11.4723 19.5989 11.9522 19.7019 12.2779C19.7076 12.295 19.7134 12.3121 19.7191 12.3293C20.1255 13.3119 20.698 14.2374 21.5681 15.34L21.5739 15.3457C23.1539 17.2881 24.8197 18.802 26.6573 19.9617C26.892 20.1103 27.1325 20.2302 27.3614 20.3445C27.5675 20.4473 27.7622 20.5445 27.9282 20.6473C27.9511 20.6587 27.974 20.6759 27.9969 20.6873C28.1915 20.7844 28.3747 20.8301 28.5636 20.8301C29.0388 20.8301 29.3364 20.533 29.4338 20.4359L30.5559 19.3161C30.7505 19.1219 31.0596 18.8876 31.4203 18.8876C31.7752 18.8876 32.0672 19.1104 32.2446 19.3047C32.2504 19.3104 32.2504 19.3104 32.2561 19.3161L35.4103 22.4639C36 23.0466 35.4161 24.2521 35.4161 24.2521Z" stroke="#F3F5FA" stroke-width="1.6" stroke-linecap="round" stroke-linejoin="round"/>
<path d="M9.94378 33.7188C12.2465 33.7129 13.6879 34.4629 13.6938 35.7344C13.6879 36.9824 12.2465 37.7207 9.94378 37.7148C7.64691 37.7207 6.18792 36.9824 6.19378 35.7344C6.18792 34.4629 7.64691 33.7129 9.94378 33.7188ZM5.16253 39.4258V38.5234H14.7367V39.4258H5.16253ZM6.31097 43.8672V40.3633H13.5649V43.8672H6.31097ZM7.34222 35.7344C7.33636 36.4316 8.32659 36.8418 9.94378 36.8477C11.5492 36.8418 12.5512 36.4316 12.5453 35.7344C12.5512 35.0078 11.5492 34.5918 9.94378 34.5977C8.32659 34.5918 7.33636 35.0078 7.34222 35.7344ZM7.41253 42.9648H12.4867V41.2539H7.41253V42.9648ZM19.2482 35.0664C19.2423 36.5371 20.1974 37.8496 21.7912 38.3711L21.1818 39.2383C20.0275 38.8164 19.1779 38.0078 18.7208 36.9531C18.2697 38.1543 17.3556 39.0977 16.0841 39.5547L15.4865 38.6641C17.1622 38.0898 18.1349 36.6895 18.1466 35.1133V34.082H19.2482V35.0664ZM17.2091 41.9922C17.2033 40.7207 18.5509 39.9824 20.7599 39.9883C22.9572 39.9824 24.3048 40.7207 24.3107 41.9922C24.3048 43.2578 22.9572 43.9785 20.7599 43.9727C18.5509 43.9785 17.2033 43.2578 17.2091 41.9922ZM18.3107 41.9922C18.3048 42.6895 19.2189 43.0996 20.7599 43.0938C22.2892 43.0996 23.2033 42.6895 23.2091 41.9922C23.2033 41.2715 22.2892 40.8555 20.7599 40.8555C19.2189 40.8555 18.3048 41.2715 18.3107 41.9922ZM20.9474 36.543V35.6289H23.1622V33.4961H24.2755V39.6953H23.1622V36.543H20.9474ZM35.4549 39.0156V39.8945H25.8573V39.0156H30.0995V38.1016H27.1112V33.7773H34.2831V34.6562H28.2362V35.5117H34.0135V36.3438H28.2362V37.2344H34.3534V38.1016H31.2127V39.0156H35.4549ZM27.0174 42.2852C27.0174 41.1836 28.3241 40.5801 30.662 40.5859C32.9647 40.5801 34.2772 41.1836 34.2831 42.2852C34.2772 43.3926 32.9647 43.9785 30.662 43.9727C28.3241 43.9785 27.0174 43.3926 27.0174 42.2852ZM28.1307 42.2852C28.1249 42.8535 29.0038 43.1406 30.662 43.1289C32.2967 43.1406 33.1698 42.8535 33.1698 42.2852C33.1698 41.7168 32.2967 41.418 30.662 41.418C29.0038 41.418 28.1249 41.7168 28.1307 42.2852ZM44.4664 33.4961V37.8906H46.0484V38.8281H44.4664V43.9961H43.3531V33.4961H44.4664ZM36.1109 41.1367C36.9371 41.1367 37.898 41.1367 38.9 41.1074V40.041C37.7164 39.8652 36.9429 39.1504 36.9547 38.1367C36.9429 36.9531 37.9683 36.1738 39.4625 36.168C40.9508 36.1738 41.9879 36.9531 41.9937 38.1367C41.9879 39.1504 41.2027 39.8711 40.0133 40.041V41.0664C40.9449 41.0195 41.8824 40.9434 42.7554 40.8203L42.8258 41.6406C40.5523 42.0449 38.0972 42.0684 36.2867 42.0625L36.1109 41.1367ZM36.3101 35.6289V34.7383H38.9V33.5195H40.0133V34.7383H42.6031V35.6289H36.3101ZM37.9976 38.1367C37.9976 38.8047 38.5836 39.2207 39.4625 39.2148C40.3414 39.2207 40.9215 38.8047 40.9273 38.1367C40.9215 37.4629 40.3414 37.0352 39.4625 37.0352C38.5836 37.0352 37.9976 37.4629 37.9976 38.1367Z" fill="white"/>
</svg>
