<svg width="51" height="48" viewBox="0 0 51 48" fill="none" xmlns="http://www.w3.org/2000/svg">
<path d="M24.1136 4.46515C24.5898 3.17828 26.4099 3.17828 26.8861 4.46515L29.2563 10.8703C29.406 11.2749 29.725 11.5939 30.1295 11.7436L36.5347 14.1137C37.8216 14.5899 37.8216 16.4101 36.5347 16.8863L30.1295 19.2564C29.725 19.4061 29.406 19.7251 29.2563 20.1297L26.8861 26.5348C26.4099 27.8217 24.5898 27.8217 24.1136 26.5348L21.7435 20.1297C21.5938 19.7251 21.2748 19.4061 20.8702 19.2564L14.465 16.8863C13.1782 16.4101 13.1782 14.5899 14.465 14.1137L20.8702 11.7436C21.2748 11.5939 21.5938 11.2749 21.7435 10.8703L24.1136 4.46515Z" stroke="#F3F5FA" stroke-width="1.8" stroke-linejoin="round"/>
<path d="M19.9163 39.0234V39.9492H15.6624V44.4961H14.5491V39.9492H10.3421V39.0234H12.9612C13.3655 37.5117 13.4358 36.3809 13.4534 35.6016H11.1038V34.6992H14.5491V35.1328C14.5491 35.8535 14.5491 37.1602 14.0921 39.0234H17.3558C17.6897 37.5117 17.7366 36.3926 17.7366 35.6016H15.3108V34.6992H18.8382V35.25C18.844 36.0176 18.844 37.2598 18.4808 39.0234H19.9163ZM26.209 35.0039V41.9062H21.2871V35.0039H26.209ZM22.3887 41.0039H25.1309V35.8828H22.3887V41.0039ZM28.2832 44.5195V33.9961H29.3965V44.5195H28.2832ZM39.7907 33.9961V44.4961H38.6657V33.9961H39.7907ZM31.1657 41.6836C33.9548 40.3535 35.32 38.4609 35.5368 36.0117H31.6696V35.1211H36.6618C36.6618 38.1973 35.3552 40.8574 31.7517 42.5859L31.1657 41.6836Z" fill="white"/>
</svg>
