<svg width="24" height="24" viewBox="0 0 24 24" fill="none" xmlns="http://www.w3.org/2000/svg">
<path d="M20.5732 12.3855C20.5732 9.36913 19.9343 7.67789 18.8024 6.14598C17.6704 4.61408 16.0838 3.47842 14.2687 2.90077C12.4536 2.32312 10.5025 2.33294 8.69328 2.92883C6.88407 3.52472 5.30904 4.67629 4.19252 6.21952C3.076 7.76274 2.47494 9.36913 2.47494 11.5237C2.47494 12.2412 2.66611 12.9587 2.92113 13.5967C3.50478 15.0567 3.73905 16.7329 3.02407 18.1334L2.60948 18.9454C2.30499 19.5418 2.66226 20.2537 3.32703 20.3343C4.29354 20.4515 5.69473 20.5779 7.21463 20.5727C10.0256 20.5633 11.9548 20.1418 11.9548 20.1418" stroke="#17171B" stroke-width="1.5"/>
<circle cx="7.71426" cy="11.0475" r="0.952542" fill="#17171B"/>
<circle cx="11.5229" cy="11.0475" r="0.952542" fill="#17171B"/>
<circle cx="15.3324" cy="11.0475" r="0.952542" fill="#17171B"/>
<path d="M17.9678 13.905V21.5254" stroke="#17171B" stroke-width="1.5" stroke-linecap="round"/>
<path d="M14.3809 17.491H22.0012" stroke="#17171B" stroke-width="1.5" stroke-linecap="round"/>
</svg>
