<svg width="22" height="22" viewBox="0 0 22 22" fill="none" xmlns="http://www.w3.org/2000/svg">
<circle cx="11" cy="11" r="11" fill="#EFF0F1"/>
<path fill-rule="evenodd" clip-rule="evenodd" d="M5.19266 9.57593C4.92823 9.57593 4.71387 9.79029 4.71387 10.0547V11.8103C4.71387 14.8072 7.14332 17.2366 10.1402 17.2366C11.8304 17.2366 13.3402 16.4639 14.3353 15.2523C14.5256 15.2976 14.7241 15.3215 14.9282 15.3215C16.3385 15.3215 17.4817 14.1782 17.4817 12.7679C17.4817 11.5781 16.6679 10.5783 15.5665 10.2948V10.0547C15.5665 9.79029 15.3522 9.57593 15.0877 9.57593H5.19266ZM15.0913 14.0343C15.3967 13.3556 15.5665 12.6028 15.5665 11.8103V11.6618C15.9483 11.8825 16.2051 12.2952 16.2051 12.7678C16.2051 13.4178 15.7195 13.9543 15.0913 14.0343Z" fill="#D4D9DF"/>
<path d="M8.24266 8.12916C9.00514 6.29919 10.7932 5.10718 12.7756 5.10718H14.2898L13.9529 5.91556C13.1904 7.74552 11.4024 8.93754 9.41997 8.93754H7.90583L8.24266 8.12916Z" fill="#D4D9DF"/>
<path fill-rule="evenodd" clip-rule="evenodd" d="M5.19266 9.57593C4.92823 9.57593 4.71387 9.79029 4.71387 10.0547V11.8103C4.71387 14.8072 7.14332 17.2366 10.1402 17.2366C11.8304 17.2366 13.3402 16.4639 14.3353 15.2523C14.5256 15.2976 14.7241 15.3215 14.9282 15.3215C16.3385 15.3215 17.4817 14.1782 17.4817 12.7679C17.4817 11.5781 16.6679 10.5783 15.5665 10.2948V10.0547C15.5665 9.79029 15.3522 9.57593 15.0877 9.57593H5.19266ZM14.2898 5.10718H12.7756C10.7932 5.10718 9.00514 6.29919 8.24266 8.12916L7.90583 8.93754H9.41997C11.4024 8.93754 13.1904 7.74552 13.9529 5.91556L14.2898 5.10718ZM15.0913 14.0343C15.3967 13.3556 15.5665 12.6028 15.5665 11.8103V11.6618C15.9483 11.8825 16.2051 12.2952 16.2051 12.7678C16.2051 13.4178 15.7195 13.9543 15.0913 14.0343Z" fill="#D4D9DF"/>
</svg>
