<svg width="24" height="24" viewBox="0 0 24 24" fill="currentColor" xmlns="http://www.w3.org/2000/svg">
<path fill-rule="evenodd" clip-rule="evenodd" d="M15.0976 2.23271C13.0416 1.57841 10.8316 1.58953 8.78229 2.2645C6.733 2.93946 4.94896 4.24384 3.68428 5.99186C2.4262 7.73075 1.73876 9.56924 1.73876 11.9999C1.73876 12.9323 2.00011 13.8329 2.31375 14.5843C2.87837 15.937 3.02838 17.3617 2.45579 18.4833L1.8992 19.5735C1.3885 20.5738 1.94704 21.8447 3.14667 21.9995C4.09808 22.1222 5.54844 22.2498 7.4646 22.2498C11.0858 22.2498 14.645 21.7481 17.3689 20.1465C20.0907 18.5463 21.9165 15.9967 22.2339 13.0812C22.5463 10.2117 21.5077 7.63384 20.2328 5.90857C18.9506 4.17337 17.1535 2.88701 15.0976 2.23271ZM9.25154 3.68921C11.0009 3.11301 12.8876 3.10352 14.6427 3.66207C16.3978 4.22063 17.9319 5.31875 19.0265 6.80001C20.1284 8.29121 21.0059 10.5013 20.7427 12.9188C20.4845 15.2903 18.9894 17.4537 16.6087 18.8535C14.2302 20.2519 10.9943 20.7498 7.4646 20.7498C5.61519 20.7498 4.22895 20.6266 3.33853 20.5118C3.30159 20.507 3.27932 20.4956 3.26518 20.4853C3.24986 20.4742 3.23592 20.4584 3.2254 20.4371C3.20494 20.3959 3.19642 20.3314 3.23516 20.2555L3.79175 19.1653C4.64912 17.486 4.34473 15.5559 3.698 14.0065C3.42823 13.3602 3.23876 12.6641 3.23876 11.9999C3.23876 9.90682 3.81334 8.37246 4.89956 6.87112C5.97917 5.37891 7.50214 4.2654 9.25154 3.68921Z" fill="currentColor"/>
<path d="M9.23954 11.6C9.23954 12.2075 8.74706 12.7 8.13954 12.7C7.53203 12.7 7.03954 12.2075 7.03954 11.6C7.03954 10.9925 7.53203 10.5 8.13954 10.5C8.74706 10.5 9.23954 10.9925 9.23954 11.6Z" fill="currentColor"/>
<path d="M13.2395 11.6C13.2395 12.2075 12.7471 12.7 12.1395 12.7C11.532 12.7 11.0395 12.2075 11.0395 11.6C11.0395 10.9925 11.532 10.5 12.1395 10.5C12.7471 10.5 13.2395 10.9925 13.2395 11.6Z" fill="currentColor"/>
<path d="M17.2395 11.6C17.2395 12.2075 16.7471 12.7 16.1395 12.7C15.532 12.7 15.0395 12.2075 15.0395 11.6C15.0395 10.9925 15.532 10.5 16.1395 10.5C16.7471 10.5 17.2395 10.9925 17.2395 11.6Z" fill="currentColor"/>
</svg>
