<svg width="24" height="24" viewBox="0 0 24 24" fill="none" xmlns="http://www.w3.org/2000/svg">
<path fill-rule="evenodd" clip-rule="evenodd" d="M16.5017 8.19253C16.8096 8.46962 16.8346 8.94384 16.5575 9.25172L12.1985 14.095C11.8344 14.4996 11.2055 14.5161 10.8206 14.1313L8.46967 11.7803C8.17678 11.4874 8.17678 11.0126 8.46967 10.7197C8.76256 10.4268 9.23744 10.4268 9.53033 10.7197L11.4714 12.6607L15.4425 8.24828C15.7196 7.94039 16.1938 7.91543 16.5017 8.19253Z" fill="currentColor"/>
<path fill-rule="evenodd" clip-rule="evenodd" d="M16.1341 17.5085C18.08 15.3895 19.5 12.9327 19.5 10.975C19.5 6.67347 16.1074 3.25 12 3.25C7.89256 3.25 4.5 6.67347 4.5 10.975C4.5 12.9327 5.91999 15.3895 7.86586 17.5085C8.80347 18.5295 9.78718 19.3878 10.6259 19.9782C11.0463 20.2741 11.4059 20.4855 11.6855 20.6169C11.8507 20.6945 11.9526 20.7274 12 20.741C12.0474 20.7274 12.1493 20.6945 12.3145 20.6169C12.5941 20.4855 12.9537 20.2741 13.3741 19.9782C14.2128 19.3878 15.1965 18.5295 16.1341 17.5085ZM12 22.25C13.9706 22.25 21 16.0698 21 10.975C21 5.88017 16.9706 1.75 12 1.75C7.02944 1.75 3 5.88017 3 10.975C3 16.0698 10.0294 22.25 12 22.25Z" fill="currentColor"/>
</svg>
