<svg width="24" height="24" viewBox="0 0 24 24" fill="none" xmlns="http://www.w3.org/2000/svg">
<path d="M15.0129 17.625C15.0129 19.489 13.664 21 12 21C10.336 21 8.98709 19.489 8.98709 17.625M18.0258 8.85C18.0258 7.29848 17.391 5.81051 16.2609 4.71343C15.1308 3.61634 13.5981 3 12 3C10.4019 3 8.86917 3.61634 7.73911 4.71343C6.60905 5.81051 5.97419 7.29848 5.97419 8.85C5.97419 11.417 5.40588 13.2944 4.69678 14.6378C3.88859 16.1688 3.4845 16.9344 3.50045 17.1172C3.51871 17.3264 3.55233 17.3924 3.7038 17.5165C3.8362 17.625 4.50139 17.625 5.83177 17.625H18.1682C19.4986 17.625 20.1638 17.625 20.2962 17.5165C20.4477 17.3924 20.4813 17.3264 20.4995 17.1172C20.5155 16.9344 20.1114 16.1688 19.3032 14.6378C18.5941 13.2944 18.0258 11.417 18.0258 8.85Z" stroke="currentColor" stroke-width="1.5" stroke-linecap="round" stroke-linejoin="round"/>
</svg>
