<svg width="24" height="24" viewBox="0 0 24 24" fill="currentColor" xmlns="http://www.w3.org/2000/svg">
<path fill-rule="evenodd" clip-rule="evenodd" d="M14.1021 6.33158C12.2646 5.18146 11.5398 3.89398 11.2924 2.87099C11.0428 3.10137 10.7836 3.3675 10.5494 3.65939C10.0602 4.26913 9.75 4.90377 9.75 5.50326C9.75 6.42387 10.0464 7.00299 10.3917 7.57371C10.4284 7.63434 10.4676 7.69729 10.5083 7.76265C10.8317 8.28185 11.25 8.95352 11.25 9.82455C11.25 11.7326 9.7437 12.982 8 12.982C6.84638 12.982 5.96883 12.3197 5.37799 11.6412C4.97722 12.6272 4.75 13.5498 4.75 14.3625C4.75 18.3666 7.99594 21.6125 12 21.6125C16.0041 21.6125 19.25 18.3666 19.25 14.3625C19.25 11.0257 17.194 8.26688 14.1021 6.33158ZM20.75 14.3625C20.75 19.195 16.8325 23.1125 12 23.1125C7.16751 23.1125 3.25 19.195 3.25 14.3625C3.25 12.9979 3.72758 11.5407 4.40363 10.1467C4.76085 9.41009 5.72322 9.48225 6.08454 10.0741C6.53792 10.8168 7.22378 11.482 8 11.482C9.01773 11.482 9.75 10.8053 9.75 9.82455C9.75 9.40392 9.56926 9.10724 9.22076 8.5352L9.22075 8.53519C9.18502 8.47654 9.14753 8.415 9.10829 8.35014C8.70356 7.68111 8.25 6.82181 8.25 5.50326C8.25 4.40724 8.79981 3.44315 9.37945 2.7207C9.96836 1.98669 10.6613 1.41102 11.104 1.07744L11.5516 1.67151L11.104 1.07744C11.4944 0.783278 11.9382 0.880163 12.1952 1.03945C12.4478 1.196 12.688 1.5053 12.6808 1.91441C12.6712 2.45925 12.8532 3.78029 14.8979 5.06011C18.2541 7.16082 20.75 10.3326 20.75 14.3625Z" fill="currentColor"/>
<path d="M17 15.3625C17 17.0194 15.6569 18.3625 14 18.3625" stroke="currentColor" stroke-width="1.5" stroke-linecap="round"/>
</svg>
