<svg width="24" height="24" viewBox="0 0 24 24" fill="none" xmlns="http://www.w3.org/2000/svg">
<rect x="1" y="1" width="22" height="22" rx="11" fill="#EFF0F1"/>
<path d="M15.5071 8.40593C15.5071 10.3429 13.9369 11.9132 11.9999 11.9132C10.0629 11.9132 8.49263 10.3429 8.49263 8.40593C8.49263 6.46893 10.0629 4.89868 11.9999 4.89868C13.9369 4.89868 15.5071 6.46893 15.5071 8.40593Z" fill="#D4D9DF"/>
<path d="M5.86747 15.0805C6.29186 13.7629 7.51802 12.8696 8.90236 12.8696H15.0973C16.4817 12.8696 17.7078 13.7629 18.1322 15.0805L19.0143 17.8194C19.0143 17.8194 16.7825 21 11.9998 21C7.21724 21 4.98535 17.8194 4.98535 17.8194L5.86747 15.0805Z" fill="#D4D9DF"/>
<path fill-rule="evenodd" clip-rule="evenodd" d="M15.5071 8.40593C15.5071 10.3429 13.9369 11.9132 11.9999 11.9132C10.0629 11.9132 8.49263 10.3429 8.49263 8.40593C8.49263 6.46893 10.0629 4.89868 11.9999 4.89868C13.9369 4.89868 15.5071 6.46893 15.5071 8.40593ZM8.90236 12.8696H15.0973C16.4817 12.8696 17.7078 13.7629 18.1322 15.0805L19.0143 17.8194C19.0143 17.8194 16.7825 21 11.9998 21C7.21724 21 4.98535 17.8194 4.98535 17.8194L5.86747 15.0805C6.29186 13.7629 7.51802 12.8696 8.90236 12.8696Z" fill="#D4D9DF"/>
</svg>
