<svg width="24" height="24" viewBox="0 0 24 24" fill="none" xmlns="http://www.w3.org/2000/svg">
<path fill-rule="evenodd" clip-rule="evenodd" d="M6.75 12.5C6.75 12.0858 7.08579 11.75 7.5 11.75H16.5C16.9142 11.75 17.25 12.0858 17.25 12.5C17.25 12.9142 16.9142 13.25 16.5 13.25H7.5C7.08579 13.25 6.75 12.9142 6.75 12.5Z" fill="currentColor"/>
<path fill-rule="evenodd" clip-rule="evenodd" d="M6.75 9C6.75 8.58579 7.08579 8.25 7.5 8.25H16.5C16.9142 8.25 17.25 8.58579 17.25 9C17.25 9.41421 16.9142 9.75 16.5 9.75H7.5C7.08579 9.75 6.75 9.41421 6.75 9Z" fill="currentColor"/>
<path fill-rule="evenodd" clip-rule="evenodd" d="M6.75 16C6.75 15.5858 7.08579 15.25 7.5 15.25H12.5C12.9142 15.25 13.25 15.5858 13.25 16C13.25 16.4142 12.9142 16.75 12.5 16.75H7.5C7.08579 16.75 6.75 16.4142 6.75 16Z" fill="currentColor"/>
<path fill-rule="evenodd" clip-rule="evenodd" d="M14.5 3.5H9.5C6.46243 3.5 4 5.96243 4 9V15C4 18.0376 6.46243 20.5 9.5 20.5H14.5C17.5376 20.5 20 18.0376 20 15V9C20 5.96243 17.5376 3.5 14.5 3.5ZM9.5 2C5.63401 2 2.5 5.13401 2.5 9V15C2.5 18.866 5.63401 22 9.5 22H14.5C18.366 22 21.5 18.866 21.5 15V9C21.5 5.13401 18.366 2 14.5 2H9.5Z" fill="currentColor"/>
</svg>
