<svg width="24" height="24" viewBox="0 0 24 24" fill="none" xmlns="http://www.w3.org/2000/svg">
<circle cx="12" cy="12" r="12" fill="#EFF0F1"/>
<path d="M7.69705 13.897C7.69705 13.8333 7.72234 13.7723 7.76735 13.7273L11.795 9.6996C11.8888 9.60588 12.0407 9.60588 12.1344 9.6996L15.1891 12.7543C15.2829 12.848 15.2829 13 15.1891 13.0937L11.1615 17.1214C11.1165 17.1664 11.0554 17.1917 10.9918 17.1917L7.9369 17.1919C7.80434 17.1919 7.69688 17.0844 7.69689 16.9518L7.69705 13.897Z" fill="#B8C1CA"/>
<path d="M12.5399 8.71518C12.5157 8.69099 12.5157 8.65178 12.5399 8.6276L13.4703 7.69715C14.4076 6.7599 15.9272 6.7599 16.8644 7.69715C17.8017 8.63441 17.8017 10.154 16.8644 11.0913L15.934 12.0217C15.9098 12.0459 15.8706 12.0459 15.8464 12.0217L12.5399 8.71518Z" fill="#B8C1CA"/>
</svg>
