<svg width="24" height="24" viewBox="0 0 24 24" fill="none" xmlns="http://www.w3.org/2000/svg">
<path d="M9.5 10C11.433 10 13 8.433 13 6.5C13 4.567 11.433 3 9.5 3C7.567 3 6 4.567 6 6.5C6 8.433 7.567 10 9.5 10Z" stroke="#2C2D30" stroke-width="1.6" stroke-linejoin="round"/>
<path d="M18 14.4999V20.4999M15 17.4999H21" stroke="#2C2D30" stroke-width="1.6" stroke-linecap="round" stroke-linejoin="round"/>
<path d="M13.5 14.0001H8.83333C8.0593 14.0001 7.67228 14.0001 7.34737 14.0428C5.1037 14.3382 3.33816 16.1038 3.04278 18.3474C3 18.6723 3 19.0594 3 19.8334V19.8334C3 19.9882 3 20.0656 3.00856 20.1306C3.06763 20.5793 3.42074 20.9324 3.86947 20.9915C3.93446 21.0001 4.01186 21.0001 4.16667 21.0001H13.5" stroke="#2C2D30" stroke-width="1.6" stroke-linecap="round" stroke-linejoin="round"/>
</svg>
