<svg width="25" height="25" viewBox="0 0 25 25" fill="none" xmlns="http://www.w3.org/2000/svg">
<path d="M6.92592 11.5353C7.08058 11.5353 7.23177 11.5811 7.36037 11.6671C7.48897 11.753 7.5892 11.8751 7.64839 12.018C7.70758 12.1609 7.72306 12.3181 7.69289 12.4698C7.66272 12.6215 7.58824 12.7608 7.47887 12.8702C7.36951 12.9795 7.23017 13.0541 7.07848 13.0842C6.92678 13.1144 6.76955 13.0989 6.62666 13.0397C6.48377 12.9805 6.36164 12.8803 6.27571 12.7517C6.18978 12.6231 6.14392 12.4719 6.14392 12.3173C6.14392 12.1099 6.22631 11.9109 6.37296 11.7643C6.51961 11.6176 6.71852 11.5353 6.92592 11.5353ZM6.92592 10.6553C6.5972 10.6553 6.27587 10.7527 6.00256 10.9354C5.72924 11.118 5.51622 11.3775 5.39043 11.6812C5.26464 11.9849 5.23172 12.3191 5.29585 12.6415C5.35998 12.9639 5.51827 13.26 5.75071 13.4924C5.98314 13.7249 6.27928 13.8832 6.60168 13.9473C6.92407 14.0115 7.25825 13.9785 7.56194 13.8527C7.86563 13.7269 8.1252 13.5139 8.30782 13.2406C8.49044 12.9673 8.58792 12.646 8.58792 12.3173C8.58792 11.8765 8.41281 11.4537 8.10113 11.142C7.78944 10.8303 7.36671 10.6553 6.92592 10.6553Z" fill="#121214"/>
<path d="M12.2499 11.5353C12.4046 11.5353 12.5557 11.5811 12.6843 11.6671C12.8129 11.753 12.9132 11.8751 12.9724 12.018C13.0316 12.1609 13.047 12.3182 13.0169 12.4698C12.9867 12.6215 12.9122 12.7609 12.8028 12.8702C12.6935 12.9796 12.5541 13.0541 12.4025 13.0843C12.2508 13.1145 12.0935 13.0989 11.9506 13.0397C11.8077 12.9805 11.6856 12.8804 11.5997 12.7518C11.5138 12.6232 11.4679 12.4719 11.4679 12.3173C11.4682 12.1099 11.5506 11.9112 11.6972 11.7646C11.8438 11.6181 12.0426 11.5355 12.2499 11.5353ZM12.2499 10.6553C11.9212 10.6553 11.5998 10.7527 11.3265 10.9354C11.0532 11.118 10.8402 11.3776 10.7144 11.6813C10.5886 11.985 10.5557 12.3191 10.6198 12.6415C10.684 12.9639 10.8422 13.2601 11.0747 13.4925C11.3071 13.7249 11.6033 13.8832 11.9257 13.9473C12.248 14.0115 12.5822 13.9786 12.8859 13.8528C13.1896 13.727 13.4492 13.514 13.6318 13.2407C13.8144 12.9673 13.9119 12.646 13.9119 12.3173C13.9116 11.8766 13.7364 11.454 13.4248 11.1424C13.1132 10.8308 12.6906 10.6555 12.2499 10.6553Z" fill="#121214"/>
<path d="M17.5741 11.5353C17.7288 11.5353 17.88 11.5811 18.0086 11.6671C18.1372 11.753 18.2374 11.8751 18.2966 12.018C18.3558 12.1609 18.3713 12.3181 18.3411 12.4698C18.3109 12.6215 18.2364 12.7608 18.1271 12.8702C18.0177 12.9795 17.8784 13.0541 17.7267 13.0842C17.575 13.1144 17.4177 13.0989 17.2749 13.0397C17.132 12.9805 17.0098 12.8803 16.9239 12.7517C16.838 12.6231 16.7921 12.4719 16.7921 12.3173C16.7924 12.1099 16.8748 11.9112 17.0214 11.7646C17.168 11.618 17.3668 11.5355 17.5741 11.5353ZM17.5741 10.6553C17.2454 10.6553 16.9241 10.7527 16.6508 10.9354C16.3774 11.118 16.1644 11.3775 16.0386 11.6812C15.9128 11.9849 15.8799 12.3191 15.944 12.6415C16.0082 12.9639 16.1665 13.26 16.3989 13.4924C16.6313 13.7249 16.9275 13.8832 17.2499 13.9473C17.5723 14.0115 17.9064 13.9785 18.2101 13.8527C18.5138 13.7269 18.7734 13.5139 18.956 13.2406C19.1386 12.9673 19.2361 12.646 19.2361 12.3173C19.2361 11.8765 19.061 11.4537 18.7493 11.142C18.4376 10.8303 18.0149 10.6553 17.5741 10.6553Z" fill="#121214"/>
</svg>
