<svg width="25" height="25" viewBox="0 0 25 25" fill="none" xmlns="http://www.w3.org/2000/svg">
<path d="M12.9491 24.3173L9.32886 23.212V19.8175H10.9263V22.03L12.7234 22.578L14.7612 21.317V19.2324H16.3586V22.2067L12.9491 24.3173Z" fill="#121214"/>
<path d="M11.4304 3.84268H13.0279V0.317261L11.4304 0.572865V3.84268Z" fill="#121214"/>
<path d="M12.4497 5.02233L18.2475 7.34065L18.552 15.4218L18.569 15.857L18.8046 16.2245L19.5544 17.3916L5.16136 19.678L5.73045 18.6027L5.90617 18.2692L5.91515 17.8938L6.11484 9.50121L12.4477 5.02233H12.4497ZM12.2341 3.21619L4.53636 8.66051L4.31571 17.8549L2.25 21.7577L22.2182 18.5847L20.1465 15.3608L19.803 6.24237L12.2341 3.21619Z" fill="#121214"/>
</svg>
