<svg width="25" height="25" viewBox="0 0 25 25" fill="none" xmlns="http://www.w3.org/2000/svg">
<path d="M12.363 3.63058C13.9934 3.63078 15.5872 4.11446 16.9428 5.02045C18.2984 5.92643 19.3549 7.21402 19.9788 8.72043C20.6026 10.2268 20.7657 11.8844 20.4475 13.4835C20.1292 15.0826 19.344 16.5515 18.191 17.7043C17.0381 18.8572 15.5691 19.6423 13.97 19.9603C12.3708 20.2783 10.7133 20.115 9.20691 19.491C7.70058 18.867 6.41309 17.8103 5.50727 16.4546C4.60145 15.0989 4.11799 13.5051 4.11799 11.8746C4.12063 9.6888 4.9902 7.59327 6.53589 6.04776C8.08159 4.50225 10.1772 3.63297 12.363 3.63058ZM12.363 2.7616C10.5606 2.7616 8.79868 3.29607 7.30005 4.29742C5.80143 5.29877 4.63341 6.72202 3.94367 8.38721C3.25393 10.0524 3.07349 11.8847 3.42511 13.6525C3.77674 15.4202 4.64466 17.044 5.91913 18.3185C7.19361 19.5929 8.8174 20.4609 10.5851 20.8125C12.3529 21.1641 14.1852 20.9837 15.8504 20.2939C17.5156 19.6042 18.9388 18.4361 19.9402 16.9375C20.9415 15.4389 21.476 13.677 21.476 11.8746C21.476 9.45769 20.5158 7.13974 18.8068 5.43073C17.0978 3.72171 14.7799 2.7616 12.363 2.7616Z" fill="#121214" stroke="#121214" stroke-width="0.8"/>
<path d="M15.978 7.29088C14.9505 6.4743 13.6755 6.03202 12.363 6.03688V5.16789C13.8712 5.16222 15.3363 5.67045 16.517 6.60887L15.978 7.29088Z" fill="#121214" stroke="#121214" stroke-width="0.8"/>
<path d="M18.7498 17.785L18.136 18.3988L21.61 21.8728L22.2238 21.2591L18.7498 17.785Z" fill="#121214" stroke="#121214" stroke-width="0.8"/>
</svg>
