<svg width="25" height="25" viewBox="0 0 25 25" fill="none" xmlns="http://www.w3.org/2000/svg">
<path d="M7.4599 14.2664C7.46057 14.3165 7.47231 14.3657 7.49426 14.4107C7.51622 14.4556 7.54787 14.4952 7.58691 14.5265C7.67402 14.5962 7.78225 14.6343 7.89386 14.6343C8.00547 14.6343 8.11376 14.5962 8.20087 14.5265L13.1009 10.3635L18.0009 14.5265C18.088 14.5962 18.1962 14.6343 18.3079 14.6343C18.4195 14.6343 18.5278 14.5962 18.6149 14.5265C18.6544 14.4955 18.6863 14.456 18.7083 14.4108C18.7303 14.3657 18.7417 14.3162 18.7417 14.266C18.7417 14.2158 18.7303 14.1662 18.7083 14.1211C18.6863 14.076 18.6544 14.0364 18.6149 14.0055L13.4039 9.58145C13.3168 9.51167 13.2085 9.47363 13.0969 9.47363C12.9852 9.47363 12.877 9.51167 12.7899 9.58145L7.57886 14.0055C7.54125 14.0377 7.51115 14.0778 7.4906 14.1228C7.47005 14.1679 7.45959 14.2169 7.4599 14.2664Z" fill="#BAB9C6"/>
</svg>
