<svg width="67" height="48" viewBox="0 0 67 48" fill="none" xmlns="http://www.w3.org/2000/svg">
<path d="M22.5 25.1628V11.7945C22.5 8.58871 25.0967 6 28.2945 6H38.7055C41.9113 6 44.5 8.59672 44.5 11.7945V14.6157C44.5 17.8215 41.9033 20.4102 38.7055 20.4102H29.4166C25.233 20.4102 23.3015 21.4441 23.029 23.055L22.8767 25.1548" stroke="#9CA3AF" stroke-width="1.2" stroke-miterlimit="10"/>
<path d="M27.2129 10.1357H38.6497" stroke="#9CA3AF" stroke-width="1.2" stroke-miterlimit="10"/>
<path d="M27.2129 13.5815H33.5123" stroke="#9CA3AF" stroke-width="1.2" stroke-miterlimit="10"/>
<path d="M27.6857 39.751C27.6857 40.3467 27.6076 40.9261 27.4514 41.4893C27.2951 42.0524 27.0673 42.5586 26.7678 43.0078C26.4683 43.4538 26.1037 43.7988 25.674 44.043L25.132 43.3594C25.5227 43.1348 25.8563 42.8304 26.133 42.4463C26.4097 42.0622 26.618 41.6374 26.758 41.1719C26.9012 40.7064 26.9729 40.2327 26.9729 39.751V39.3506H27.6857V39.751ZM27.8469 39.751C27.8469 40.2165 27.9169 40.6706 28.0568 41.1133C28.2001 41.5527 28.4117 41.9531 28.6916 42.3145C28.9715 42.6758 29.3085 42.9606 29.7023 43.1689L29.1701 43.8574C28.7404 43.623 28.3726 43.2943 28.0666 42.8711C27.7606 42.4479 27.5295 41.9694 27.3732 41.4355C27.2202 40.8984 27.1438 40.3369 27.1438 39.751V39.3506H27.8469V39.751ZM29.4436 39.4287H25.3664V38.667H29.4436V39.4287ZM27.8518 39.2383H26.9729V37.3926H27.8518V39.2383ZM32.7883 45.8252H31.8947V37.0752H32.7883V45.8252ZM32.2219 41.3379H30.5959V40.5615H32.2219V41.3379ZM30.8547 45.3955H29.9758V37.2412H30.8547V45.3955ZM35.4471 41.1572C36.3292 41.154 37.0356 41.1377 37.5662 41.1084C38.0968 41.0758 38.6307 41.0173 39.1678 40.9326L39.2605 41.6748C38.6616 41.7725 38.0594 41.8376 37.4539 41.8701C36.8484 41.8994 36.0298 41.9141 34.9979 41.9141H34.2752V41.1572H34.9979H35.4471ZM38.4842 38.4619H35.2078V41.5234H34.2752V37.7148H38.4842V38.4619ZM38.2352 40.1611H34.91V39.4189H38.2352V40.1611ZM41.0281 42.4658H40.1053V37.085H41.0281V42.4658ZM38.1033 42.5928C38.712 42.5863 39.2394 42.6465 39.6854 42.7734C40.1313 42.9004 40.4731 43.0843 40.7107 43.3252C40.9516 43.5661 41.0721 43.8574 41.0721 44.1992C41.0721 44.5378 40.9516 44.8275 40.7107 45.0684C40.4731 45.3125 40.1313 45.498 39.6854 45.625C39.2426 45.752 38.7153 45.8154 38.1033 45.8154C37.4848 45.8154 36.9526 45.752 36.5066 45.625C36.0607 45.498 35.7189 45.3125 35.4812 45.0684C35.2436 44.8275 35.1248 44.5378 35.1248 44.1992C35.1248 43.8574 35.2436 43.5661 35.4812 43.3252C35.7189 43.0843 36.0607 42.9004 36.5066 42.7734C36.9526 42.6465 37.4848 42.5863 38.1033 42.5928ZM38.1033 43.3154C37.6704 43.3154 37.2993 43.3496 36.99 43.418C36.6808 43.4863 36.4464 43.5872 36.2869 43.7207C36.1274 43.8509 36.0477 44.0104 36.0477 44.1992C36.0477 44.3848 36.1274 44.5459 36.2869 44.6826C36.4464 44.8161 36.6808 44.9186 36.99 44.9902C37.2993 45.0586 37.6704 45.0928 38.1033 45.0928C38.5298 45.0928 38.896 45.0586 39.202 44.9902C39.5112 44.9186 39.7472 44.8161 39.91 44.6826C40.0727 44.5459 40.1541 44.3848 40.1541 44.1992C40.1541 44.0137 40.0727 43.8542 39.91 43.7207C39.7472 43.5872 39.5112 43.4863 39.202 43.418C38.896 43.3496 38.5298 43.3154 38.1033 43.3154Z" fill="#9CA3AF"/>
</svg>
