<svg width="67" height="49" viewBox="0 0 67 49" fill="none" xmlns="http://www.w3.org/2000/svg">
<path d="M22.5 10.5833V23.5L22.9167 23.9167L23.75 22.25L26.6667 21H37.0833C38.75 21 40.8333 20.7222 41.6667 20.5833C45.4167 18.5 45.4167 16.8333 45.4167 13.9167C45.4167 11 45 10.5833 44.5833 8.91667C44.25 7.58333 41.9444 6.41667 40.8333 6H27.9167C25.25 6 23.1944 9.05556 22.5 10.5833Z" fill="#DFFF3C"/>
<path d="M22.5088 25.925V18.975V12.025C22.5088 8.69167 25.2088 6 28.5338 6H39.3588C42.6921 6 45.3838 8.7 45.3838 12.025V14.9583C45.3838 18.2917 42.6838 20.9833 39.3588 20.9833H29.7005C25.3505 20.9833 23.3421 22.0583 23.0588 23.7333L22.9005 25.9167" stroke="#374151" stroke-width="1.2" stroke-miterlimit="10"/>
<path d="M27.4092 10.2998H39.3008" stroke="#374151" stroke-width="1.2" stroke-miterlimit="10"/>
<path d="M27.4092 13.8833H33.9592" stroke="#374151" stroke-width="1.2" stroke-miterlimit="10"/>
<path d="M27.7107 39.751C27.7107 40.3467 27.6326 40.9261 27.4764 41.4893C27.3201 42.0524 27.0923 42.5586 26.7928 43.0078C26.4933 43.4538 26.1287 43.7988 25.699 44.043L25.157 43.3594C25.5477 43.1348 25.8813 42.8304 26.158 42.4463C26.4347 42.0622 26.643 41.6374 26.783 41.1719C26.9262 40.7064 26.9979 40.2327 26.9979 39.751V39.3506H27.7107V39.751ZM27.8719 39.751C27.8719 40.2165 27.9419 40.6706 28.0818 41.1133C28.2251 41.5527 28.4367 41.9531 28.7166 42.3145C28.9966 42.6758 29.3335 42.9606 29.7273 43.1689L29.1951 43.8574C28.7654 43.623 28.3976 43.2943 28.0916 42.8711C27.7856 42.4479 27.5545 41.9694 27.3982 41.4355C27.2452 40.8984 27.1688 40.3369 27.1688 39.751V39.3506H27.8719V39.751ZM29.4686 39.4287H25.3914V38.667H29.4686V39.4287ZM27.8768 39.2383H26.9979V37.3926H27.8768V39.2383ZM32.8133 45.8252H31.9197V37.0752H32.8133V45.8252ZM32.2469 41.3379H30.6209V40.5615H32.2469V41.3379ZM30.8797 45.3955H30.0008V37.2412H30.8797V45.3955ZM35.4221 41.1572C36.3042 41.154 37.0106 41.1377 37.5412 41.1084C38.0718 41.0758 38.6057 41.0173 39.1428 40.9326L39.2355 41.6748C38.6366 41.7725 38.0344 41.8376 37.4289 41.8701C36.8234 41.8994 36.0048 41.9141 34.9729 41.9141H34.2502V41.1572H34.9729H35.4221ZM38.4592 38.4619H35.1828V41.5234H34.2502V37.7148H38.4592V38.4619ZM38.2102 40.1611H34.885V39.4189H38.2102V40.1611ZM41.0031 42.4658H40.0803V37.085H41.0031V42.4658ZM38.0783 42.5928C38.687 42.5863 39.2144 42.6465 39.6604 42.7734C40.1063 42.9004 40.4481 43.0843 40.6857 43.3252C40.9266 43.5661 41.0471 43.8574 41.0471 44.1992C41.0471 44.5378 40.9266 44.8275 40.6857 45.0684C40.4481 45.3125 40.1063 45.498 39.6604 45.625C39.2176 45.752 38.6903 45.8154 38.0783 45.8154C37.4598 45.8154 36.9276 45.752 36.4816 45.625C36.0357 45.498 35.6939 45.3125 35.4563 45.0684C35.2186 44.8275 35.0998 44.5378 35.0998 44.1992C35.0998 43.8574 35.2186 43.5661 35.4563 43.3252C35.6939 43.0843 36.0357 42.9004 36.4816 42.7734C36.9276 42.6465 37.4598 42.5863 38.0783 42.5928ZM38.0783 43.3154C37.6454 43.3154 37.2743 43.3496 36.965 43.418C36.6558 43.4863 36.4214 43.5872 36.2619 43.7207C36.1024 43.8509 36.0227 44.0104 36.0227 44.1992C36.0227 44.3848 36.1024 44.5459 36.2619 44.6826C36.4214 44.8161 36.6558 44.9186 36.965 44.9902C37.2743 45.0586 37.6454 45.0928 38.0783 45.0928C38.5048 45.0928 38.871 45.0586 39.177 44.9902C39.4862 44.9186 39.7222 44.8161 39.885 44.6826C40.0477 44.5459 40.1291 44.3848 40.1291 44.1992C40.1291 44.0137 40.0477 43.8542 39.885 43.7207C39.7222 43.5872 39.4862 43.4863 39.177 43.418C38.871 43.3496 38.5048 43.3154 38.0783 43.3154Z" fill="#374151"/>
</svg>
