<svg width="67" height="48" viewBox="0 0 67 48" fill="none" xmlns="http://www.w3.org/2000/svg">
<path d="M22.5 27.8832C22.5 19.5415 27.3083 14.6665 33.2417 14.6665C39.175 14.6665 43.9833 19.5415 43.9833 27.8832" stroke="#9CA3AF" stroke-width="1.2" stroke-miterlimit="10"/>
<path d="M33.25 5V10.8" stroke="#9CA3AF" stroke-width="1.2" stroke-miterlimit="10"/>
<path d="M32.4855 43.5303H31.5627V37.085H32.4855V43.5303ZM32.7492 45.6543H26.7678V44.8877H32.7492V45.6543ZM27.6955 45.3027H26.7678V42.9395H27.6955V45.3027ZM28.3254 39.1211C28.3254 39.6419 28.2229 40.1286 28.0178 40.5811C27.8159 41.0335 27.5295 41.4274 27.1584 41.7627C26.7873 42.098 26.3462 42.3486 25.8352 42.5146L25.3713 41.7871C25.8173 41.6439 26.2046 41.4388 26.5334 41.1719C26.8622 40.9017 27.1145 40.5892 27.2902 40.2344C27.4693 39.8763 27.5588 39.5052 27.5588 39.1211V38.7646H28.3254V39.1211ZM28.4816 39.1211C28.4816 39.4857 28.5712 39.834 28.7502 40.166C28.9292 40.498 29.1848 40.791 29.5168 41.0449C29.8488 41.2956 30.2362 41.4893 30.6789 41.626L30.2297 42.3584C29.7154 42.2021 29.2694 41.9661 28.8918 41.6504C28.5174 41.3314 28.2294 40.9554 28.0275 40.5225C27.829 40.0863 27.7297 39.6191 27.7297 39.1211V38.7646H28.4816V39.1211ZM30.4201 38.9453H25.6203V38.208H30.4201V38.9453ZM28.4914 38.5498H27.5588V37.124H28.4914V38.5498ZM40.2762 38.3789H34.7439V37.627H40.2762V38.3789ZM41.7508 42.1338H33.7723V41.377H41.7508V42.1338ZM38.201 45.8447H37.2732V41.8896H38.201V45.8447ZM40.7352 38.4814C40.7352 38.8753 40.7286 39.2253 40.7156 39.5312C40.7026 39.834 40.6717 40.1823 40.6228 40.5762C40.5773 40.9668 40.5008 41.3883 40.3934 41.8408L39.4754 41.7334C39.5828 41.2874 39.6609 40.8708 39.7098 40.4834C39.7586 40.096 39.7879 39.7526 39.7977 39.4531C39.8074 39.1536 39.8123 38.8037 39.8123 38.4033V37.627H40.7352V38.3984V38.4814Z" fill="#9CA3AF"/>
</svg>
