<svg width="67" height="49" viewBox="0 0 67 49" fill="none" xmlns="http://www.w3.org/2000/svg">
<path d="M23.5 26.3031C23.5 18.5374 27.9763 13.999 33.5 13.999C39.0237 13.999 43.5 18.5374 43.5 26.3031" fill="#DFFF3C"/>
<path d="M23.5 26.3031C23.5 18.5374 27.9763 13.999 33.5 13.999C39.0237 13.999 43.5 18.5374 43.5 26.3031" stroke="#374151" stroke-width="1.2" stroke-miterlimit="10"/>
<path d="M33.5078 5V10.3995" stroke="#374151" stroke-width="1.2" stroke-miterlimit="10"/>
<path d="M32.5105 43.5303H31.5877V37.085H32.5105V43.5303ZM32.7742 45.6543H26.7928V44.8877H32.7742V45.6543ZM27.7205 45.3027H26.7928V42.9395H27.7205V45.3027ZM28.3504 39.1211C28.3504 39.6419 28.2479 40.1286 28.0428 40.5811C27.841 41.0335 27.5545 41.4274 27.1834 41.7627C26.8123 42.098 26.3712 42.3486 25.8602 42.5146L25.3963 41.7871C25.8423 41.6439 26.2296 41.4388 26.5584 41.1719C26.8872 40.9017 27.1395 40.5892 27.3152 40.2344C27.4943 39.8763 27.5838 39.5052 27.5838 39.1211V38.7646H28.3504V39.1211ZM28.5066 39.1211C28.5066 39.4857 28.5962 39.834 28.7752 40.166C28.9542 40.498 29.2098 40.791 29.5418 41.0449C29.8738 41.2956 30.2612 41.4893 30.7039 41.626L30.2547 42.3584C29.7404 42.2021 29.2944 41.9661 28.9168 41.6504C28.5424 41.3314 28.2544 40.9554 28.0525 40.5225C27.854 40.0863 27.7547 39.6191 27.7547 39.1211V38.7646H28.5066V39.1211ZM30.4451 38.9453H25.6453V38.208H30.4451V38.9453ZM28.5164 38.5498H27.5838V37.124H28.5164V38.5498ZM40.2512 38.3789H34.7189V37.627H40.2512V38.3789ZM41.7258 42.1338H33.7473V41.377H41.7258V42.1338ZM38.176 45.8447H37.2482V41.8896H38.176V45.8447ZM40.7102 38.4814C40.7102 38.8753 40.7036 39.2253 40.6906 39.5312C40.6776 39.834 40.6467 40.1823 40.5979 40.5762C40.5523 40.9668 40.4758 41.3883 40.3684 41.8408L39.4504 41.7334C39.5578 41.2874 39.6359 40.8708 39.6848 40.4834C39.7336 40.096 39.7629 39.7526 39.7727 39.4531C39.7824 39.1536 39.7873 38.8037 39.7873 38.4033V37.627H40.7102V38.3984V38.4814Z" fill="#374151"/>
</svg>
