<svg width="67" height="48" viewBox="0 0 67 48" fill="none" xmlns="http://www.w3.org/2000/svg">
<path d="M28.7818 16.4841H27.5324C24.492 16.4841 23.0941 17.2355 22.8932 18.4062L22.7796 19.9264H22.5V10.2111C22.5 7.88714 24.3872 6 26.7112 6H34.2773C36.6013 6 38.4884 7.88714 38.4884 10.2111V11.1285" stroke="#9CA3AF" stroke-width="1.2" stroke-miterlimit="10"/>
<path d="M46.5001 26.8986V17.1833C46.5001 14.8593 44.613 12.9722 42.289 12.9722H34.7229C32.3989 12.9722 30.5117 14.8593 30.5117 17.1833V19.2364C30.5117 21.5604 32.3989 23.4476 34.7229 23.4476H41.4765C44.5169 23.4476 45.9148 24.1989 46.1157 25.3697L46.2293 26.8899" stroke="#9CA3AF" stroke-width="1.2" stroke-miterlimit="10"/>
<path d="M21.1256 44.1406H20.2174V42.0068H21.1256V44.1406ZM20.6764 37.6074C21.2949 37.6074 21.8499 37.7051 22.3414 37.9004C22.8329 38.0924 23.2154 38.3659 23.4889 38.7207C23.7656 39.0723 23.9039 39.4775 23.9039 39.9365C23.9039 40.402 23.7656 40.8105 23.4889 41.1621C23.2154 41.5137 22.8329 41.7871 22.3414 41.9824C21.8499 42.1745 21.2949 42.2705 20.6764 42.2705C20.0546 42.2705 19.498 42.1745 19.0064 41.9824C18.5182 41.7871 18.1357 41.5137 17.859 41.1621C17.5823 40.8105 17.4439 40.402 17.4439 39.9365C17.4439 39.4775 17.5823 39.0723 17.859 38.7207C18.1357 38.3659 18.5182 38.0924 19.0064 37.9004C19.498 37.7051 20.0546 37.6074 20.6764 37.6074ZM20.6764 38.3594C20.2304 38.3594 19.83 38.4245 19.4752 38.5547C19.1204 38.6849 18.8437 38.8704 18.6451 39.1113C18.4498 39.349 18.3521 39.624 18.3521 39.9365C18.3521 40.2523 18.4498 40.5306 18.6451 40.7715C18.8437 41.0124 19.1187 41.1979 19.4703 41.3281C19.8219 41.4583 20.2239 41.5251 20.6764 41.5283C21.1288 41.5251 21.5292 41.4583 21.8775 41.3281C22.2291 41.1979 22.5042 41.0124 22.7027 40.7715C22.9013 40.5306 23.0006 40.2523 23.0006 39.9365C23.0006 39.624 22.9013 39.349 22.7027 39.1113C22.5042 38.8704 22.2291 38.6849 21.8775 38.5547C21.526 38.4245 21.1256 38.3594 20.6764 38.3594ZM24.6949 44.7363H16.6871V43.9697H24.6949V44.7363ZM32.4611 38.2422H25.9621V37.5H32.4611V38.2422ZM32.4221 40.8301H26.0012V40.0928H32.4221V40.8301ZM28.1594 40.4443H27.2365V37.8223H28.1594V40.4443ZM31.1867 40.4443H30.259V37.8223H31.1867V40.4443ZM33.2082 42.4512H25.2297V41.6992H33.2082V42.4512ZM32.3146 45.6543H26.2404V44.8877H32.3146V45.6543ZM27.1682 45.1318H26.2404V43.1787H27.1682V45.1318ZM36.2283 39.751C36.2283 40.3467 36.1502 40.9261 35.9939 41.4893C35.8377 42.0524 35.6098 42.5586 35.3104 43.0078C35.0109 43.4538 34.6463 43.7988 34.2166 44.043L33.6746 43.3594C34.0652 43.1348 34.3989 42.8304 34.6756 42.4463C34.9523 42.0622 35.1606 41.6374 35.3006 41.1719C35.4438 40.7064 35.5154 40.2327 35.5154 39.751V39.3506H36.2283V39.751ZM36.3895 39.751C36.3895 40.2165 36.4594 40.6706 36.5994 41.1133C36.7426 41.5527 36.9542 41.9531 37.2342 42.3145C37.5141 42.6758 37.851 42.9606 38.2449 43.1689L37.7127 43.8574C37.283 43.623 36.9152 43.2943 36.6092 42.8711C36.3032 42.4479 36.0721 41.9694 35.9158 41.4355C35.7628 40.8984 35.6863 40.3369 35.6863 39.751V39.3506H36.3895V39.751ZM37.9861 39.4287H33.909V38.667H37.9861V39.4287ZM36.3943 39.2383H35.5154V37.3926H36.3943V39.2383ZM41.3309 45.8252H40.4373V37.0752H41.3309V45.8252ZM40.7645 41.3379H39.1385V40.5615H40.7645V41.3379ZM39.3973 45.3955H38.5184V37.2412H39.3973V45.3955ZM43.9896 41.1572C44.8718 41.154 45.5782 41.1377 46.1088 41.1084C46.6394 41.0758 47.1732 41.0173 47.7104 40.9326L47.8031 41.6748C47.2042 41.7725 46.602 41.8376 45.9965 41.8701C45.391 41.8994 44.5723 41.9141 43.5404 41.9141H42.8178V41.1572H43.5404H43.9896ZM47.0268 38.4619H43.7504V41.5234H42.8178V37.7148H47.0268V38.4619ZM46.7777 40.1611H43.4525V39.4189H46.7777V40.1611ZM49.5707 42.4658H48.6479V37.085H49.5707V42.4658ZM46.6459 42.5928C47.2546 42.5863 47.782 42.6465 48.2279 42.7734C48.6739 42.9004 49.0157 43.0843 49.2533 43.3252C49.4942 43.5661 49.6146 43.8574 49.6146 44.1992C49.6146 44.5378 49.4942 44.8275 49.2533 45.0684C49.0157 45.3125 48.6739 45.498 48.2279 45.625C47.7852 45.752 47.2579 45.8154 46.6459 45.8154C46.0274 45.8154 45.4952 45.752 45.0492 45.625C44.6033 45.498 44.2615 45.3125 44.0238 45.0684C43.7862 44.8275 43.6674 44.5378 43.6674 44.1992C43.6674 43.8574 43.7862 43.5661 44.0238 43.3252C44.2615 43.0843 44.6033 42.9004 45.0492 42.7734C45.4952 42.6465 46.0274 42.5863 46.6459 42.5928ZM46.6459 43.3154C46.213 43.3154 45.8419 43.3496 45.5326 43.418C45.2234 43.4863 44.989 43.5872 44.8295 43.7207C44.67 43.8509 44.5902 44.0104 44.5902 44.1992C44.5902 44.3848 44.67 44.5459 44.8295 44.6826C44.989 44.8161 45.2234 44.9186 45.5326 44.9902C45.8419 45.0586 46.213 45.0928 46.6459 45.0928C47.0723 45.0928 47.4385 45.0586 47.7445 44.9902C48.0538 44.9186 48.2898 44.8161 48.4525 44.6826C48.6153 44.5459 48.6967 44.3848 48.6967 44.1992C48.6967 44.0137 48.6153 43.8542 48.4525 43.7207C48.2898 43.5872 48.0538 43.4863 47.7445 43.418C47.4385 43.3496 47.0723 43.3154 46.6459 43.3154Z" fill="#9CA3AF"/>
</svg>
