<svg width="67" height="48" viewBox="0 0 67 48" fill="none" xmlns="http://www.w3.org/2000/svg">
<path d="M33.75 5V13.975" stroke="#9CA3AF" stroke-width="1.2" stroke-miterlimit="10"/>
<path d="M36.3662 16.4419H44.9912" stroke="#9CA3AF" stroke-width="1.2" stroke-miterlimit="10"/>
<path d="M22.5 16.4419H30.75C32.4069 16.4419 33.75 17.785 33.75 19.4419V27.8919" stroke="#9CA3AF" stroke-width="1.2" stroke-miterlimit="10"/>
<path d="M22.0766 42.9248C22.9327 42.9248 23.6472 42.9053 24.2201 42.8662C24.793 42.8271 25.3692 42.7539 25.9486 42.6465L26.0561 43.4033C25.4538 43.5205 24.8598 43.6003 24.2738 43.6426C23.6879 43.6816 22.9555 43.7012 22.0766 43.7012H21.393V42.9248H22.0766ZM25.4018 38.6572H22.3256V43.208H21.393V37.8906H25.4018V38.6572ZM28.268 45.8496H27.3354V37.0752H28.268V45.8496ZM27.7309 40.9717H24.9086V40.21H27.7309V40.9717ZM37.5088 44.7412H29.501V43.9795H37.5088V44.7412ZM33.9395 44.1943H33.0312V41.9385H33.9395V44.1943ZM31.3467 39.1846H35.6436V37.6758H36.5566V42.1826H30.4141V37.6758H31.3467V39.1846ZM35.6436 41.4307V39.9316H31.3467V41.4307H35.6436ZM45.3189 45.8252H44.3814V37.0752H45.3189V45.8252ZM42.7213 38.0176C42.7213 38.9095 42.5829 39.7347 42.3062 40.4932C42.0328 41.2484 41.5934 41.945 40.9879 42.583C40.3824 43.2178 39.5947 43.7679 38.6246 44.2334L38.1266 43.4814C38.9697 43.0843 39.6614 42.6221 40.2018 42.0947C40.7454 41.5674 41.1474 40.9782 41.4078 40.3271C41.6682 39.6761 41.7984 38.9567 41.7984 38.1689V38.0176H42.7213ZM42.1988 38.7598H38.5514V38.0176H42.1988V38.7598Z" fill="#9CA3AF"/>
</svg>
