<svg width="67" height="48" viewBox="0 0 67 48" fill="none" xmlns="http://www.w3.org/2000/svg">
<path d="M29.2386 10.1598V8.80584C29.2386 7.79638 29.6713 6.835 30.4324 6.17004L30.7849 5.8656C32.1388 4.68791 34.1577 4.71195 35.4716 5.93771C36.1846 6.60267 36.5932 7.532 36.5932 8.50139V8.74174C36.5932 10.7927 34.9348 12.4511 32.8839 12.4511H27.6641C26.0072 12.4511 24.6641 13.7942 24.6641 15.4511V24C24.6641 25.6569 26.0072 27 27.6641 27H38.336C39.9929 27 41.336 25.6569 41.336 24V12.9398" stroke="#9CA3AF" stroke-width="1.2" stroke-miterlimit="10"/>
<path d="M28.2717 44.3945H27.3635V42.0605H28.2717V44.3945ZM31.0988 44.3945H30.176V42.0605H31.0988V44.3945ZM33.2375 44.7363H25.2297V43.9844H33.2375V44.7363ZM29.5119 38.291C29.5119 38.8802 29.3459 39.4287 29.0139 39.9365C28.6818 40.4443 28.2375 40.8708 27.6809 41.2158C27.1275 41.5609 26.5253 41.7936 25.8742 41.9141L25.4885 41.1475C26.0484 41.0531 26.5741 40.8643 27.0656 40.5811C27.5604 40.2946 27.9559 39.9512 28.2521 39.5508C28.5484 39.1471 28.6965 38.7272 28.6965 38.291V37.6318H29.5119V38.291ZM29.673 38.291C29.673 38.7272 29.8212 39.1488 30.1174 39.5557C30.4169 39.9593 30.814 40.3027 31.3088 40.5859C31.8036 40.8691 32.3293 41.0563 32.8859 41.1475L32.5148 41.9141C31.8605 41.7936 31.2535 41.5609 30.6936 41.2158C30.1369 40.8708 29.6942 40.446 29.3654 39.9414C29.0399 39.4336 28.8771 38.8835 28.8771 38.291V37.6318H29.673V38.291ZM38.9041 38.5645H34.1629V37.8027H38.9041V38.5645ZM33.9187 41.1035C34.879 41.1035 35.8198 41.0856 36.741 41.0498C37.6622 41.014 38.5167 40.9456 39.3045 40.8447L39.368 41.543C38.5737 41.6732 37.729 41.7611 36.8338 41.8066C35.9419 41.849 35.0076 41.8701 34.0311 41.8701L33.9187 41.1035ZM35.8719 41.4551H34.9783V38.3643H35.8719V41.4551ZM38.0691 41.4551H37.1805V38.3643H38.0691V41.4551ZM41.0281 42.417H40.1053V37.085H41.0281V42.417ZM38.1033 42.5977C38.7251 42.5977 39.2589 42.6595 39.7049 42.7832C40.1508 42.9069 40.4926 43.0892 40.7303 43.3301C40.9679 43.5677 41.0867 43.8574 41.0867 44.1992C41.0867 44.5378 40.9679 44.8275 40.7303 45.0684C40.4926 45.3125 40.1508 45.498 39.7049 45.625C39.2589 45.752 38.7251 45.8154 38.1033 45.8154C37.4913 45.8154 36.9624 45.752 36.5164 45.625C36.0704 45.498 35.7286 45.3125 35.491 45.0684C35.2534 44.8275 35.1346 44.5378 35.1346 44.1992C35.1346 43.8574 35.2534 43.5677 35.491 43.3301C35.7286 43.0892 36.0704 42.9069 36.5164 42.7832C36.9624 42.6595 37.4913 42.5977 38.1033 42.5977ZM38.1033 43.3252C37.6769 43.3252 37.309 43.3594 36.9998 43.4277C36.6906 43.4961 36.4546 43.5954 36.2918 43.7256C36.129 43.8558 36.0477 44.0137 36.0477 44.1992C36.0477 44.3848 36.129 44.5459 36.2918 44.6826C36.4546 44.8161 36.6906 44.9186 36.9998 44.9902C37.309 45.0586 37.6769 45.0928 38.1033 45.0928C38.5363 45.0928 38.9057 45.0586 39.2117 44.9902C39.521 44.9186 39.7553 44.8161 39.9148 44.6826C40.0776 44.5459 40.159 44.3848 40.159 44.1992C40.159 44.0137 40.0776 43.8558 39.9148 43.7256C39.7553 43.5954 39.521 43.4961 39.2117 43.4277C38.9057 43.3594 38.5363 43.3252 38.1033 43.3252Z" fill="#9CA3AF"/>
</svg>
