<svg width="57" height="20" viewBox="0 0 57 20" fill="none" xmlns="http://www.w3.org/2000/svg">
<rect x="1" y="0.5" width="55" height="19" rx="9.5" fill="#FEFEFE"/>
<rect x="1" y="0.5" width="55" height="19" rx="9.5" stroke="#DF2F25"/>
<path d="M18.8963 8.34375H16.7234V7.57715H18.8963V8.34375ZM15.117 7.15723C15.1137 7.73014 15.0161 8.26562 14.824 8.76367C14.632 9.25846 14.352 9.69141 13.9842 10.0625C13.6196 10.4336 13.1867 10.7168 12.6854 10.9121L12.1873 10.165C12.6333 10.0055 13.0206 9.77441 13.3494 9.47168C13.6814 9.16569 13.9337 8.81413 14.1063 8.41699C14.282 8.0166 14.3699 7.59668 14.3699 7.15723V6.11719H15.117V7.15723ZM15.2879 7.17676C15.2879 7.57715 15.3725 7.96289 15.5418 8.33398C15.7143 8.70182 15.9585 9.02897 16.2742 9.31543C16.5932 9.60189 16.9692 9.82161 17.4021 9.97461L16.8895 10.6973C16.4109 10.5117 15.9943 10.2448 15.6395 9.89648C15.2879 9.54492 15.0177 9.13639 14.8289 8.6709C14.6434 8.2054 14.5506 7.70736 14.5506 7.17676V6.11719H15.2879V7.17676ZM19.4969 12.1084H18.5691V5.58496H19.4969V12.1084ZM19.6922 14.1543H13.7791V13.3877H19.6922V14.1543ZM14.7166 13.7588H13.7791V11.3857H14.7166V13.7588ZM25.133 11.0391H24.2102V9.72559H25.133V11.0391ZM28.673 9.94531H20.6945V9.20312H28.673V9.94531ZM27.6428 8.55859H21.7102V5.8584H27.6428V8.55859ZM22.6281 7.82617H26.7199V6.59082H22.6281V7.82617ZM27.6623 12.7627H22.5744V13.749H21.6613V12.084H26.7541V11.415H21.6467V10.707H27.6623V12.7627ZM27.9162 14.2422H21.6613V13.5244H27.9162V14.2422ZM36.0035 14.3252H35.0855V5.5752H36.0035V14.3252ZM37.4146 9.8916H35.7936V9.125H37.4146V9.8916ZM34.3238 7.7041H29.1383V6.94727H34.3238V7.7041ZM31.7701 8.35352C32.1803 8.35352 32.5497 8.43978 32.8785 8.6123C33.2105 8.78483 33.471 9.02572 33.6598 9.33496C33.8486 9.64421 33.9446 9.99414 33.9479 10.3848C33.9446 10.7819 33.8486 11.1351 33.6598 11.4443C33.471 11.7503 33.2105 11.9896 32.8785 12.1621C32.5497 12.3346 32.1803 12.4209 31.7701 12.4209C31.3535 12.4209 30.9791 12.3346 30.6471 12.1621C30.3183 11.9896 30.0595 11.7503 29.8707 11.4443C29.6852 11.1351 29.5924 10.7819 29.5924 10.3848C29.5924 9.99414 29.6852 9.64421 29.8707 9.33496C30.0595 9.02572 30.3183 8.78483 30.6471 8.6123C30.9791 8.43978 31.3535 8.35352 31.7701 8.35352ZM31.7701 9.12012C31.5227 9.12012 31.3014 9.17383 31.1061 9.28125C30.9107 9.38542 30.7561 9.53516 30.6422 9.73047C30.5315 9.92253 30.4762 10.1406 30.4762 10.3848C30.4762 10.6354 30.5315 10.8551 30.6422 11.0439C30.7561 11.2327 30.9107 11.3809 31.1061 11.4883C31.3014 11.5957 31.5227 11.6478 31.7701 11.6445C32.0143 11.6478 32.234 11.5957 32.4293 11.4883C32.6279 11.3809 32.7809 11.2327 32.8883 11.0439C32.999 10.8551 33.0559 10.6354 33.0592 10.3848C33.0559 10.1406 32.999 9.92253 32.8883 9.73047C32.7809 9.53516 32.6279 9.38542 32.4293 9.28125C32.234 9.17383 32.0143 9.12012 31.7701 9.12012ZM32.2242 7.26953H31.3014V5.69238H32.2242V7.26953ZM44.9551 14.3252H44.0176V5.5752H44.9551V14.3252ZM42.3574 6.51758C42.3542 7.40951 42.2158 8.2347 41.9424 8.99316C41.6689 9.74837 41.2295 10.445 40.624 11.083C40.0186 11.721 39.2308 12.2712 38.2607 12.7334L37.7627 11.9814C38.6025 11.5843 39.2943 11.1221 39.8379 10.5947C40.3815 10.0641 40.7819 9.47493 41.0391 8.82715C41.2995 8.17611 41.4313 7.45671 41.4346 6.66895V6.51758H42.3574ZM41.835 7.25977H38.1875V6.51758H41.835V7.25977Z" fill="#DF2F25"/>
</svg>
