<svg xmlns="http://www.w3.org/2000/svg" width="18" height="14" viewBox="0 0 18 14" fill="none">
  <path d="M1.88867 0.599609L4.77312 12.7402C4.8174 12.927 4.91027 13.0917 5.0381 13.2103C5.16592 13.329 5.32199 13.3952 5.48342 13.3994C5.64484 13.4036 5.80314 13.3455 5.9351 13.2336C6.06706 13.1217 6.16574 12.9619 6.21667 12.7777L8.99978 2.73742L11.7829 12.7777C11.8338 12.9619 11.9325 13.1217 12.0645 13.2336C12.1964 13.3455 12.3547 13.4036 12.5162 13.3994C12.6776 13.3952 12.8336 13.329 12.9615 13.2103C13.0893 13.0917 13.1822 12.927 13.2264 12.7402L16.1109 0.599609" stroke="#FEFEFE" stroke-width="1.2" stroke-linecap="round" stroke-linejoin="round"/>
  <path d="M17 4.875H1" stroke="#FEFEFE" stroke-width="1.2" stroke-linecap="round" stroke-linejoin="round"/>
  <path d="M17 9.15039H1" stroke="#FEFEFE" stroke-width="1.2" stroke-linecap="round" stroke-linejoin="round"/>
</svg>