<svg width="52" height="52" viewBox="0 0 52 52" fill="none" xmlns="http://www.w3.org/2000/svg">
<rect x="0.6" y="0.6" width="50.8" height="50.8" rx="25.4" fill="#9CA3AF"/>
<rect x="0.6" y="0.6" width="50.8" height="50.8" rx="25.4" stroke="#D1D5DB" stroke-width="1.2"/>
<path d="M30 23.3335L36.0707 20.2988C36.2739 20.1973 36.4997 20.1493 36.7267 20.1596C36.9536 20.1698 37.1742 20.2378 37.3675 20.3572C37.5608 20.4766 37.7203 20.6435 37.831 20.8419C37.9417 21.0402 37.9999 21.2636 38 21.4908V30.5095C37.9999 30.7367 37.9417 30.9601 37.831 31.1585C37.7203 31.3569 37.5608 31.5237 37.3675 31.6431C37.1742 31.7625 36.9536 31.8305 36.7267 31.8408C36.4997 31.851 36.2739 31.803 36.0707 31.7015L30 28.6668V23.3335Z" fill="white"/>
<path d="M14 20.6667C14 19.9594 14.281 19.2811 14.781 18.781C15.2811 18.281 15.9594 18 16.6667 18H27.3333C28.0406 18 28.7189 18.281 29.219 18.781C29.719 19.2811 30 19.9594 30 20.6667V31.3333C30 32.0406 29.719 32.7189 29.219 33.219C28.7189 33.719 28.0406 34 27.3333 34H16.6667C15.9594 34 15.2811 33.719 14.781 33.219C14.281 32.7189 14 32.0406 14 31.3333V20.6667Z" fill="white"/>
</svg>
