<svg width="32" height="32" viewBox="0 0 32 32" fill="none" xmlns="http://www.w3.org/2000/svg">
<g id="Icon_Music">
<path id="Vector" d="M21.556 17.7006H20.6689C19.8384 17.7006 19.165 18.3714 19.165 19.1989V22.4115C19.165 23.2888 19.8788 24 20.7594 24H22.4057C23.2862 24 24 23.2888 24 22.4115V15.3052C24 11.2707 20.7173 8 16.6679 8H15.3321C11.2827 8 8 11.2707 8 15.3052V22.4115C8 23.2888 8.71381 24 9.59434 24H11.2406C12.1212 24 12.835 23.2888 12.835 22.4115V19.1989C12.835 18.3714 12.1616 17.7006 11.3311 17.7006H10.444" stroke="#111827" stroke-width="1.2" stroke-miterlimit="10"/>
</g>
</svg>
