<svg width="20" height="20" viewBox="0 0 20 20" fill="none" xmlns="http://www.w3.org/2000/svg">
<g id="Group 15">
<path id="Vector" d="M18 11.4741C18.5523 11.4741 19 11.0264 19 10.4741V9.52595C19 8.97367 18.5523 8.52595 18 8.52595H17.3013C16.8322 8.52595 16.434 8.19661 16.2768 7.75471C16.2038 7.54968 16.1207 7.34911 16.0279 7.15371C15.8264 6.72937 15.8746 6.21392 16.2067 5.8817L16.7007 5.38758C17.0911 4.99708 17.0911 4.36409 16.7007 3.97359L16.0279 3.30055C15.6373 2.90986 15.004 2.90986 14.6134 3.30056L14.1224 3.79177C13.792 4.12233 13.2797 4.17231 12.8571 3.97258C12.6576 3.87828 12.4525 3.79354 12.2424 3.71882C11.8027 3.56242 11.4766 3.1653 11.4766 2.69855V2C11.4766 1.44771 11.0289 1 10.4766 1H9.52951C8.97722 1 8.52951 1.44772 8.52951 2V2.69219C8.52951 3.16184 8.1994 3.56062 7.75687 3.71793C7.54704 3.79251 7.34198 3.87753 7.14261 3.97205C6.72028 4.17229 6.20804 4.12233 5.8776 3.79178L5.38757 3.30158C4.99661 2.91049 4.36246 2.91096 3.97208 3.30263L3.30331 3.9736C2.91393 4.36426 2.9144 4.99645 3.30436 5.38653L3.79728 5.87961C4.12756 6.21 4.17738 6.72187 3.97674 7.14376C3.88262 7.34167 3.79794 7.54508 3.7236 7.75338C3.56573 8.19574 3.16703 8.52595 2.69734 8.52595H2C1.44772 8.52595 1 8.97367 1 9.52595V10.4741C1 11.0264 1.44772 11.4741 2 11.4741H2.7037C3.17048 11.4741 3.56756 11.8002 3.72363 12.2401C3.79839 12.4508 3.88332 12.6567 3.97813 12.8569C4.17948 13.2821 4.13053 13.7984 3.79739 14.1305L3.30783 14.6186C2.91632 15.0089 2.91577 15.6428 3.30661 16.0338L3.97208 16.6995C4.36263 17.0901 4.99598 17.0901 5.38653 16.6995L5.87758 16.2082C6.20803 15.8777 6.72029 15.8277 7.14263 16.028C7.34201 16.1225 7.54707 16.2075 7.75691 16.2821C8.19942 16.4394 8.52951 16.8382 8.52951 17.3078V18C8.52951 18.5523 8.97722 19 9.52951 19H10.4766C11.0289 19 11.4766 18.5523 11.4766 18V17.3014C11.4766 16.8347 11.8026 16.4376 12.2424 16.2812C12.4525 16.2065 12.6576 16.1218 12.8571 16.0275C13.2797 15.8277 13.792 15.8777 14.1224 16.2083L14.6145 16.7005C15.0046 17.0908 15.6372 17.0912 16.0279 16.7015L16.6986 16.0325C17.09 15.6422 17.0904 15.0084 16.6997 14.6175L16.2027 14.1204C15.8724 13.79 15.8225 13.278 16.0221 12.8556C16.1165 12.6558 16.2013 12.4504 16.2761 12.24C16.4324 11.8002 16.8295 11.4741 17.2963 11.4741H18ZM10 12.7497C8.48068 12.7497 7.24813 11.5168 7.24813 9.99695C7.24813 8.48322 8.48068 7.25025 10 7.25025C11.5193 7.25025 12.7519 8.48322 12.7519 9.99695C12.7519 11.5168 11.5193 12.7497 10 12.7497Z" stroke="#111827" stroke-width="1.2" stroke-miterlimit="10"/>
</g>
</svg>
