<svg width="29" height="29" viewBox="0 0 29 29" fill="none" xmlns="http://www.w3.org/2000/svg">
<path d="M24.1943 4.72876H4.94434C4.48021 4.72876 4.03509 4.91313 3.7069 5.24132C3.37871 5.56951 3.19434 6.01463 3.19434 6.47876V20.4788C3.19434 20.9429 3.37871 21.388 3.7069 21.7162C4.03509 22.0444 4.48021 22.2288 4.94434 22.2288H11.5539L13.0501 24.8472C13.2032 25.115 13.4244 25.3375 13.6911 25.4923C13.9579 25.6471 14.2609 25.7286 14.5693 25.7286C14.8778 25.7286 15.1807 25.6471 15.4475 25.4923C15.7143 25.3375 15.9355 25.115 16.0886 24.8472L17.5848 22.2288H24.1943C24.6585 22.2288 25.1036 22.0444 25.4318 21.7162C25.76 21.388 25.9443 20.9429 25.9443 20.4788V6.47876C25.9443 6.01463 25.76 5.56951 25.4318 5.24132C25.1036 4.91313 24.6585 4.72876 24.1943 4.72876ZM18.0693 16.1038H11.0693C10.8373 16.1038 10.6147 16.0116 10.4506 15.8475C10.2865 15.6834 10.1943 15.4608 10.1943 15.2288C10.1943 14.9967 10.2865 14.7741 10.4506 14.61C10.6147 14.4459 10.8373 14.3538 11.0693 14.3538H18.0693C18.3014 14.3538 18.524 14.4459 18.6881 14.61C18.8521 14.7741 18.9443 14.9967 18.9443 15.2288C18.9443 15.4608 18.8521 15.6834 18.6881 15.8475C18.524 16.0116 18.3014 16.1038 18.0693 16.1038ZM18.0693 12.6038H11.0693C10.8373 12.6038 10.6147 12.5116 10.4506 12.3475C10.2865 12.1834 10.1943 11.9608 10.1943 11.7288C10.1943 11.4967 10.2865 11.2741 10.4506 11.11C10.6147 10.9459 10.8373 10.8538 11.0693 10.8538H18.0693C18.3014 10.8538 18.524 10.9459 18.6881 11.11C18.8521 11.2741 18.9443 11.4967 18.9443 11.7288C18.9443 11.9608 18.8521 12.1834 18.6881 12.3475C18.524 12.5116 18.3014 12.6038 18.0693 12.6038Z" fill="#13151A"/>
</svg>
