<svg width="29" height="29" viewBox="0 0 29 29" fill="none" xmlns="http://www.w3.org/2000/svg">
<path d="M25.3626 13.515V24.3025C25.3626 24.5409 25.2691 24.7695 25.1027 24.9381C24.9364 25.1067 24.7107 25.2014 24.4755 25.2014H18.2658C18.0305 25.2014 17.8049 25.1067 17.6385 24.9381C17.4722 24.7695 17.3787 24.5409 17.3787 24.3025V18.4592C17.3787 18.34 17.332 18.2257 17.2488 18.1414C17.1656 18.0571 17.0528 18.0098 16.9352 18.0098H12.4997C12.382 18.0098 12.2692 18.0571 12.186 18.1414C12.1029 18.2257 12.0561 18.34 12.0561 18.4592V24.3025C12.0561 24.5409 11.9627 24.7695 11.7963 24.9381C11.6299 25.1067 11.4043 25.2014 11.169 25.2014H4.95936C4.72409 25.2014 4.49845 25.1067 4.33209 24.9381C4.16573 24.7695 4.07227 24.5409 4.07227 24.3025V13.515C4.07248 13.0382 4.25955 12.5811 4.59233 12.2441L13.4633 3.25451C13.796 2.91759 14.2471 2.72833 14.7174 2.72833C15.1878 2.72833 15.6389 2.91759 15.9715 3.25451L24.8425 12.2441C25.1753 12.5811 25.3623 13.0382 25.3626 13.515Z" fill="#13151A"/>
</svg>
