<svg viewBox="0 0 29 29" fill="none" xmlns="http://www.w3.org/2000/svg">
<path d="M25.5823 10.6142L24.0139 5.12251C23.9084 4.7582 23.6879 4.43778 23.3853 4.20911C23.0827 3.98044 22.7142 3.85579 22.335 3.85376H6.14746C5.76819 3.85579 5.39974 3.98044 5.09715 4.20911C4.79456 4.43778 4.57405 4.7582 4.46855 5.12251L2.90012 10.6142C2.87769 10.6921 2.86628 10.7727 2.86621 10.8538V12.6038C2.86621 13.283 3.02435 13.9528 3.32809 14.5603C3.63184 15.1678 4.07285 15.6962 4.61621 16.1038V23.9788C4.61621 24.2108 4.7084 24.4334 4.87249 24.5975C5.03659 24.7616 5.25915 24.8538 5.49121 24.8538H22.9912C23.2233 24.8538 23.4458 24.7616 23.6099 24.5975C23.774 24.4334 23.8662 24.2108 23.8662 23.9788V16.1038C24.4096 15.6962 24.8506 15.1678 25.1543 14.5603C25.4581 13.9528 25.6162 13.283 25.6162 12.6038V10.8538C25.6161 10.7727 25.6047 10.6921 25.5823 10.6142ZM9.86621 12.6038C9.86605 13.0552 9.74949 13.4989 9.52779 13.8921C9.30609 14.2853 8.98675 14.6147 8.60059 14.8484C8.21444 15.0822 7.77453 15.2124 7.32335 15.2266C6.87218 15.2407 6.42498 15.1382 6.02496 14.9291C5.96409 14.8817 5.89714 14.8427 5.8259 14.8131C5.4552 14.5758 5.15013 14.2491 4.93874 13.863C4.72736 13.4769 4.61645 13.0439 4.61621 12.6038V11.7288H9.86621V12.6038ZM16.8662 12.6038C16.8662 13.3 16.5896 13.9676 16.0974 14.4599C15.6051 14.9522 14.9374 15.2288 14.2412 15.2288C13.545 15.2288 12.8773 14.9522 12.3851 14.4599C11.8928 13.9676 11.6162 13.3 11.6162 12.6038V11.7288H16.8662V12.6038ZM23.8662 12.6038C23.8659 13.044 23.7548 13.4771 23.5432 13.8632C23.3316 14.2493 23.0263 14.5759 22.6554 14.8131C22.5851 14.8428 22.5189 14.8814 22.4586 14.928C22.0586 15.1373 21.6114 15.24 21.1601 15.2261C20.7089 15.2121 20.2689 15.082 19.8826 14.8484C19.4963 14.6147 19.1768 14.2854 18.955 13.8922C18.7331 13.499 18.6165 13.0552 18.6162 12.6038V11.7288H23.8662V12.6038Z" fill="currentColor"/>
</svg>
