<svg width="29" height="29" viewBox="0 0 29 29" fill="none" xmlns="http://www.w3.org/2000/svg">
<path d="M17.8945 14.3538C17.8945 14.9595 17.7149 15.5516 17.3784 16.0552C17.0419 16.5588 16.5636 16.9513 16.004 17.1831C15.4444 17.4149 14.8286 17.4756 14.2346 17.3574C13.6405 17.2392 13.0948 16.9476 12.6665 16.5193C12.2382 16.091 11.9465 15.5453 11.8284 14.9512C11.7102 14.3572 11.7709 13.7414 12.0027 13.1818C12.2344 12.6222 12.627 12.1439 13.1306 11.8074C13.6342 11.4709 14.2263 11.2913 14.832 11.2913C15.6443 11.2913 16.4232 11.6139 16.9975 12.1882C17.5719 12.7626 17.8945 13.5415 17.8945 14.3538ZM6.08203 11.2913C5.47633 11.2913 4.88422 11.4709 4.3806 11.8074C3.87697 12.1439 3.48444 12.6222 3.25265 13.1818C3.02086 13.7414 2.96021 14.3572 3.07838 14.9512C3.19654 15.5453 3.48822 16.091 3.91652 16.5193C4.34482 16.9476 4.8905 17.2392 5.48457 17.3574C6.07864 17.4756 6.6944 17.4149 7.254 17.1831C7.8136 16.9513 8.2919 16.5588 8.62841 16.0552C8.96492 15.5516 9.14453 14.9595 9.14453 14.3538C9.14453 13.5415 8.82188 12.7626 8.24755 12.1882C7.67322 11.6139 6.89426 11.2913 6.08203 11.2913ZM23.582 11.2913C22.9763 11.2913 22.3842 11.4709 21.8806 11.8074C21.377 12.1439 20.9844 12.6222 20.7527 13.1818C20.5209 13.7414 20.4602 14.3572 20.5784 14.9512C20.6965 15.5453 20.9882 16.091 21.4165 16.5193C21.8448 16.9476 22.3905 17.2392 22.9846 17.3574C23.5786 17.4756 24.1944 17.4149 24.754 17.1831C25.3136 16.9513 25.7919 16.5588 26.1284 16.0552C26.4649 15.5516 26.6445 14.9595 26.6445 14.3538C26.6445 13.9516 26.5653 13.5534 26.4114 13.1818C26.2575 12.8102 26.0319 12.4726 25.7475 12.1882C25.4632 11.9039 25.1256 11.6783 24.754 11.5244C24.3824 11.3705 23.9842 11.2913 23.582 11.2913Z" fill="#13151A"/>
</svg>
