<svg viewBox="0 0 29 29" fill="none" xmlns="http://www.w3.org/2000/svg">
<path d="M26.3545 10.8538C26.3545 10.3896 26.1701 9.94451 25.8419 9.61632C25.5137 9.28813 25.0686 9.10376 24.6045 9.10376H21.1045V5.60376C21.1045 5.13963 20.9201 4.69451 20.5919 4.36632C20.2637 4.03813 19.8186 3.85376 19.3545 3.85376H5.35449C4.89036 3.85376 4.44524 4.03813 4.11706 4.36632C3.78887 4.69451 3.60449 5.13963 3.60449 5.60376V19.6038C3.60501 19.7684 3.65195 19.9295 3.73992 20.0686C3.8279 20.2078 3.95334 20.3193 4.10184 20.3903C4.25033 20.4614 4.41586 20.4891 4.5794 20.4703C4.74294 20.4515 4.89786 20.387 5.02637 20.2841L8.85449 17.1975V20.4788C8.85449 20.9429 9.03887 21.388 9.36706 21.7162C9.69524 22.0444 10.1404 22.2288 10.6045 22.2288H20.8409L24.9326 25.5341C25.0874 25.6593 25.2804 25.728 25.4795 25.7288C25.7116 25.7288 25.9341 25.6366 26.0982 25.4725C26.2623 25.3084 26.3545 25.0858 26.3545 24.8538V10.8538ZM21.7006 20.6734C21.5458 20.5482 21.3528 20.4795 21.1537 20.4788H10.6045V16.9788H19.3545C19.8186 16.9788 20.2637 16.7944 20.5919 16.4662C20.9201 16.138 21.1045 15.6929 21.1045 15.2288V10.8538H24.6045V23.0217L21.7006 20.6734Z" fill="currentColor"/>
</svg>
