<svg width="24" height="24" viewBox="0 0 24 24" fill="none" xmlns="http://www.w3.org/2000/svg">
<path fill-rule="evenodd" clip-rule="evenodd" d="M11.1911 3.41928C10.7797 2.5969 9.91063 1.96419 8.87651 2.10568C7.91565 2.23764 6.48564 2.61647 5.48765 3.73238C4.45303 4.88892 4.01349 6.68521 4.74154 9.35355C5.51224 12.1794 6.78319 14.8894 8.32709 17.059C9.86196 19.2151 11.7129 20.901 13.6723 21.5733C15.4259 22.1744 16.7661 21.9235 17.7446 21.2632C18.6874 20.6265 19.2057 19.6692 19.4736 19.0053C19.7737 18.2622 19.5755 17.4895 19.1841 16.9195L17.7405 14.8202C17.4216 14.3564 16.9624 14.007 16.4304 13.8231C15.8984 13.6393 15.3215 13.6307 14.7842 13.7986L12.7897 14.4218C12.7266 14.4436 12.6585 14.4463 12.5939 14.4296C12.5293 14.4129 12.4711 14.3776 12.4264 14.328C11.5388 13.2878 10.5438 11.8372 10.2729 10.3691C10.2645 10.3298 10.2705 10.2889 10.29 10.2537C10.583 9.76048 11.0883 9.20152 11.591 8.71231C12.442 7.8834 12.7646 6.56579 12.2032 5.44286L11.1911 3.41928Z" fill="black"/>
</svg>
