<svg width="24" height="24" viewBox="0 0 24 24" fill="none" xmlns="http://www.w3.org/2000/svg">
<path d="M8.87651 2.10568C9.91063 1.96419 10.7797 2.5969 11.1911 3.41928L12.2032 5.44286C12.7646 6.56579 12.442 7.8834 11.591 8.71231C11.0883 9.20152 10.583 9.76048 10.29 10.2537C10.2705 10.2889 10.2645 10.3298 10.2729 10.3691C10.5438 11.8372 11.5388 13.2878 12.4264 14.328C12.4711 14.3776 12.5293 14.4129 12.5939 14.4296C12.6585 14.4463 12.7266 14.4436 12.7897 14.4218L14.7842 13.7986C15.3215 13.6307 15.8984 13.6393 16.4304 13.8231C16.9624 14.007 17.4216 14.3564 17.7405 14.8202L19.1841 16.9195C19.5755 17.4895 19.7737 18.2622 19.4736 19.0053C19.2057 19.6692 18.6874 20.6265 17.7446 21.2632C16.7661 21.9235 15.4259 22.1744 13.6723 21.5733C11.7129 20.901 9.86196 19.2151 8.32709 17.059C6.78319 14.8894 5.51224 12.1794 4.74154 9.35355C4.01349 6.68521 4.45303 4.88892 5.48765 3.73238C6.48564 2.61647 7.91565 2.23764 8.87651 2.10568ZM10.0692 3.98024C9.83988 3.52214 9.43095 3.29585 9.04711 3.34853C8.19362 3.46594 7.12488 3.78355 6.42292 4.5688C5.7576 5.31291 5.29698 6.6235 5.95127 9.0234C6.68635 11.7168 7.89658 14.2908 9.34917 16.3315C10.8108 18.3852 12.4716 19.8352 14.0792 20.3867C15.5117 20.8779 16.4325 20.635 17.0426 20.2236C17.6879 19.7876 18.0847 19.0946 18.3105 18.5357C18.4139 18.2798 18.3692 17.9486 18.1505 17.6305L16.7069 15.5312C16.5399 15.2882 16.2994 15.1051 16.0208 15.0088C15.7421 14.9125 15.4399 14.9079 15.1585 14.9958L13.164 15.619C12.5679 15.8051 11.8966 15.6391 11.4726 15.1423C10.5489 14.06 9.37175 12.4002 9.03908 10.5964C8.97549 10.2583 9.03683 9.90869 9.21169 9.61246C9.59202 8.97322 10.1941 8.32144 10.7154 7.81366C11.2247 7.31793 11.3692 6.58034 11.0812 6.00383L10.0692 3.98074V3.98024Z" fill="black"/>
</svg>
