<svg width="24" height="24" viewBox="0 0 24 24" fill="none" xmlns="http://www.w3.org/2000/svg">
<path fill-rule="evenodd" clip-rule="evenodd" d="M4.79423 3.25C3.37291 3.25 2.2207 4.40221 2.2207 5.82353V15.0882C2.2207 16.5096 3.37291 17.6618 4.79423 17.6618H16.4766L20.9793 20.6636C21.1373 20.7688 21.3403 20.7787 21.5077 20.6891C21.675 20.5995 21.7795 20.4251 21.7795 20.2353V5.82353C21.7795 4.40221 20.6273 3.25 19.206 3.25H4.79423Z" fill="black"/>
<path fill-rule="evenodd" clip-rule="evenodd" d="M6.8532 9.94115C6.56894 9.94115 6.33849 10.1716 6.33849 10.4559C6.33849 10.7401 6.56894 10.9706 6.8532 10.9706C7.13746 10.9706 7.36791 10.7401 7.36791 10.4559C7.36791 10.1716 7.13746 9.94115 6.8532 9.94115ZM5.30908 10.4559C5.30908 9.60307 6.00041 8.91174 6.8532 8.91174C7.70599 8.91174 8.39732 9.60307 8.39732 10.4559C8.39732 11.3087 7.70599 12 6.8532 12C6.00041 12 5.30908 11.3087 5.30908 10.4559Z" fill="white"/>
<path fill-rule="evenodd" clip-rule="evenodd" d="M12.0002 9.94115C11.7159 9.94115 11.4855 10.1716 11.4855 10.4559C11.4855 10.7401 11.7159 10.9706 12.0002 10.9706C12.2844 10.9706 12.5149 10.7401 12.5149 10.4559C12.5149 10.1716 12.2844 9.94115 12.0002 9.94115ZM10.4561 10.4559C10.4561 9.60307 11.1474 8.91174 12.0002 8.91174C12.853 8.91174 13.5443 9.60307 13.5443 10.4559C13.5443 11.3087 12.853 12 12.0002 12C11.1474 12 10.4561 11.3087 10.4561 10.4559Z" fill="white"/>
<path fill-rule="evenodd" clip-rule="evenodd" d="M17.1471 9.94115C16.8629 9.94115 16.6324 10.1716 16.6324 10.4559C16.6324 10.7401 16.8629 10.9706 17.1471 10.9706C17.4314 10.9706 17.6619 10.7401 17.6619 10.4559C17.6619 10.1716 17.4314 9.94115 17.1471 9.94115ZM15.603 10.4559C15.603 9.60307 16.2944 8.91174 17.1471 8.91174C17.9999 8.91174 18.6913 9.60307 18.6913 10.4559C18.6913 11.3087 17.9999 12 17.1471 12C16.2944 12 15.603 11.3087 15.603 10.4559Z" fill="white"/>
</svg>
