<svg width="24" height="24" viewBox="0 0 24 24" fill="none" xmlns="http://www.w3.org/2000/svg">
<path d="M16.4766 17.6618L16.7817 17.2041C16.6914 17.1439 16.5852 17.1118 16.4766 17.1118V17.6618ZM20.9793 20.6636L21.2844 20.2059L21.2844 20.2059L20.9793 20.6636ZM2.7707 5.82353C2.7707 4.70596 3.67667 3.8 4.79423 3.8V2.7C3.06915 2.7 1.6707 4.09845 1.6707 5.82353H2.7707ZM2.7707 15.0882V5.82353H1.6707V15.0882H2.7707ZM4.79423 17.1118C3.67667 17.1118 2.7707 16.2058 2.7707 15.0882H1.6707C1.6707 16.8133 3.06915 18.2118 4.79423 18.2118V17.1118ZM16.4766 17.1118H4.79423V18.2118H16.4766V17.1118ZM21.2844 20.2059L16.7817 17.2041L16.1715 18.1194L20.6742 21.1212L21.2844 20.2059ZM21.2482 20.2042C21.2596 20.198 21.2736 20.1987 21.2844 20.2059L20.6742 21.1212C21.0009 21.339 21.421 21.3593 21.7672 21.174L21.2482 20.2042ZM21.2295 20.2353C21.2295 20.2223 21.2367 20.2103 21.2482 20.2042L21.7672 21.174C22.1134 20.9887 22.3295 20.628 22.3295 20.2353H21.2295ZM21.2295 5.82353V20.2353H22.3295V5.82353H21.2295ZM19.206 3.8C20.3236 3.8 21.2295 4.70597 21.2295 5.82353H22.3295C22.3295 4.09845 20.9311 2.7 19.206 2.7V3.8ZM4.79423 3.8H19.206V2.7H4.79423V3.8Z" fill="black"/>
<path fill-rule="evenodd" clip-rule="evenodd" d="M6.8532 9.94115C6.56894 9.94115 6.33849 10.1716 6.33849 10.4559C6.33849 10.7401 6.56894 10.9706 6.8532 10.9706C7.13746 10.9706 7.36791 10.7401 7.36791 10.4559C7.36791 10.1716 7.13746 9.94115 6.8532 9.94115ZM5.30908 10.4559C5.30908 9.60307 6.00041 8.91174 6.8532 8.91174C7.70599 8.91174 8.39732 9.60307 8.39732 10.4559C8.39732 11.3087 7.70599 12 6.8532 12C6.00041 12 5.30908 11.3087 5.30908 10.4559Z" fill="black"/>
<path fill-rule="evenodd" clip-rule="evenodd" d="M12.0002 9.94115C11.7159 9.94115 11.4855 10.1716 11.4855 10.4559C11.4855 10.7401 11.7159 10.9706 12.0002 10.9706C12.2844 10.9706 12.5149 10.7401 12.5149 10.4559C12.5149 10.1716 12.2844 9.94115 12.0002 9.94115ZM10.4561 10.4559C10.4561 9.60307 11.1474 8.91174 12.0002 8.91174C12.853 8.91174 13.5443 9.60307 13.5443 10.4559C13.5443 11.3087 12.853 12 12.0002 12C11.1474 12 10.4561 11.3087 10.4561 10.4559Z" fill="black"/>
<path fill-rule="evenodd" clip-rule="evenodd" d="M17.1471 9.94115C16.8629 9.94115 16.6324 10.1716 16.6324 10.4559C16.6324 10.7401 16.8629 10.9706 17.1471 10.9706C17.4314 10.9706 17.6619 10.7401 17.6619 10.4559C17.6619 10.1716 17.4314 9.94115 17.1471 9.94115ZM15.603 10.4559C15.603 9.60307 16.2944 8.91174 17.1471 8.91174C17.9999 8.91174 18.6913 9.60307 18.6913 10.4559C18.6913 11.3087 17.9999 12 17.1471 12C16.2944 12 15.603 11.3087 15.603 10.4559Z" fill="black"/>
</svg>
