<svg width="24" height="25" viewBox="0 0 24 25" fill="none" xmlns="http://www.w3.org/2000/svg">
<path d="M20.7432 9.81239L20.7425 9.81171L13.2427 3.0382L20.7432 9.81239ZM20.7432 9.81239C21.1862 10.211 21.45 10.8079 21.45 11.4493V20.9185C21.45 21.3363 21.2946 21.7301 21.0286 22.0149C20.7637 22.2984 20.4128 22.45 20.0556 22.45H15.6111C15.2538 22.45 14.9029 22.2984 14.6381 22.0149C14.3721 21.7301 14.2167 21.3363 14.2167 20.9185V17.1609C14.2167 16.7901 14.0794 16.4275 13.8245 16.1546C13.5684 15.8805 13.2128 15.7188 12.8333 15.7188H11.1667C10.7872 15.7188 10.4316 15.8805 10.1755 16.1546C9.9206 16.4275 9.78333 16.7901 9.78333 17.1609V20.9185C9.78333 21.3363 9.62794 21.7301 9.36191 22.0149C9.09705 22.2984 8.74617 22.45 8.38889 22.45H3.94444C3.76673 22.45 3.58976 22.4126 3.42328 22.3388C3.25669 22.2649 3.10279 22.1555 2.97143 22.0149C2.84 21.8742 2.73392 21.7052 2.66095 21.5166C2.58797 21.328 2.55 21.1246 2.55 20.9185V11.4481C2.55 10.8082 2.81361 10.2109 3.25725 9.81078L3.2575 9.81055M20.7432 9.81239L3.2575 9.81055M3.2575 9.81055L10.7573 3.0382C10.7574 3.03815 10.7574 3.03809 10.7575 3.03804M3.2575 9.81055L10.7575 3.03804M10.7575 3.03804C11.1106 2.71956 11.551 2.55 12 2.55M10.7575 3.03804L12 2.55M12 2.55C12.449 2.55 12.8894 2.71955 13.2425 3.03801L12 2.55Z" stroke="black" stroke-width="1.1"/>
</svg>
