<svg width="24" height="24" viewBox="0 0 24 24" fill="none" xmlns="http://www.w3.org/2000/svg">
<path fill-rule="evenodd" clip-rule="evenodd" d="M21.1111 8.90354L13.6111 2.12984C13.1603 1.72308 12.5896 1.5 12 1.5C11.4104 1.5 10.8397 1.72308 10.3889 2.12984L2.88889 8.90235C2.32444 9.41142 2 10.1596 2 10.9481V20.4185C2 20.6919 2.05029 20.9625 2.14801 21.2151C2.24573 21.4676 2.38896 21.6971 2.56951 21.8904C2.75007 22.0836 2.96443 22.237 3.20034 22.3416C3.43625 22.4462 3.6891 22.5 3.94444 22.5H8.38889C8.90459 22.5 9.39917 22.2807 9.76382 21.8904C10.1285 21.5 10.3333 20.9706 10.3333 20.4185V16.6609C10.3333 16.4243 10.4211 16.1974 10.5774 16.0301C10.7337 15.8628 10.9457 15.7688 11.1667 15.7688H12.8333C13.0543 15.7688 13.2663 15.8628 13.4226 16.0301C13.5789 16.1974 13.6667 16.4243 13.6667 16.6609V20.4185C13.6667 20.9706 13.8715 21.5 14.2362 21.8904C14.6008 22.2807 15.0954 22.5 15.6111 22.5H20.0556C20.5713 22.5 21.0658 22.2807 21.4305 21.8904C21.7951 21.5 22 20.9706 22 20.4185V10.9493C22 10.1596 21.6756 9.41142 21.1111 8.90354ZM11.1257 2.94657L3.6261 9.71875C3.30328 10.0099 3.1 10.4568 3.1 10.9481V20.4185C3.1 20.5574 3.12564 20.6934 3.17389 20.8181C3.22211 20.9427 3.29103 21.0513 3.37334 21.1394C3.4555 21.2274 3.54894 21.2928 3.64622 21.336C3.74326 21.379 3.84436 21.4 3.94444 21.4H8.38889C8.58774 21.4 8.79494 21.3161 8.95999 21.1394C9.12741 20.9602 9.23333 20.7021 9.23333 20.4185V16.6609C9.23333 16.1558 9.42007 15.6576 9.77359 15.2792C10.1295 14.8982 10.6288 14.6688 11.1667 14.6688H12.8333C13.3712 14.6688 13.8705 14.8982 14.2264 15.2792C14.5799 15.6576 14.7667 16.1558 14.7667 16.6609V20.4185C14.7667 20.7021 14.8726 20.9602 15.04 21.1394C15.2051 21.3161 15.4123 21.4 15.6111 21.4H20.0556C20.2544 21.4 20.4616 21.3161 20.6267 21.1394C20.7941 20.9602 20.9 20.7021 20.9 20.4185V10.9493C20.9 10.4563 20.6969 10.0106 20.3753 9.72125L20.3738 9.71988L12.8743 2.94657C12.619 2.71642 12.3084 2.6 12 2.6C11.6916 2.6 11.3811 2.71638 11.1257 2.94657Z" fill="black"/>
</svg>
