<svg width="24" height="24" viewBox="0 0 24 24" fill="none" xmlns="http://www.w3.org/2000/svg">
<path d="M10.3889 2.12984C10.8397 1.72308 11.4104 1.5 12 1.5C12.5896 1.5 13.1603 1.72308 13.6111 2.12984L21.1111 8.90354C21.6756 9.41142 22 10.1596 22 10.9493V20.4185C22 20.9706 21.7951 21.5 21.4305 21.8904C21.0658 22.2807 20.5713 22.5 20.0556 22.5H15.6111C15.0954 22.5 14.6008 22.2807 14.2362 21.8904C13.8715 21.5 13.6667 20.9706 13.6667 20.4185V16.6609C13.6667 16.4243 13.5789 16.1974 13.4226 16.0301C13.2663 15.8628 13.0543 15.7688 12.8333 15.7688H11.1667C10.9457 15.7688 10.7337 15.8628 10.5774 16.0301C10.4211 16.1974 10.3333 16.4243 10.3333 16.6609V20.4185C10.3333 20.9706 10.1285 21.5 9.76382 21.8904C9.39917 22.2807 8.90459 22.5 8.38889 22.5H3.94444C3.6891 22.5 3.43625 22.4462 3.20034 22.3416C2.96443 22.237 2.75007 22.0836 2.56951 21.8904C2.38896 21.6971 2.24573 21.4676 2.14801 21.2151C2.05029 20.9625 2 20.6919 2 20.4185V10.9481C2 10.1596 2.32444 9.41142 2.88889 8.90235L10.3889 2.12984Z" fill="black"/>
</svg>
