<svg width="24" height="24" viewBox="0 0 24 24" fill="none" xmlns="http://www.w3.org/2000/svg">
<circle cx="12" cy="12" r="8.95" stroke="black" stroke-width="1.1"/>
<path d="M11.9999 16.2674C12.3805 16.2674 12.689 16.576 12.689 16.9565C12.689 17.3371 12.3805 17.6457 11.9999 17.6457C11.6193 17.6457 11.3107 17.3371 11.3107 16.9565C11.3107 16.576 11.6193 16.2674 11.9999 16.2674Z" stroke="black" stroke-width="1.1"/>
<path d="M11.9999 11.3109C12.3805 11.3109 12.689 11.6194 12.689 12C12.689 12.3806 12.3805 12.6891 11.9999 12.6891C11.6193 12.6891 11.3107 12.3806 11.3107 12C11.3107 11.6194 11.6193 11.3109 11.9999 11.3109Z" stroke="black" stroke-width="1.1"/>
<path d="M11.9999 6.35445C12.3805 6.35445 12.689 6.66299 12.689 7.04358C12.689 7.42418 12.3805 7.73272 11.9999 7.73271C11.6193 7.73271 11.3107 7.42418 11.3107 7.04358C11.3107 6.66299 11.6193 6.35445 11.9999 6.35445Z" stroke="black" stroke-width="1.1"/>
</svg>
