<svg width="28" height="28" viewBox="0 0 28 28" fill="none" xmlns="http://www.w3.org/2000/svg">
<circle cx="14" cy="14" r="13.5333" fill="white" stroke="#9C9EA5" stroke-width="0.933333"/>
<path d="M11.2608 10.0231V10.6677C11.49 10.6677 11.702 10.546 11.8175 10.3479L11.2608 10.0231ZM12.3437 8.16669V7.52209C12.1144 7.52209 11.9024 7.64386 11.7869 7.84189L12.3437 8.16669ZM16.366 8.16669L16.9227 7.84189C16.8072 7.64386 16.5952 7.52209 16.366 7.52209V8.16669ZM17.4489 10.0231L16.8921 10.3479C17.0076 10.546 17.2196 10.6677 17.4489 10.6677V10.0231ZM8.81128 17.913V11.5702H7.52209V17.913H8.81128ZM9.71372 10.6677H11.2608V9.37853H9.71372V10.6677ZM11.8175 10.3479L12.9005 8.49148L11.7869 7.84189L10.704 9.69833L11.8175 10.3479ZM12.3437 8.81128H16.366V7.52209H12.3437V8.81128ZM15.8092 8.49148L16.8921 10.3479L18.0057 9.69833L16.9227 7.84189L15.8092 8.49148ZM17.4489 10.6677H18.9959V9.37853H17.4489V10.6677ZM19.8983 11.5702V17.913H21.1875V11.5702H19.8983ZM19.8983 17.913C19.8983 18.4114 19.4943 18.8154 18.9959 18.8154V20.1046C20.2063 20.1046 21.1875 19.1234 21.1875 17.913H19.8983ZM18.9959 10.6677C19.4943 10.6677 19.8983 11.0718 19.8983 11.5702H21.1875C21.1875 10.3598 20.2063 9.37853 18.9959 9.37853V10.6677ZM8.81128 11.5702C8.81128 11.0718 9.21532 10.6677 9.71372 10.6677V9.37853C8.50332 9.37853 7.52209 10.3598 7.52209 11.5702H8.81128ZM9.71372 18.8154C9.21532 18.8154 8.81128 18.4114 8.81128 17.913H7.52209C7.52209 19.1234 8.50332 20.1046 9.71372 20.1046V18.8154ZM16.0308 14.3548C16.0308 15.2804 15.2804 16.0308 14.3548 16.0308V17.32C15.9924 17.32 17.32 15.9924 17.32 14.3548H16.0308ZM14.3548 16.0308C13.4292 16.0308 12.6789 15.2804 12.6789 14.3548H11.3897C11.3897 15.9924 12.7172 17.32 14.3548 17.32V16.0308ZM12.6789 14.3548C12.6789 13.4292 13.4292 12.6789 14.3548 12.6789V11.3897C12.7172 11.3897 11.3897 12.7172 11.3897 14.3548H12.6789ZM14.3548 12.6789C15.2804 12.6789 16.0308 13.4292 16.0308 14.3548H17.32C17.32 12.7172 15.9924 11.3897 14.3548 11.3897V12.6789ZM18.9959 18.8154H9.71372V20.1046H18.9959V18.8154Z" fill="#505154"/>
</svg>
