<svg width="24" height="25" viewBox="0 0 24 25" fill="none" xmlns="http://www.w3.org/2000/svg">
<path d="M21.3579 1.18021L19.789 10.9622H11.7732L11.5077 11.1481L9.01774 12.9107L9.67255 8.82976L10.8989 1.18108H21.3552L21.3579 1.18021ZM22.5427 0.168823H10.0389L8.67531 8.66693L7.63916 15.1263L12.0944 11.9736H20.6509L22.5445 0.168823H22.5427Z" fill="#FCFCFE"/>
<path d="M15.3108 17.7182L14.2915 11.5065H13.2668L14.3118 17.8774L14.9666 21.9584L12.4758 20.1957L12.2103 20.0099H4.19712L2.62827 10.2287H8.80365L8.9806 9.21649H1.43726L3.33085 21.0221H11.8873L16.3426 24.1749L15.3108 17.7182Z" fill="#FCFCFE"/>
<path d="M16.3841 8.25333L16.0815 7.39948H14.4003L14.0835 8.25333H12.8022L14.5923 3.34064H15.9196L17.6795 8.25333H16.3841ZM15.2497 4.86525L14.741 6.42611H15.7497L15.2497 4.86525Z" fill="#FCFCFE"/>
</svg>
