<svg width="26" height="25" viewBox="0 0 26 25" fill="none" xmlns="http://www.w3.org/2000/svg">
<g id="Group 19">
<path id="Vector 8 (Stroke)" fill-rule="evenodd" clip-rule="evenodd" d="M6.72825 1.37721L21.1111 15.7601L20.74 16.3033L23.7978 20.4583L21.8327 23.3763L17.8232 20.5716L17.3453 21.271L2.85972 6.7855L6.72825 1.37721ZM18.3874 19.7459L21.5718 21.9734L22.575 20.4839L20.1422 17.1781L18.3874 19.7459ZM4.16625 6.67781L17.1998 19.7114L19.8175 15.8807L6.85529 2.91847L4.16625 6.67781Z" fill="#FCFCFE"/>
<path id="Vector 9 (Stroke)" fill-rule="evenodd" clip-rule="evenodd" d="M4.2356 0.178459L6.47032 2.39363L5.76321 3.10074L4.37981 1.73688L2.79674 4.04659L4.13252 5.36283L3.42542 6.06994L1.5023 4.16637L4.2356 0.178459Z" fill="#FCFCFE"/>
<path id="&#237;&#140;&#168;&#236;&#138;&#164; 2580" d="M22.3366 20.9975L21.6809 21.8514L23.2411 23.4307L23.84 22.5618L22.3366 20.9975Z" fill="#FCFCFE"/>
</g>
</svg>
