<svg width="25" height="24" viewBox="0 0 25 24" fill="none" xmlns="http://www.w3.org/2000/svg">
<path d="M8.23194 11.4922H0.5V12.5076H8.23194V11.4922Z" fill="#FCFCFE"/>
<path d="M24.5 11.4922H16.7681V12.5076H24.5V11.4922Z" fill="#FCFCFE"/>
<path d="M13.0074 16.2656H11.9919V23.9976H13.0074V16.2656Z" fill="#FCFCFE"/>
<path d="M13.0074 0H11.9919V7.73194H13.0074V0Z" fill="#FCFCFE"/>
<path d="M15.8787 14.6577L15.1614 15.375L20.6279 20.8415L21.3451 20.1242L15.8787 14.6577Z" fill="#FCFCFE"/>
<path d="M4.37279 3.14991L3.65552 3.86719L9.122 9.33367L9.83928 8.6164L4.37279 3.14991Z" fill="#FCFCFE"/>
<path d="M9.12283 14.6655L3.65552 20.1328L4.3729 20.8502L9.84021 15.3829L9.12283 14.6655Z" fill="#FCFCFE"/>
<path d="M20.6287 3.15769L15.1614 8.625L15.8788 9.34238L21.3461 3.87507L20.6287 3.15769Z" fill="#FCFCFE"/>
<path d="M12.4454 11.0701C12.6845 11.0703 12.9137 11.1654 13.0828 11.3345C13.2519 11.5035 13.347 11.7328 13.3472 11.9719C13.347 12.2109 13.2519 12.4401 13.0828 12.609C12.9137 12.7779 12.6844 12.8728 12.4454 12.8728C12.2064 12.8728 11.9771 12.7779 11.808 12.609C11.6389 12.4401 11.5438 12.2109 11.5436 11.9719C11.5438 11.7328 11.6389 11.5035 11.808 11.3345C11.9771 11.1654 12.2063 11.0703 12.4454 11.0701ZM12.4454 10.0547C11.9372 10.0547 11.4497 10.2566 11.0903 10.6159C10.731 10.9753 10.5291 11.4628 10.5291 11.971C10.5291 12.4793 10.731 12.9667 11.0903 13.3261C11.4497 13.6854 11.9372 13.8874 12.4454 13.8874C12.9536 13.8874 13.4411 13.6854 13.8005 13.3261C14.1598 12.9667 14.3617 12.4793 14.3617 11.971C14.3615 11.4629 14.1595 10.9755 13.8002 10.6162C13.4409 10.2569 12.9536 10.0549 12.4454 10.0547Z" fill="#FCFCFE"/>
</svg>
