<svg width="20" height="20" viewBox="0 0 20 20" fill="none" xmlns="http://www.w3.org/2000/svg">
<path d="M10 7.5H5C3.89543 7.5 3 8.39543 3 9.5V15.5C3 16.6046 3.89543 17.5 5 17.5H15C16.1046 17.5 17 16.6046 17 15.5V9.5C17 8.39543 16.1046 7.5 15 7.5H10ZM10 7.5V5.5" stroke="#7D828D" stroke-linecap="round" stroke-linejoin="round"/>
<path d="M3 12.5L4.75 11C5.75702 10.1368 7.24298 10.1368 8.25 11V11C9.25702 11.8632 10.743 11.8632 11.75 11V11C12.757 10.1368 14.243 10.1368 15.25 11L17 12.5" stroke="#7D828D" stroke-linecap="round"/>
<path d="M10.5 3.25C10.5 3.38807 10.2761 3.5 10 3.5C9.72386 3.5 9.5 3.38807 9.5 3.25C9.5 3.11193 10 2 10 2C10 2 10.5 3.11193 10.5 3.25Z" stroke="#7D828D" stroke-linecap="round" stroke-linejoin="round"/>
</svg>
