<svg width="24" height="24" viewBox="0 0 24 24" fill="none" xmlns="http://www.w3.org/2000/svg">
<circle cx="12" cy="12" r="11.5" fill="white" stroke="#E0E5EB"/>
<path d="M10.326 8H8.13346C7.38673 8 7.01308 8 6.72786 8.14532C6.47698 8.27316 6.27316 8.47698 6.14532 8.72786C6 9.01308 6 9.38673 6 10.1335V13.8668C6 14.6135 6 15.9864 6.14532 16.2716C6.27316 16.5225 6.47698 16.727 6.72786 16.8548C7.0128 17 7.386 17 8.13127 17H15.8687C16.614 17 16.9867 17 17.2716 16.8548C17.5225 16.727 17.727 16.5225 17.8548 16.2716C18 15.9867 18 14.614 18 13.8687V10.1313C18 9.386 18 9.0128 17.8548 8.72786C17.727 8.47698 17.5225 8.27316 17.2716 8.14532C16.9864 8 16.6135 8 15.8668 8H13.6739M10.326 8H10.3672M10.326 8C10.3343 8 10.3431 8 10.3524 8L10.3672 8M10.326 8C10.2552 7.99997 10.2156 7.9996 10.1842 7.99609C9.79252 7.95224 9.52385 7.57938 9.60612 7.19389C9.61378 7.15802 9.62891 7.11263 9.65887 7.02274L9.66016 7.01894C9.69438 6.91628 9.71149 6.86496 9.73039 6.81966C9.92391 6.35593 10.3621 6.04055 10.8633 6.00361C10.9122 6 10.966 6 11.0742 6H12.9257C13.0339 6 13.0882 6 13.1371 6.00361C13.6382 6.04055 14.076 6.35593 14.2695 6.81966C14.2884 6.86495 14.3056 6.91623 14.3398 7.01888C14.3707 7.11133 14.3861 7.15757 14.3938 7.19396C14.4761 7.57945 14.2079 7.95224 13.8161 7.99609C13.7848 7.9996 13.7448 7.99997 13.6739 8M10.3672 8H13.6326M13.6326 8H13.6739M13.6326 8L13.6475 8C13.6567 8 13.6655 8 13.6739 8" stroke="#AFBAD0" stroke-width="1.4" stroke-linecap="round" stroke-linejoin="round"/>
<circle cx="12" cy="12.5" r="2" stroke="#AFBAD0" stroke-width="1.4" stroke-linecap="round" stroke-linejoin="round"/>
</svg>
