<svg width="21" height="21" viewBox="0 0 21 21" fill="none" xmlns="http://www.w3.org/2000/svg">
<path fill-rule="evenodd" clip-rule="evenodd" d="M10.5 0C4.70101 0 0 4.70101 0 10.5C0 16.299 4.70101 21 10.5 21H19.2661C20.2237 21 21 20.2237 21 19.2661V10.5C21 4.70101 16.299 0 10.5 0ZM5.25 11.5C5.94036 11.5 6.5 10.9404 6.5 10.25C6.5 9.55964 5.94036 9 5.25 9C4.55964 9 4 9.55964 4 10.25C4 10.9404 4.55964 11.5 5.25 11.5ZM11.5 10.25C11.5 10.9404 10.9404 11.5 10.25 11.5C9.55964 11.5 9 10.9404 9 10.25C9 9.55964 9.55964 9 10.25 9C10.9404 9 11.5 9.55964 11.5 10.25ZM15.25 11.5C15.9404 11.5 16.5 10.9404 16.5 10.25C16.5 9.55964 15.9404 9 15.25 9C14.5596 9 14 9.55964 14 10.25C14 10.9404 14.5596 11.5 15.25 11.5Z" fill="#E0E5EB"/>
</svg>
