<svg width="20" height="20" viewBox="0 0 20 20" fill="none" xmlns="http://www.w3.org/2000/svg">
<path d="M9.304 17.32C5.8 17.32 3 15.08 3 10.92C3 6.136 6.488 3 10.456 3C14.056 3 16.328 5.4 16.328 8.92C16.328 12.04 14.376 13.672 12.76 13.672C11.784 13.672 11.032 13.224 10.92 12.312H10.872C10.296 13 9.48 13.544 8.696 13.544C7.48 13.544 6.552 12.664 6.552 11C6.552 9.128 7.88 6.856 9.992 6.856C10.616 6.856 11.096 7.144 11.416 7.736H11.448L11.656 7H12.616L11.912 10.568C11.832 11.032 11.784 11.352 11.784 11.528C11.784 11.784 11.848 12.04 11.976 12.28C12.088 12.536 12.392 12.664 12.888 12.664C14.024 12.664 15.304 11.304 15.304 8.984C15.304 6.088 13.592 3.976 10.344 3.976C7.16 3.976 4.088 6.696 4.088 10.872C4.088 14.36 6.36 16.344 9.4 16.344C10.488 16.344 11.496 16.008 12.312 15.544L12.696 16.408C11.656 17.032 10.536 17.32 9.304 17.32ZM8.984 12.536C9.48 12.536 10.008 12.232 10.632 11.48L11.144 8.632C10.808 8.072 10.488 7.88 9.992 7.88C8.584 7.88 7.72 9.576 7.72 10.92C7.72 12.072 8.264 12.536 8.984 12.536Z" fill="#7D828D"/>
</svg>
