<svg width="24" height="24" viewBox="0 0 24 24" fill="none" xmlns="http://www.w3.org/2000/svg">
<path d="M10.5 9.5C10.5 10.3284 9.82843 11 9 11C8.17157 11 7.5 10.3284 7.5 9.5C7.5 8.67157 8.17157 8 9 8C9.82843 8 10.5 8.67157 10.5 9.5Z" fill="#AFBAD0"/>
<path d="M16.5 9.5C16.5 10.3284 15.8284 11 15 11C14.1716 11 13.5 10.3284 13.5 9.5C13.5 8.67157 14.1716 8 15 8C15.8284 8 16.5 8.67157 16.5 9.5Z" fill="#AFBAD0"/>
<path fill-rule="evenodd" clip-rule="evenodd" d="M8.7594 13.521C8.65949 13.1389 8.30581 12.9185 7.9664 13.0282C7.62503 13.1385 7.42737 13.541 7.5249 13.9272L8.143 13.7274C7.5249 13.9272 7.52502 13.9277 7.52514 13.9281L7.52539 13.9291L7.52594 13.9313L7.52726 13.9364L7.53072 13.9493C7.5334 13.9591 7.53686 13.9714 7.54116 13.986C7.54974 14.0151 7.5617 14.0535 7.57755 14.0997C7.6092 14.1921 7.65665 14.3166 7.72422 14.4626C7.85912 14.7539 8.07639 15.1351 8.41163 15.5143C9.09604 16.2886 10.2244 17 12 17C13.7756 17 14.904 16.2886 15.5884 15.5143C15.9236 15.1351 16.1409 14.7539 16.2758 14.4626C16.3433 14.3166 16.3908 14.1921 16.4225 14.0997C16.4383 14.0535 16.4503 14.0151 16.4588 13.986C16.4631 13.9714 16.4666 13.9591 16.4693 13.9493L16.4727 13.9364L16.4741 13.9313L16.4746 13.9291L16.4749 13.9281C16.475 13.9277 16.4751 13.9272 15.857 13.7274L16.4751 13.9272C16.5726 13.541 16.375 13.1385 16.0336 13.0282C15.6942 12.9185 15.3405 13.1389 15.2406 13.521C15.2407 13.5206 15.2408 13.5203 15.2408 13.5202L15.2403 13.5222L15.2397 13.5245L15.2393 13.5259L15.2391 13.5268C15.2396 13.5248 15.2401 13.5229 15.2406 13.521C15.2403 13.522 15.2399 13.5236 15.2392 13.526C15.2368 13.5342 15.2318 13.5505 15.2237 13.5739C15.2077 13.6207 15.1798 13.695 15.1369 13.7877C15.0508 13.9736 14.9065 14.2288 14.6793 14.4859C14.2387 14.9843 13.4385 15.5455 12 15.5455C10.5615 15.5455 9.76129 14.9843 9.32074 14.4859C9.0935 14.2288 8.94918 13.9736 8.86311 13.7877C8.82019 13.695 8.7923 13.6207 8.77625 13.5739C8.76824 13.5505 8.76325 13.5342 8.76085 13.526C8.76014 13.5236 8.75966 13.522 8.7594 13.521" fill="#AFBAD0"/>
<circle cx="12" cy="12" r="9" stroke="#AFBAD0" stroke-width="1.5" stroke-linecap="round"/>
</svg>
