<svg width="21" height="20" viewBox="0 0 21 20" fill="none" xmlns="http://www.w3.org/2000/svg">
<path fill-rule="evenodd" clip-rule="evenodd" d="M0.833374 10C0.833374 4.47715 5.31053 0 10.8334 0C16.3562 0 20.8334 4.47715 20.8334 10V18.1818C20.8334 19.186 20.0193 20 19.0152 20H10.8334C5.31053 20 0.833374 15.5228 0.833374 10ZM14.9896 13.1074C13.4271 13.1074 12.4701 12.0332 12.4701 10.3828C12.4701 8.75195 13.4467 7.62891 14.9213 7.62891C16.1322 7.62891 17.2748 8.38086 17.2748 10.2949V10.666H13.5052C13.5345 11.6719 14.1254 12.248 14.9994 12.248C15.5951 12.248 15.976 11.9941 16.1517 11.6719H17.2064C16.972 12.5312 16.1517 13.1074 14.9896 13.1074ZM13.515 9.88477H16.2494C16.2494 9.07422 15.7318 8.48828 14.931 8.48828C14.0961 8.48828 13.5541 9.13281 13.515 9.88477ZM4.46814 7.69727V13H5.51306V9.72852C5.51306 9.01562 6.01111 8.52734 6.59705 8.52734C7.16345 8.52734 7.56384 8.9082 7.56384 9.48438V13H8.599V9.62109C8.599 8.98633 8.97986 8.52734 9.65369 8.52734C10.2006 8.52734 10.6498 8.83008 10.6498 9.54297V13H11.6947V9.44531C11.6947 8.23438 11.0111 7.62891 10.0541 7.62891C9.28259 7.62891 8.71619 7.99023 8.46228 8.56641H8.40369C8.17908 7.98047 7.68103 7.62891 6.97791 7.62891C6.27478 7.62891 5.7572 7.9707 5.53259 8.56641H5.474V7.69727H4.46814Z" fill="#676773"/>
</svg>
