<svg width="20" height="20" viewBox="0 0 20 20" fill="none" xmlns="http://www.w3.org/2000/svg">
<path fill-rule="evenodd" clip-rule="evenodd" d="M17.9845 6.7192L18.3507 6.92293L18.3524 6.92378C18.9483 7.25526 19.2464 7.42111 19.4638 7.65685C19.6562 7.86561 19.8022 8.11328 19.8917 8.38277C19.9928 8.6874 19.9937 9.02871 19.9952 9.71188L19.9965 10.2861V10.2861C19.9981 10.9658 19.9988 11.3077 19.8985 11.6126C19.8093 11.8839 19.6632 12.1327 19.4697 12.3427C19.2508 12.5801 18.9495 12.7472 18.348 13.0805L17.9864 13.2809L17.9845 13.2818L17.9844 13.2819C17.9295 13.3123 17.9019 13.3276 17.8751 13.3435C17.6003 13.5074 17.3688 13.7349 17.2001 14.0068C17.1834 14.0337 17.1668 14.0615 17.1346 14.1171L17.1344 14.1175C17.1025 14.1728 17.0863 14.2008 17.0714 14.2286C16.9203 14.5104 16.839 14.8247 16.8343 15.1445C16.8338 15.1761 16.834 15.2081 16.835 15.2724L16.8424 15.7119C16.8538 16.3858 16.8595 16.7252 16.7647 17.0297C16.6803 17.3011 16.539 17.5512 16.3503 17.7636C16.1375 18.0031 15.8425 18.1743 15.2543 18.5157L14.7593 18.803L14.7593 18.803C14.1664 19.1471 13.8692 19.3196 13.5538 19.3855C13.2743 19.4438 12.9858 19.4413 12.7072 19.3788C12.3923 19.3081 12.0979 19.1315 11.5085 18.7777L11.1324 18.5519L11.1322 18.5518C11.0891 18.5259 11.0646 18.5112 11.0401 18.4975C10.7614 18.3422 10.4492 18.2559 10.1303 18.2456C10.0981 18.2446 10.0655 18.2446 10.0001 18.2446C9.9349 18.2446 9.90228 18.2446 9.8702 18.2456C9.55197 18.2558 9.24162 18.3418 8.96335 18.4965C8.9353 18.5121 8.90696 18.5289 8.85098 18.5625L8.49716 18.7743L8.49708 18.7744C7.91019 19.1258 7.61638 19.3017 7.30282 19.3721C7.02538 19.4344 6.73787 19.4366 6.45942 19.379C6.14468 19.3138 5.84836 19.1432 5.25551 18.8015L4.7618 18.5171C4.16728 18.1745 3.86988 18.0031 3.65536 17.7627C3.46557 17.55 3.3236 17.2994 3.23865 17.0273C3.14264 16.7197 3.14768 16.3763 3.15927 15.6902L3.16614 15.2827C3.16731 15.2137 3.1678 15.1794 3.16723 15.1455C3.16187 14.8315 3.08334 14.5229 2.93667 14.2452C2.92407 14.2214 2.9104 14.1976 2.88811 14.1587C2.88236 14.1487 2.87605 14.1377 2.86903 14.1255C2.83434 14.0648 2.81699 14.0345 2.79891 14.0053C2.63162 13.735 2.40221 13.5083 2.1299 13.3444C2.10562 13.3297 2.08046 13.3158 2.0381 13.2922C2.02915 13.2873 2.01945 13.2819 2.00882 13.276L1.65048 13.0766C1.05347 12.7445 0.755748 12.5787 0.538171 12.3427C0.345682 12.134 0.200518 11.8863 0.111052 11.6168C0.00992527 11.3122 0.00779678 10.9708 0.00624502 10.2877L0.00496819 9.72555C0.00340599 9.03778 0.00332109 8.69387 0.104223 8.38717C0.193485 8.11585 0.339715 7.86672 0.533288 7.65669C0.752102 7.41928 1.05282 7.25245 1.65438 6.91908L2.01595 6.71871C2.02614 6.71306 2.03543 6.70793 2.04396 6.70321C2.08256 6.68185 2.1058 6.669 2.12806 6.65572C2.40287 6.49186 2.6341 6.26452 2.80282 5.99268C2.81564 5.97201 2.82782 5.95087 2.84737 5.9169C2.85326 5.90666 2.85982 5.89527 2.86727 5.88237C2.89943 5.8267 2.91553 5.79883 2.93048 5.77096C3.08159 5.48914 3.16417 5.17499 3.1689 4.85525C3.16917 4.83693 3.16866 4.81851 3.16796 4.79377C3.16746 4.77577 3.16687 4.75443 3.16641 4.72736L3.15927 4.3027C3.14776 3.61896 3.14267 3.27691 3.23813 2.97018C3.32258 2.69881 3.46367 2.4486 3.65243 2.23614C3.86514 1.99672 4.15978 1.82572 4.74762 1.48454L4.75302 1.48124L5.24068 1.1982L5.24332 1.19703C5.8365 0.852756 6.13309 0.680617 6.44864 0.614708C6.7281 0.556336 7.01644 0.558066 7.29501 0.620568C7.60988 0.691214 7.90496 0.868364 8.49423 1.22213L8.8503 1.4359C8.86125 1.44247 8.87111 1.44841 8.88011 1.45382C8.91723 1.47615 8.93964 1.48963 8.96224 1.50224C9.24095 1.65759 9.55226 1.74361 9.87118 1.75387C9.90318 1.7549 9.93721 1.7549 10.002 1.7549C10.0673 1.7549 10.0999 1.7549 10.132 1.75387C10.4502 1.74365 10.7609 1.6581 11.0391 1.50338C11.0672 1.48779 11.0955 1.47091 11.1515 1.43741L11.5053 1.22555L11.5086 1.22396C12.0939 0.873512 12.3867 0.698187 12.6998 0.627892C12.9773 0.565609 13.2646 0.562938 13.5431 0.620568C13.8578 0.685709 14.1543 0.856579 14.7472 1.1982L15.241 1.48276C15.8355 1.82534 16.1324 1.99685 16.3469 2.23725C16.5367 2.44993 16.6788 2.70053 16.7638 2.97262C16.8594 3.27894 16.8537 3.62025 16.8422 4.30078L16.835 4.72604C16.834 4.79121 16.8338 4.82398 16.8343 4.85606C16.8392 5.17515 16.9207 5.48866 17.0714 5.76998C17.0865 5.79819 17.1029 5.82668 17.1354 5.88283L17.1355 5.8831C17.1444 5.89842 17.152 5.91169 17.1587 5.92343C17.1768 5.9549 17.1886 5.97541 17.2009 5.99523C17.3689 6.26564 17.5991 6.49165 17.8722 6.65524C17.8996 6.67169 17.9276 6.68756 17.9845 6.7192ZM10.0007 14C7.79159 14 6.00073 12.2091 6.00073 10C6.00073 7.79086 7.79159 6 10.0007 6C12.2099 6 14.0007 7.79086 14.0007 10C14.0007 12.2091 12.2099 14 10.0007 14Z" fill="#676773"/>
</svg>
