<svg width="24" height="24" viewBox="0 0 24 24" fill="none" xmlns="http://www.w3.org/2000/svg">
<path fill-rule="evenodd" clip-rule="evenodd" d="M12 24C18.6274 24 24 18.6274 24 12C24 5.37258 18.6274 0 12 0C5.37258 0 0 5.37258 0 12C0 18.6274 5.37258 24 12 24ZM9.98791 10.4382V15.8047C9.98791 18.0168 11.1187 19 13.5797 19C14.4777 19 15.1761 18.8361 15.6528 18.5289C16.0962 18.2524 16.329 17.8632 16.329 17.3921C16.329 16.8186 15.941 16.4601 15.3867 16.4601C15.2315 16.4601 15.1068 16.4729 14.9821 16.4857C14.8574 16.4985 14.7327 16.5113 14.5775 16.5113C13.8236 16.5113 13.5576 16.1836 13.5576 15.3029V10.4382H15.5256C16.4679 10.4382 17 9.97732 17 9.18873C17 8.40015 16.4679 7.93928 15.5256 7.93928H13.5132V6.75128C13.5132 5.62473 12.9035 5 11.7949 5C10.6974 5 10.0766 5.62473 10.0766 6.75128V7.93928H8.47442C7.53212 7.93928 7 8.40015 7 9.18873C7 9.97732 7.53212 10.4382 8.47442 10.4382H9.98791Z" fill="#E0E5EB"/>
</svg>
