<svg width="24" height="24" viewBox="0 0 24 24" fill="none" xmlns="http://www.w3.org/2000/svg">
<path d="M7.5 6.29452V6.84452C7.69854 6.84452 7.88166 6.73752 7.97914 6.56457L7.5 6.29452ZM9.075 3.5V2.95C8.87646 2.95 8.69334 3.057 8.59586 3.22995L9.075 3.5ZM14.925 3.5L15.4041 3.22996C15.3067 3.057 15.1235 2.95 14.925 2.95V3.5ZM16.5 6.29452L16.0209 6.56457C16.1183 6.73752 16.3015 6.84452 16.5 6.84452V6.29452ZM3.55 18.1712V8.62329H2.45V18.1712H3.55ZM5.25 6.84452H7.5V5.74452H5.25V6.84452ZM7.97914 6.56457L9.55414 3.77005L8.59586 3.22995L7.02086 6.02448L7.97914 6.56457ZM9.075 4.05H14.925V2.95H9.075V4.05ZM14.4459 3.77004L16.0209 6.56457L16.9791 6.02448L15.4041 3.22996L14.4459 3.77004ZM16.5 6.84452H18.75V5.74452H16.5V6.84452ZM20.45 8.62329V18.1712H21.55V8.62329H20.45ZM20.45 18.1712C20.45 19.1716 19.6712 19.95 18.75 19.95V21.05C20.3141 21.05 21.55 19.7431 21.55 18.1712H20.45ZM18.75 6.84452C19.6712 6.84452 20.45 7.62291 20.45 8.62329H21.55C21.55 7.05138 20.3141 5.74452 18.75 5.74452V6.84452ZM3.55 8.62329C3.55 7.62291 4.3288 6.84452 5.25 6.84452V5.74452C3.68592 5.74452 2.45 7.05138 2.45 8.62329H3.55ZM5.25 19.95C4.3288 19.95 3.55 19.1716 3.55 18.1712H2.45C2.45 19.7431 3.68592 21.05 5.25 21.05V19.95ZM14.825 12.8151C14.825 14.4585 13.5425 15.7582 12 15.7582V16.8582C14.1854 16.8582 15.925 15.03 15.925 12.8151H14.825ZM12 15.7582C10.4575 15.7582 9.175 14.4585 9.175 12.8151H8.075C8.075 15.03 9.8146 16.8582 12 16.8582V15.7582ZM9.175 12.8151C9.175 11.1716 10.4575 9.87192 12 9.87192V8.77192C9.8146 8.77192 8.075 10.6001 8.075 12.8151H9.175ZM12 9.87192C13.5425 9.87192 14.825 11.1716 14.825 12.8151H15.925C15.925 10.6001 14.1854 8.77192 12 8.77192V9.87192ZM18.75 19.95H5.25V21.05H18.75V19.95Z" fill="#BEBEBE"/>
</svg>
