<svg width="24" height="24" viewBox="0 0 24 24" fill="none" xmlns="http://www.w3.org/2000/svg">
<path d="M9.3 9.3V8.75C8.99624 8.75 8.75 8.99624 8.75 9.3H9.3ZM9.38965 9.3H9.93965C9.93965 8.99624 9.69341 8.75 9.38965 8.75V9.3ZM14.7 9.3V8.75C14.3962 8.75 14.15 8.99624 14.15 9.3H14.7ZM14.7797 9.3H15.3297C15.3297 8.99624 15.0835 8.75 14.7797 8.75V9.3ZM9.38965 9.37207V9.92207C9.69341 9.92207 9.93965 9.67583 9.93965 9.37207H9.38965ZM9.3 9.37207H8.75C8.75 9.67583 8.99624 9.92207 9.3 9.92207V9.37207ZM14.7797 9.37207V9.92207C15.0835 9.92207 15.3297 9.67583 15.3297 9.37207H14.7797ZM14.7 9.37207H14.15C14.15 9.67583 14.3962 9.92207 14.7 9.92207V9.37207ZM9.34761 14.4472C9.18773 14.189 8.84875 14.1092 8.59047 14.2691C8.3322 14.4289 8.25242 14.7679 8.4123 15.0262L9.34761 14.4472ZM15.5877 15.0262C15.7476 14.7679 15.6678 14.4289 15.4095 14.2691C15.1512 14.1092 14.8123 14.189 14.6524 14.4472L15.5877 15.0262ZM20.45 12C20.45 16.6668 16.6668 20.45 12 20.45V21.55C17.2743 21.55 21.55 17.2743 21.55 12H20.45ZM12 20.45C7.33319 20.45 3.55 16.6668 3.55 12H2.45C2.45 17.2743 6.72568 21.55 12 21.55V20.45ZM3.55 12C3.55 7.33319 7.33319 3.55 12 3.55V2.45C6.72568 2.45 2.45 6.72568 2.45 12H3.55ZM12 3.55C16.6668 3.55 20.45 7.33319 20.45 12H21.55C21.55 6.72568 17.2743 2.45 12 2.45V3.55ZM9.3 9.85H9.38965V8.75H9.3V9.85ZM14.7 9.85H14.7797V8.75H14.7V9.85ZM8.83965 9.3V9.37207H9.93965V9.3H8.83965ZM9.38965 8.82207H9.3V9.92207H9.38965V8.82207ZM9.85 9.37207V9.3H8.75V9.37207H9.85ZM14.2297 9.3V9.37207H15.3297V9.3H14.2297ZM14.7797 8.82207H14.7V9.92207H14.7797V8.82207ZM15.25 9.37207V9.3H14.15V9.37207H15.25ZM12 15.95C10.8915 15.95 9.91041 15.3564 9.34761 14.4472L8.4123 15.0262C9.16189 16.2372 10.4851 17.05 12 17.05V15.95ZM14.6524 14.4472C14.0896 15.3564 13.1085 15.95 12 15.95V17.05C13.5149 17.05 14.8381 16.2372 15.5877 15.0262L14.6524 14.4472Z" fill="#BEBEBE"/>
</svg>
