<svg width="24" height="24" viewBox="0 0 24 24" fill="none" xmlns="http://www.w3.org/2000/svg">
<path d="M6.96955 10.0305L4.53846 12.4615C3.63052 13.3695 3.1084 14.6049 3.11794 15.9032C3.12748 17.2016 3.63818 18.4445 4.5892 19.3662C5.51081 20.3172 6.754 20.8279 8.05215 20.8374C9.37991 20.8472 10.5861 20.3545 11.4941 19.4465L13.9252 17.0155M17.0304 13.9696L19.4615 11.5385C20.3694 10.6306 20.8916 9.39518 20.882 8.09682C20.8725 6.79845 20.3618 5.55553 19.4107 4.63387C18.4894 3.71248 17.2464 3.20175 15.948 3.19221C14.6497 3.18267 13.4141 3.67516 12.5061 4.58313L10.075 7.01421M8.31339 15.6216L15.6066 8.32835" stroke="#BEBEBE" stroke-width="1.1" stroke-linecap="round" stroke-linejoin="round"/>
</svg>
