<svg width="24" height="24" viewBox="0 0 24 24" fill="none" xmlns="http://www.w3.org/2000/svg">
<circle cx="12" cy="12" r="10" fill="#6DE67B"/>
<path d="M11.4 16.7368C11.4 17.0682 11.6686 17.3368 12 17.3368C12.3314 17.3368 12.6 17.0682 12.6 16.7368L11.4 16.7368ZM12.4243 6.83887C12.1899 6.60455 11.8101 6.60455 11.5757 6.83887L7.75736 10.6572C7.52304 10.8916 7.52304 11.2715 7.75736 11.5058C7.99167 11.7401 8.37157 11.7401 8.60589 11.5058L12 8.11166L15.3941 11.5058C15.6284 11.7401 16.0083 11.7401 16.2426 11.5058C16.477 11.2715 16.477 10.8916 16.2426 10.6572L12.4243 6.83887ZM12.6 16.7368L12.6 7.26313L11.4 7.26313L11.4 16.7368L12.6 16.7368Z" fill="white"/>
</svg>
