<svg width="51" height="51" viewBox="0 0 51 51" fill="none" xmlns="http://www.w3.org/2000/svg">
<g clip-path="url(#clip0_10_964)">
<rect x="0.717773" y="0.0612793" width="24" height="24" rx="2" fill="#D6DDF3"/>
<circle cx="12.7174" cy="10.8362" r="4.14902" fill="#F8F9FF"/>
<circle cx="12.7181" cy="23.7259" r="7.09311" fill="#F8F9FF"/>
</g>
<g clip-path="url(#clip1_10_964)">
<rect x="26.7178" y="0.0612793" width="24" height="24" rx="2" fill="#C3CBE7"/>
<circle cx="38.7174" cy="10.8362" r="4.14902" fill="#F8F9FF"/>
<circle cx="38.7181" cy="23.7259" r="7.09311" fill="#F8F9FF"/>
</g>
<g clip-path="url(#clip2_10_964)">
<rect x="0.717773" y="26.0613" width="24" height="24" rx="2" fill="#C3CBE7"/>
<circle cx="12.7174" cy="36.8362" r="4.14902" fill="#F8F9FF"/>
<circle cx="12.7181" cy="49.7259" r="7.09311" fill="#F8F9FF"/>
</g>
<g clip-path="url(#clip3_10_964)">
<rect x="26.7178" y="26.0613" width="24" height="24" rx="2" fill="#969FBE"/>
<circle cx="38.7174" cy="36.8362" r="4.14902" fill="#F8F9FF"/>
<circle cx="38.7181" cy="49.7259" r="7.09311" fill="#F8F9FF"/>
</g>
<defs>
<clipPath id="clip0_10_964">
<rect x="0.717773" y="0.0612793" width="24" height="24" rx="2" fill="white"/>
</clipPath>
<clipPath id="clip1_10_964">
<rect x="26.7178" y="0.0612793" width="24" height="24" rx="2" fill="white"/>
</clipPath>
<clipPath id="clip2_10_964">
<rect x="0.717773" y="26.0613" width="24" height="24" rx="2" fill="white"/>
</clipPath>
<clipPath id="clip3_10_964">
<rect x="26.7178" y="26.0613" width="24" height="24" rx="2" fill="white"/>
</clipPath>
</defs>
</svg>
