<svg width="24" height="24" viewBox="0 0 24 24" fill="none" xmlns="http://www.w3.org/2000/svg">
<path d="M15.637 1.93421C15.8161 1.79316 16.0724 1.80834 16.2336 1.96954L22.0306 7.76653C22.1918 7.92773 22.207 8.18403 22.0659 8.36313L14.2438 18.2959C14.077 18.5077 13.7627 18.5264 13.5721 18.3357L5.66439 10.428C5.47376 10.2374 5.49238 9.92309 5.70417 9.7563L15.637 1.93421Z" stroke="#6DE67B" stroke-width="1.1"/>
<path d="M4.09026 19.1318C3.87547 19.3466 3.87547 19.6948 4.09026 19.9096C4.30505 20.1244 4.65329 20.1244 4.86808 19.9096L4.09026 19.1318ZM9.23609 13.986L4.09026 19.1318L4.86808 19.9096L10.0139 14.7638L9.23609 13.986Z" fill="#6DE67B"/>
</svg>
