<svg width="24" height="24" viewBox="0 0 24 24" fill="none" xmlns="http://www.w3.org/2000/svg">
    <path
        d="M19.646 17.8339L18.9793 9.83391C18.8929 8.79732 18.0264 8 16.9862 8H15.8265H7.82654H6.66681C5.62663 8 4.7601 8.79732 4.67372 9.83391L4.00705 17.8339C3.90988 18.9999 4.83006 20 6.00014 20H17.6529C18.823 20 19.7432 18.9999 19.646 17.8339Z"
        stroke="#8B95A1" stroke-width="1.5" stroke-linecap="round" stroke-linejoin="round" />
    <path
        d="M15.8264 12V8V7C15.8264 5.93913 15.405 4.92172 14.6548 4.17157C13.9047 3.42143 12.8873 3 11.8264 3C10.7655 3 9.74814 3.42143 8.99799 4.17157C8.24785 4.92172 7.82642 5.93913 7.82642 7V8V12"
        stroke="#8B95A1" stroke-width="1.5" stroke-linecap="round" stroke-linejoin="round" />
</svg>